SplineFontDB: 1.0
FontName: DBThaiText-BoldOblique
FullName: DBThaiText Bold Oblique
FamilyName: DBThaiText
Weight: Bold
Copyright: Typeface (c) The Monotype Corporation plc. Data (c) The Monotype Corporation plc/Type Solutions Inc. 1990-1992. All Rights Reserved\n\nModified by TLWG
Version: 2.0 : Dec 10, 2003
ItalicAngle: -12
UnderlinePosition: -50
UnderlineWidth: 60
Ascent: 800
Descent: 200
NeedsXUIDChange: 1
FSType: 0
PfmFamily: 33
TTFWeight: 700
TTFWidth: 5
Panose: 2 0 8 3 0 0 0 0 0 0
LineGap: 184
VLineGap: 0
ScriptLang: 2
 1 latn 1 dflt 
 1 thai 1 dflt 
LangName: 1033 "" "" "" "PfaEdit : DBThaiTextBold : 13-0-2003" 
Encoding: custom
UnicodeInterp: none
DisplaySize: -72
AntiAlias: 1
FitToEm: 1
WinInfo: 176 8 2
BeginPrivate: 3
BlueValues 31 [-31 0 726 753 786 805 959 976]
OtherBlues 11 [-260 -260]
ForceBold 4 true
EndPrivate
BeginChars: 293 258
StartChar: .notdef
Encoding: 0 -1 0
Width: 901
VWidth: 2048
Flags: W
HStem: -48 118<199 773> 1443 119<396 970>
DStem: 396 1562 491 1443 54 -48 199 70 970 1443 1115 1562 678 70 773 -48
Fore
54 -48 m 1
 396 1562 l 1
 1115 1562 l 1
 773 -48 l 1
 54 -48 l 1
199 70 m 1
 678 70 l 1
 970 1443 l 1
 491 1443 l 1
 199 70 l 1
EndSplineSet
EndChar
StartChar: exclam
Encoding: 33 33 3
Width: 319
Flags: W
HStem: 0 21G<108 252>
DStem: 138 141 282 141 108 0 252 0 258 704 402 704 214 500 358 500
Fore
189 200 m 1
 214 500 l 1
 258 704 l 1
 402 704 l 1
 358 500 l 1
 253 200 l 1
 189 200 l 1
138 141 m 1
 282 141 l 1
 252 0 l 1
 108 0 l 1
 138 141 l 1
EndSplineSet
EndChar
StartChar: quotedbl
Encoding: 34 34 4
Width: 454
VWidth: 2048
Flags: W
Fore
179 454 m 1
 170 588 l 1
 194 702 l 1
 338 702 l 1
 314 588 l 1
 244 454 l 1
 179 454 l 1
395 454 m 1
 386 588 l 1
 410 702 l 1
 555 702 l 5
 531 588 l 1
 460 454 l 1
 395 454 l 1
EndSplineSet
EndChar
StartChar: numbersign
Encoding: 35 35 5
Width: 535
Flags: W
HStem: -28 21G<54 154 252 356> 138 110<55 119 266 319 469 536> 366 108<142 213 557 610>
DStem: 119 138 223 138 54 -28 154 -28 213 366 315 366 165 248 266 248 319 138 421 138 252 -28 356 -28 336 670 438 670 257 474 359 474 416 366 518 366 365 248 469 248 534 670 636 670 455 477 557 474
Fore
336 670 m 1
 438 670 l 1
 359 474 l 1
 455 477 l 1
 534 670 l 1
 636 670 l 1
 557 474 l 1
 633 474 l 1
 610 366 l 1
 518 366 l 1
 469 248 l 1
 560 248 l 1
 536 138 l 1
 421 138 l 1
 356 -28 l 1
 252 -28 l 1
 319 138 l 1
 223 138 l 1
 154 -28 l 1
 54 -28 l 1
 119 138 l 1
 32 138 l 1
 56 248 l 1
 165 248 l 1
 213 366 l 1
 120 366 l 1
 143 474 l 1
 257 474 l 1
 336 670 l 1
315 366 m 1
 266 248 l 1
 365 248 l 1
 416 366 l 1
 315 366 l 1
EndSplineSet
EndChar
StartChar: dollar
Encoding: 36 36 6
Width: 535
Flags: W
HStem: 718 20G<393 455>
DStem: 232 -21 294 -18 208 -120 272 -120 299 297 356 273 253 81 316 84 361 588 422 585 324 414 382 393
Fore
602 482 m 1
 477 482 l 1
 479.333 492.333 480.444 501.889 480.444 510.704 c 0
 480.444 528.333 476 543 468 555 c 0
 452 572 438 582 422 585 c 1
 382 393 l 1
 444 376 491 352 521 322 c 0
 542.207 300.062 553.788 271.706 553.788 237.715 c 0
 553.788 225.225 552.225 211.973 549 198 c 0
 540 154 523 118 503 92 c 0
 481 63 461 42 435 28 c 0
 409 14 386 2 359 -3 c 0
 332 -10 311 -15 294 -18 c 1
 272 -120 l 1
 208 -120 l 1
 232 -21 l 1
 220 -18 209 -16 198 -15 c 0
 187 -14 175 -9 159 -3 c 0
 144 2 131 8 120 15 c 0
 110 24 97 34 86 50 c 0
 66.8967 74.3732 57.7738 104.821 57.7738 140.487 c 0
 57.7738 158.964 60.2223 178.842 65 200 c 1
 191 200 l 1
 190.101 188.313 189.606 177.839 189.606 168.577 c 0
 189.606 157.233 190.348 147.707 192 140 c 0
 196 123 201 112 206 105 c 0
 215 99 221 93 231 90 c 0
 238 84 247 82 253 81 c 1
 299 297 l 1
 247 308 205 327 175 357 c 0
 150.775 381.982 138.012 412.121 138.012 447.852 c 0
 138.012 459.32 139.327 471.365 142 484 c 0
 153 543 181 590 225 626 c 0
 267 662 317 680 382 686 c 1
 393 738 l 1
 455 738 l 1
 444 686 l 1
 551.173 677.215 605.098 624.444 605.098 525.651 c 0
 605.098 511.983 604.066 497.435 602 482 c 1
324 414 m 1
 361 588 l 1
 309 579 276 548 264 495 c 1
 263.549 492.07 263.352 489.19 263.352 486.362 c 0
 263.352 476.641 265.676 467.521 268 459 c 0
 269 448 276 441 286 434 c 0
 297 426 309 418 324 414 c 1
356 273 m 1
 316 84 l 1
 321 87 329 90 338 93 c 0
 348 96 361 102 371 106 c 0
 380 112 388 118 396 129 c 0
 405 140 410 152 415 166 c 0
 417.257 176.531 418.382 186.355 418.382 195.464 c 0
 418.382 234.797 397.409 260.821 356 273 c 1
EndSplineSet
EndChar
StartChar: percent
Encoding: 37 37 7
Width: 856
Flags: W
HStem: -16 21G<195 271> -12 94<653 673> 244 96<707 728> 326 96<267 288> 584 96<322 343>
DStem: 730 682 805 682 195 -16 271 -16
Fore
271 -16 m 1
 195 -16 l 1
 730 682 l 1
 805 682 l 1
 271 -16 l 1
515 165 m 0
 525 212 550 252 592 288 c 0
 633 324 680 340 728 340 c 0
 777 340 813 324 841 288 c 0
 861.811 262.166 871.292 234.787 871.292 203.646 c 0
 871.292 191.392 869.824 178.555 867 165 c 0
 857 116 832 74 788 39 c 0
 745 4 701 -12 653 -12 c 0
 605 -12 567 3 539 39 c 0
 519.29 64.3417 510.481 92.161 510.481 123.504 c 0
 510.481 136.687 512.039 150.493 515 165 c 0
127 501 m 0
 138 550 164 591 207 627 c 0
 249 663 293 680 343 680 c 0
 393 680 429 663 455 627 c 0
 475.246 600.969 485.559 572.324 485.559 539.93 c 0
 485.559 527.524 484.046 514.569 481 501 c 0
 471 453 444 410 402 376 c 0
 361 342 317 326 267 326 c 0
 217 326 181 342 154 376 c 0
 132.877 400.765 122.896 430.304 122.896 463.072 c 0
 122.896 475.293 124.284 487.962 127 501 c 0
611 165 m 0
 609.699 159.017 609.075 153.304 609.075 147.826 c 0
 609.075 132.25 614.122 118.577 623 106 c 0
 635 92 651 82 673 82 c 0
 695 82 719 92 737 106 c 0
 755 123 765 142 770 165 c 0
 771.506 171.324 772.286 177.558 772.286 183.565 c 0
 772.286 197.502 768.085 210.216 759 220 c 0
 746 236 730 244 708 244 c 0
 686 244 665 236 647 220 c 0
 629 206 616 186 611 165 c 0
223 501 m 0
 222.088 496.212 221.644 491.476 221.644 486.851 c 0
 221.644 471.192 226.736 456.808 236 446 c 0
 247 430 267 422 288 422 c 0
 310 422 329 430 350 446 c 0
 368 460 380 480 384 501 c 0
 385.77 509.142 386.788 516.908 386.788 524.299 c 0
 386.788 537.784 383.398 550.018 375 561 c 0
 362 576 344 584 322 584 c 0
 301 584 278 576 260 561 c 0
 242 544 228 524 223 501 c 0
EndSplineSet
EndChar
StartChar: ampersand
Encoding: 38 38 8
Width: 694
Flags: W
HStem: -18 110<281 304> 0 21G<513 669> 596 108<437 460>
DStem: 331 308 449 380 425 147 524 249
Fore
583 362 m 1
 693 362 l 1
 685 326 671 288 651 250 c 0
 631 213 607 182 579 156 c 1
 669 0 l 1
 513 0 l 1
 479 60 l 1
 442 34 411 14 387 2 c 0
 361 -10 324 -18 281 -18 c 0
 276.671 -18.2062 272.393 -18.3084 268.169 -18.3084 c 0
 210.915 -18.3084 163.32 0.473863 127 34 c 0
 99.7349 59.7913 85.5021 93.1848 85.5021 135.381 c 0
 85.5021 150.447 87.3165 166.635 91 184 c 0
 92 188 97 201 104 226 c 0
 117 258 134 284 155 304 c 0
 175 326 199 342 222 354 c 0
 246 366 266 378 286 388 c 1
 274 405 266 418 257 430 c 0
 250 442 244 458 241 477 c 0
 237.863 486.41 236.366 495.82 236.366 505.658 c 0
 236.366 514.64 237.614 523.978 240 534 c 0
 244 556 253 579 270 602 c 0
 291 634 318 660 352 678 c 0
 386 694 423 704 460 704 c 0
 502 704 536 694 563 674 c 0
 591 652 602 622 602 586 c 0
 600 572 599 560 597 549 c 0
 588 510 572 480 549 454 c 0
 521 429 490 405 449 380 c 1
 524 249 l 1
 537 258 548 272 558 290 c 0
 572 309 578 327 581 342 c 0
 582 348 582 354 583 362 c 1
381 494 m 2
 405 456 l 1
 416 462 427 468 436 472 c 0
 444 478 453 483 459 492 c 0
 466 500 473 512 478 526 c 0
 480.11 537.606 481.385 547.541 481.385 556.101 c 0
 481.385 563.768 480.362 570.33 478 576 c 0
 476 588 463 596 437 596 c 0
 405 596 384 584 374 561 c 1
 372.039 551.978 370.847 542.647 370.847 533.492 c 0
 370.847 519.309 373.707 505.547 381 494 c 2
425 147 m 1
 331 308 l 1
 295 286 270 273 256 264 c 0
 237 250 226 231 220 204 c 0
 218.447 196.68 217.682 189.507 217.682 182.504 c 0
 217.682 157.936 227.102 135.454 245 116 c 0
 259 100 280 92 302 92 c 0
 334 92 375 110 425 147 c 1
EndSplineSet
EndChar
StartChar: quotesingle
Encoding: 39 39 9
Width: 214
VWidth: 2048
Flags: W
Fore
179 454 m 1
 170 588 l 1
 194 702 l 1
 338 702 l 1
 314 588 l 1
 244 454 l 1
 179 454 l 1
EndSplineSet
EndChar
StartChar: parenleft
Encoding: 40 40 10
Width: 319
Flags: W
Fore
345 704 m 1
 441 704 l 1
 387 634 342 566 302 498 c 0
 262 429 236 363 222 297 c 0
 218 278 215 262 214 255 c 0
 206.939 204.929 202.35 153.621 202.35 101.606 c 0
 202.35 72.5935 203.777 43.3608 207 14 c 0
 211 -69 226 -140 250 -195 c 1
 154 -195 l 1
 131 -135 120 -96 112 -75 c 0
 105 -52 97 -24 91 14 c 0
 86 50 82 87 82 123 c 0
 82 160 84 206 93 255 c 0
 103 300 118 346 137 390 c 0
 155 434 177 474 201 512 c 0
 223 549 246 582 267 608 c 0
 287 632 312 664 345 704 c 1
EndSplineSet
EndChar
StartChar: parenright
Encoding: 41 41 11
Width: 319
Flags: W
Fore
172 704 m 1
 267 704 l 1
 299 627 322 556 336 490 c 0
 342.454 461.171 345.761 430.12 345.761 397.007 c 0
 345.761 353.163 339.964 305.705 328 255 c 0
 308 165 277 90 240 28 c 0
 201 -32 147 -106 76 -195 c 1
 -19 -195 l 1
 27 -140 73 -69 115 14 c 0
 155 94 185 174 207 255 c 0
 210 262 213 276 216 292 c 0
 224 328 229 363 229 399 c 0
 229.089 401.923 229.13 404.869 229.13 407.838 c 0
 229.13 438.392 224.734 471.365 222 506 c 0
 216 544 211 578 203 608 c 0
 195 636 184 668 172 704 c 1
EndSplineSet
EndChar
StartChar: asterisk
Encoding: 42 42 12
Width: 373
Flags: W
DStem: 238 518 279 465 142 423 195 370 279 465 348 518 331 370 404 423 296 704 370 704 270 585 344 585
Fore
195 370 m 1
 142 423 l 1
 238 518 l 1
 140 555 l 1
 180 622 l 1
 270 585 l 1
 296 704 l 1
 370 704 l 1
 344 585 l 1
 450 622 l 1
 462 555 l 1
 348 518 l 1
 404 423 l 1
 331 370 l 1
 279 465 l 1
 195 370 l 1
EndSplineSet
EndChar
StartChar: plus
Encoding: 43 43 13
Width: 562
Flags: W
HStem: 286 116<132 285 424 577>
DStem: 285 286 400 286 247 110 362 110 347 578 462 578 309 402 424 402
Fore
347 578 m 5
 462 578 l 5
 424 402 l 5
 601 402 l 5
 577 286 l 5
 400 286 l 5
 362 110 l 5
 247 110 l 5
 285 286 l 5
 109 286 l 5
 133 402 l 5
 309 402 l 5
 347 578 l 5
EndSplineSet
EndChar
StartChar: comma
Encoding: 44 44 14
Width: 330
Flags: W
Fore
271 74 m 0
 262 27 235 -12 198 -40 c 0
 159 -70 125 -88 92 -92 c 1
 86 -68 l 1
 110 -56 130 -46 144 -36 c 0
 159 -26 170 -9 180 14 c 1
 161 14 145 18 129 28 c 0
 117.371 36.5278 112.955 49.2628 112.955 68.5346 c 0
 112.955 74.1214 113.326 80.2577 114 87 c 0
 119 106 130 123 146 140 c 0
 161 153 178 159 199 159 c 0
 229 159 250 152 260 135 c 0
 268.614 124.233 273.105 110.375 273.105 94.1646 c 0
 273.105 87.7915 272.411 81.055 271 74 c 0
EndSplineSet
EndChar
StartChar: hyphen
Encoding: 45 45 15
Width: 319
Flags: W
HStem: 200 132<96 331>
Fore
97 332 m 1
 359 332 l 1
 331 200 l 1
 69 200 l 1
 97 332 l 1
EndSplineSet
EndChar
StartChar: period
Encoding: 46 46 16
Width: 240
Flags: W
HStem: 0 21G<105.5 128.5>
Fore
117 0 m 0
 94 0 78 8 68 21 c 0
 61.921 29.7808 59.0356 40.3865 59.0356 52.2007 c 0
 59.0356 57.8776 59.7018 63.8334 61 70 c 0
 65 90 75 106 90 120 c 0
 104 134 124 141 147 141 c 0
 170 141 184 134 194 120 c 0
 200.068 111.909 203.409 102 203.409 89.6594 c 0
 203.409 83.6969 202.629 77.1668 201 70 c 0
 197 51 187 34 172 21 c 0
 158 8 140 0 117 0 c 0
EndSplineSet
EndChar
StartChar: slash
Encoding: 47 47 17
Width: 267
Flags: W
HStem: -14 21G<-1 60>
DStem: 353 690 411 690 -1 -14 60 -14
Fore
353 690 m 1
 411 690 l 1
 60 -14 l 1
 -1 -14 l 1
 353 690 l 1
EndSplineSet
EndChar
StartChar: zero
Encoding: 48 48 18
Width: 535
Flags: W
HStem: -22 124<257 284> 576 123<384 411>
Fore
257 -22 m 0
 226 -22 195 -16 169 -4 c 0
 143 8 122 22 108 44 c 0
 89.5169 75.53 80.195 118.881 80.195 174.213 c 0
 80.195 220.666 86.765 275.563 100 339 c 0
 130 480 174 576 233 632 c 0
 256 654 283 669 315 681 c 0
 345 693 380 699 411 699 c 0
 485 699 536 676 563 632 c 0
 580.936 601.564 590.305 559.312 590.305 504.442 c 0
 590.305 458.355 583.695 403.366 570 339 c 0
 541 200 496 102 438 44 c 0
 392 0 331 -22 257 -22 c 0
284 102 m 0
 326 102 357 117 375 147 c 0
 395 182 415 246 435 339 c 0
 451.148 414.09 458.17 469.622 458.17 507.176 c 0
 458.17 516.133 457.77 524.067 457 531 c 0
 451 561 426 576 384 576 c 0
 366 576 348 573 332 564 c 0
 314 556 304 546 296 531 c 0
 275 496 254 432 234 339 c 0
 218.9 267.275 211.78 213.22 211.78 176.837 c 0
 211.78 165.031 212.53 155.085 214 147 c 1
 217 117 241 102 284 102 c 0
EndSplineSet
EndChar
StartChar: one
Encoding: 49 49 19
Width: 535
Flags: W
HStem: 0 21G<230 364> 472 90<185 208.525>
DStem: 330 472 509 682 230 0 364 0
Fore
509 682 m 1
 364 0 l 1
 230 0 l 1
 330 472 l 1
 166 472 l 1
 185 562 l 1
 211 562 240 566 270 573 c 0
 301 578 325 586 343 598 c 0
 385 624 412 652 419 682 c 1
 509 682 l 1
EndSplineSet
EndChar
StartChar: two
Encoding: 50 50 20
Width: 535
Flags: W
HStem: 0 122<232 494>
Fore
520 122 m 1
 494 0 l 1
 28 0 l 1
 42 48 59 88 78 123 c 0
 98 159 131 195 183 230 c 0
 219 255 263 279 309 310 c 0
 354 339 385 362 401 376 c 0
 433 408 454 441 461 474 c 0
 463 486 463 500 464 516 c 0
 464.07 517.548 464.106 519.086 464.106 520.612 c 0
 464.106 540.775 457.874 558.844 443 570 c 0
 427 582 410 588 387 588 c 0
 381 588 373 586 362 585 c 0
 316 574 283 530 265 447 c 1
 134 447 l 1
 152 530 186 591 234 636 c 0
 278.749 675.155 339.141 700.404 411.127 700.404 c 0
 416.357 700.404 421.649 700.271 427 700 c 0
 541.526 694.354 601.412 637.972 601.412 534.525 c 0
 601.412 509.708 597.965 482.183 591 452 c 0
 576 386 501 315 382 243 c 0
 299 192 250 152 232 122 c 1
 520 122 l 1
EndSplineSet
EndChar
StartChar: three
Encoding: 51 51 21
Width: 535
Flags: W
HStem: -22 109<253 302> 304 92<275 303>
Fore
71 200 m 1
 201 200 l 1
 197.944 183.193 196.639 168.721 196.639 157.475 c 0
 196.639 154 196.764 150.833 197 148 c 0
 199 138 204 126 209 117 c 0
 217 108 227 100 240 94 c 0
 257 90 278 87 302 87 c 1
 318 92 333 100 344 108 c 0
 376 134 396 162 404 198 c 0
 405.576 205.428 406.341 212.45 406.341 219.102 c 0
 406.341 242.001 397.273 260.502 381 276 c 0
 360 296 325 304 275 304 c 1
 294 396 l 1
 332 396 364 404 391 416 c 0
 418 428 435 447 445 474 c 0
 450 488 454 498 455 504 c 0
 456.5 511.5 457.25 519 457.25 526.375 c 0
 457.25 533.75 456.5 541 455 548 c 0
 451 561 444 572 432 579 c 0
 421 586 404 591 382 591 c 0
 378.74 591.257 375.546 591.382 372.422 591.382 c 0
 339.12 591.382 313.627 577.198 299 558 c 0
 284 536 273 506 261 468 c 1
 138 468 l 1
 149 518 165 558 185 590 c 0
 206 622 240 651 290 676 c 0
 317.384 691.108 362.601 699.083 423.125 699.083 c 0
 426.697 699.083 430.322 699.056 434 699 c 0
 488 699 526 682 550 657 c 0
 573 636 584 610 586 585 c 0
 587.489 575.693 588.285 565.139 588.285 553.698 c 0
 588.285 534.408 586.022 512.598 581 490 c 1
 570 460 560 440 546 423 c 0
 530 406 508 388 478 366 c 1
 508 344 528 321 539 292 c 0
 543.672 280.786 546.162 266.515 546.162 249.188 c 0
 546.162 229.432 542.926 205.703 536 178 c 0
 523 129 491 82 449 40 c 0
 402 -2 335 -22 253 -22 c 0
 217 -22 187 -16 158 -9 c 0
 132 0 108 21 89 52 c 0
 76 75 67 99 66 122 c 0
 65.7753 127.394 65.6515 132.838 65.6515 138.367 c 0
 65.6515 157.439 67.1237 177.518 71 200 c 1
EndSplineSet
EndChar
StartChar: four
Encoding: 52 52 22
Width: 535
Flags: W
HStem: 0 21G<297 432> 152 109<175 329 487 536>
DStem: 329 152 464 152 297 0 432 0 413 546 577 682 352 261 487 261 419 682 413 546 81 266 175 261
Fore
419 682 m 1
 577 682 l 1
 487 261 l 1
 559 261 l 1
 536 152 l 1
 464 152 l 1
 432 0 l 1
 297 0 l 1
 329 152 l 1
 56 152 l 1
 81 266 l 1
 419 682 l 1
413 546 m 1
 175 261 l 1
 352 261 l 1
 413 546 l 1
EndSplineSet
EndChar
StartChar: five
Encoding: 53 53 23
Width: 535
Flags: W
HStem: -22 114<257 281> 562 120<253 591>
DStem: 253 682 311 562 110 303 258 422
Fore
64 178 m 1
 197 178 l 1
 195.954 171.725 195.516 166.058 195.516 160.828 c 0
 195.516 151.058 197.046 142.817 199 135 c 0
 200 123 207 114 220 105 c 0
 233 96 254 92 281 92 c 0
 316 93 344 106 366 132 c 0
 386 158 402 186 409 222 c 0
 412.472 238.925 414.249 254.155 414.249 267.691 c 0
 414.249 285.344 411.226 300.114 405 312 c 0
 389.009 337.398 364.169 352.177 327.984 352.177 c 0
 325.702 352.177 323.374 352.119 321 352 c 0
 282 352 253 334 234 303 c 1
 110 303 l 1
 253 682 l 1
 617 682 l 1
 591 562 l 1
 311 562 l 1
 258 422 l 1
 287 438 311 447 327 453 c 0
 346 458 366 460 384 460 c 0
 407 460 431 458 455 448 c 0
 497 434 527 405 542 364 c 0
 549.486 340.967 553.324 315.944 553.324 289.695 c 0
 553.324 270.36 551.242 250.36 547 230 c 0
 535 172 509 123 477 84 c 0
 451 52 422 28 389 12 c 0
 352 -8 311 -16 257 -22 c 1
 213 -22 181 -16 160 -9 c 0
 141 0 121 14 102 30 c 0
 86 50 74 66 66 84 c 0
 60.5187 102.271 55.8719 115.535 55.8719 129.89 c 0
 55.8719 131.249 55.9136 132.617 56 134 c 0
 58 147 60 162 64 178 c 1
EndSplineSet
EndChar
StartChar: six
Encoding: 54 54 24
Width: 535
Flags: W
HStem: -22 114<267 285> 348 104<338 410> 594 106<408 428>
Fore
601 531 m 1
 476 531 l 1
 472 572 448 591 410 594 c 0
 381 594 357 586 335 573 c 0
 314 561 299 546 291 530 c 0
 275 504 262 472 255 438 c 0
 251 420 252 408 251 400 c 1
 272 416 295 429 318 438 c 0
 343 446 374 452 410 452 c 0
 471 452 513 423 538 369 c 0
 549.317 344.479 555.1 317.191 555.1 287.136 c 0
 555.1 269.389 553.084 250.677 549 231 c 0
 539 184 525 146 502 114 c 0
 472 68 437 34 402 14 c 0
 362 -9 318 -21 267 -22 c 0
 263.991 -22.1115 261.012 -22.167 258.066 -22.167 c 0
 208.133 -22.167 167.217 -6.2167 137 24 c 0
 105 56 86 94 82 142 c 0
 81.7538 148.894 81.6288 155.939 81.6288 163.136 c 0
 81.6288 214.401 87.9697 273.356 102 340 c 0
 117 408 137 468 162 519 c 0
 191 572 227 615 272 650 c 0
 316 682 369 700 428 700 c 0
 445 700 458 700 465 699 c 0
 529 690 570 668 587 634 c 0
 596.912 608.076 602.755 582.152 602.755 555.785 c 0
 602.755 547.571 602.188 539.314 601 531 c 1
238 286 m 0
 223 266 212 243 206 218 c 0
 203.583 205.57 202.478 193.975 202.478 183.131 c 0
 202.478 162.57 206.453 144.713 213 129 c 0
 224 108 245 96 276 92 c 1
 311 92 338 102 362 122 c 0
 394 152 413 184 422 226 c 0
 424.784 239.521 426.144 251.619 426.144 262.733 c 0
 426.144 279.567 423.023 294.147 417 308 c 0
 405 334 377 348 338 348 c 0
 320 346 302 340 283 330 c 0
 266 322 249 308 238 286 c 0
EndSplineSet
EndChar
StartChar: seven
Encoding: 55 55 25
Width: 535
Flags: W
HStem: 0 21G<128 262> 562 120<172 485>
Fore
173 682 m 1
 653 682 l 1
 631 578 l 1
 586 536 546 492 507 447 c 0
 468 404 436 357 404 310 c 0
 372 262 345 213 320 162 c 0
 298 112 278 57 262 0 c 1
 128 0 l 1
 149 68 174 128 198 177 c 0
 220 225 248 272 275 314 c 0
 301 354 333 394 366 434 c 0
 401 474 440 518 485 562 c 1
 147 562 l 1
 173 682 l 1
EndSplineSet
EndChar
StartChar: eight
Encoding: 56 56 26
Width: 535
Flags: W
HStem: -22 112<250 275> 318 92<331 345> 597 103<396 418>
Fore
491 96 m 1
 465 57 428 28 384 9 c 0
 342.256 -10.4804 301.373 -22.2161 259.754 -22.2161 c 0
 256.508 -22.2161 253.256 -22.1447 250 -22 c 0
 205 -22 168 -10 133 12 c 0
 99 32 76 62 65 99 c 0
 60 113.5 57.75 128.5 57.75 144.75 c 0
 57.75 161 60 178.5 64 198 c 0
 81 278 128 336 207 374 c 1
 186 393 170 414 160 434 c 0
 153.346 447.307 150.351 462.078 150.351 477.87 c 0
 150.351 488.186 151.629 498.937 154 510 c 0
 161 540 173 570 195 597 c 0
 217 628 247 654 284 674 c 0
 319 692 359 700 398 700 c 0
 491 700 551 675 577 624 c 0
 590.515 596.259 597.452 569.53 597.452 542.013 c 0
 597.452 530.845 596.31 519.548 594 508 c 0
 587 477 573 448 549 423 c 0
 526 399 499 381 472 374 c 1
 506 363 529 342 543 312 c 0
 551.231 293.006 555.854 272.408 555.854 249.699 c 0
 555.854 236.541 554.302 222.674 551 208 c 0
 542 166 522 129 491 96 c 1
418 432 m 1
 434 441 447 453 456 468 c 0
 469 483 475 498 478 513 c 0
 479.594 520.334 480.375 526.956 480.375 533.028 c 0
 480.375 546 476.811 556.464 470 566 c 0
 458 585 436 597 401 597 c 0
 399.346 597.046 397.71 597.069 396.09 597.069 c 0
 362.442 597.069 336.035 587.265 316 572 c 0
 292 556 279 534 273 508 c 0
 271.251 500.421 270.352 493.012 270.352 485.822 c 0
 270.352 468.348 275.664 452.17 287 438 c 0
 298 422 317 410 345 410 c 0
 347.972 409.814 350.892 409.723 353.756 409.723 c 0
 381.734 409.723 404.393 418.393 418 432 c 1
360 122 m 0
 367 129 378 141 386 158 c 0
 394 174 403 192 406 208 c 0
 408 216.667 408.889 224.889 408.889 232.667 c 0
 408.889 248.222 405.333 262 400 274 c 0
 390 302 367 316 332 318 c 0
 300 318 272 309 247 286 c 0
 227 268 211 240 204 206 c 0
 201.074 191.788 199.72 179.148 199.72 167.935 c 0
 199.72 152.323 202.344 139.476 207 129 c 1
 223 105 245 90 275 90 c 0
 277.31 89.8557 279.603 89.7842 281.881 89.7842 c 0
 311.16 89.7842 337.732 101.588 360 122 c 0
EndSplineSet
EndChar
StartChar: nine
Encoding: 57 57 27
Width: 535
Flags: W
HStem: -22 106<235 258> 222 116<291 328> 588 116<377 399>
Fore
70 159 m 1
 202 159 l 1
 200.9 154.326 200.33 149.728 200.33 145.144 c 0
 200.33 133.051 204.299 121.051 213 108 c 0
 226 93 240 84 258 84 c 0
 310 84 351 106 377 148 c 0
 399 183 412 216 418 244 c 0
 419.937 254.332 421.041 262.996 421.041 270.531 c 0
 421.041 274.664 420.708 278.458 420 282 c 1
 395 260 370 243 339 231 c 0
 324 225 308 222 291 222 c 0
 269 222 253 222 240 225 c 0
 176 237 137 276 123 339 c 0
 119.5 357 117.5 375.75 117.5 395.5 c 0
 117.5 415.25 119.5 436 124 458 c 0
 135 510 155 552 182 588 c 0
 208 621 242 650 280 670 c 0
 317 693 357 704 399 704 c 0
 406 704 417 702 433 700 c 0
 447 700 469 694 492 686 c 0
 513 674 534 657 553 638 c 0
 571 616 580 594 581 568 c 1
 586.991 544.036 589.869 517.875 589.869 489.517 c 0
 589.869 451.605 584.725 409.766 575 364 c 0
 564 310 549 260 528 210 c 0
 505 160 485 122 464 93 c 0
 428 48 391 15 351 0 c 0
 311 -15 271 -22 235 -22 c 0
 169 -22 123 -2 96 39 c 0
 75.9056 70.2579 66.889 99.8541 66.889 129.025 c 0
 66.889 139.05 67.9539 149.025 70 159 c 1
451 558 m 1
 437 578 411 588 377 588 c 0
 349 588 320 574 288 548 c 1
 268 525 252 495 244 458 c 0
 241.509 446.166 240.278 435.302 240.278 425.256 c 0
 240.278 403.045 246.294 384.837 258 369 c 0
 274 348 297 338 328 338 c 0
 358 338 386 350 411 370 c 0
 436 393 453 422 460 458 c 0
 463.125 471.75 464.688 485.109 464.688 497.834 c 0
 464.688 505.469 464.125 512.875 463 520 c 0
 462 538 457 550 451 558 c 1
EndSplineSet
EndChar
StartChar: colon
Encoding: 58 58 28
Width: 292
Flags: W
HStem: 0 135<156 185> 410 134<243 272>
Fore
156 0 m 0
 134 0 120 8 110 21 c 0
 103.555 28.8773 100.7 40.3444 100.7 52.8305 c 0
 100.7 57.7802 101.148 62.8901 102 68 c 0
 106 87 116 102 131 116 c 0
 145 129 163 135 185 135 c 0
 207 135 222 129 232 116 c 0
 238.079 107.895 240.964 97.5082 240.964 85.7651 c 0
 240.964 80.1224 240.298 74.1665 239 68 c 0
 236 50 226 34 211 21 c 0
 197 8 178 0 156 0 c 0
243 410 m 0
 221 410 207 417 197 430 c 0
 190.921 439.456 188.036 449.369 188.036 460.662 c 0
 188.036 466.088 188.702 471.833 190 478 c 0
 193 495 202 510 217 524 c 0
 232 537 250 544 272 544 c 0
 294 544 309 537 319 525 c 0
 325.445 515.69 328.3 504.842 328.3 492.823 c 0
 328.3 488.059 327.852 483.11 327 478 c 0
 323 459 313 444 298 430 c 0
 284 417 265 410 243 410 c 0
EndSplineSet
EndChar
StartChar: semicolon
Encoding: 59 59 29
Width: 330
Flags: W
HStem: 14 145<180 199> 364 149<247 279>
Fore
247 364 m 0
 223 364 207 370 198 387 c 0
 191.677 397.538 187.822 408.57 187.822 421.83 c 0
 187.822 427.444 188.513 433.456 190 440 c 0
 194 459 205 477 221 492 c 0
 236 507 255 513 279 513 c 0
 304 513 321 507 330 492 c 0
 335.856 481.019 339.569 468.431 339.569 455.019 c 0
 339.569 450.11 339.072 445.091 338 440 c 0
 333 418 322 402 307 387 c 0
 291 370 271 364 247 364 c 0
271 74 m 0
 262 27 235 -12 198 -40 c 0
 159 -70 125 -88 92 -92 c 1
 86 -68 l 1
 110 -56 130 -46 144 -36 c 0
 159 -26 170 -9 180 14 c 1
 161 14 145 18 129 28 c 0
 117.371 36.5278 112.955 49.2628 112.955 68.5346 c 0
 112.955 74.1214 113.326 80.2577 114 87 c 0
 119 106 130 123 146 140 c 0
 161 153 178 159 199 159 c 0
 229 159 250 152 260 135 c 0
 268.614 124.233 273.105 110.375 273.105 94.1646 c 0
 273.105 87.7915 272.411 81.055 271 74 c 0
EndSplineSet
EndChar
StartChar: less
Encoding: 60 60 30
Width: 562
Flags: W
DStem: 100 286 280 344 533 110 560 236 633 578 606 452 124 402 280 344
Fore
100 286 m 5
 124 402 l 5
 633 578 l 5
 606 452 l 5
 280 344 l 5
 560 236 l 5
 533 110 l 5
 100 286 l 5
EndSplineSet
EndChar
StartChar: equal
Encoding: 61 61 31
Width: 562
Flags: W
HStem: 168 118<108 552> 402 114<157 601>
Fore
158 516 m 5
 626 516 l 5
 601 402 l 5
 133 402 l 5
 158 516 l 5
109 286 m 5
 577 286 l 5
 552 168 l 5
 84 168 l 5
 109 286 l 5
EndSplineSet
EndChar
StartChar: greater
Encoding: 62 62 32
Width: 562
Flags: W
DStem: 135 452 162 578 413 344 595 402 413 344 571 286 89 236 62 110
Fore
162 578 m 5
 595 402 l 5
 571 286 l 5
 62 110 l 5
 89 236 l 5
 413 344 l 5
 135 452 l 5
 162 578 l 5
EndSplineSet
EndChar
StartChar: question
Encoding: 63 63 33
Width: 589
Flags: W
HStem: 0 21G<231 375> 591 127<417 443>
DStem: 261 141 405 141 231 0 375 0
Fore
395 194 m 1
 278 194 l 1
 289 243 306 282 331 314 c 0
 357 342 389 374 435 402 c 0
 470 423 493 458 500 501 c 0
 501.767 508.574 502.578 515.574 502.578 522.064 c 0
 502.578 541.284 495.466 556.039 485 568 c 0
 470 584 450 591 424 591 c 0
 396 591 368 582 343 560 c 0
 318 537 302 507 293 465 c 1
 162 465 l 1
 179 548 218 615 277 668 c 1
 327 702 383 718 443 718 c 0
 480 718 514 714 542 702 c 0
 573 690 595 675 609 656 c 0
 634.521 625.375 647.281 589.433 647.281 548.562 c 0
 647.281 533.382 645.521 517.521 642 501 c 0
 634 462 617 428 597 399 c 0
 591 392 585 382 574 374 c 0
 563 363 554 356 546 351 c 0
 535 344 528 338 518 332 c 0
 509 326 497 318 484 310 c 0
 454 290 432 274 421 260 c 0
 409 243 401 220 395 194 c 1
231 0 m 1
 261 141 l 1
 405 141 l 1
 375 0 l 1
 231 0 l 1
EndSplineSet
EndChar
StartChar: at
Encoding: 64 64 34
Width: 939
Flags: W
HStem: -132 84<429 477> 56 76<685 699> 432 68<582 601> 639 79<613 651>
Fore
726 492 m 1
 811 492 l 1
 669 200 l 1
 665.686 186.745 663.745 175.549 663.745 165.844 c 0
 663.745 163.833 663.828 161.887 664 160 c 0
 663.927 159.12 663.891 158.266 663.891 157.439 c 0
 663.891 146.978 669.587 140.56 677 135 c 0
 680 134 688 132 697 132 c 0
 715 132 729 135 743 144 c 1
 763 153 783 166 804 184 c 0
 826 206 841 222 848 237 c 0
 877 276 893 315 902 357 c 0
 906.354 377.9 909.192 398.041 909.192 417.425 c 0
 909.192 420.3 909.129 423.158 909 426 c 0
 908 452 898 478 879 510 c 0
 861 543 837 566 812 585 c 0
 764 621 700 639 619 639 c 0
 594 639 565 636 536 630 c 0
 501 624 460 604 414 576 c 0
 372 548 333 513 298 478 c 0
 234 412 191 334 173 248 c 0
 169.268 231.827 168.244 216.428 168.244 201.321 c 0
 168.244 192.142 168.622 183.071 169 174 c 0
 172 148 174 128 182 106 c 0
 190 88 198 74 207 62 c 0
 241 14 296 -18 368 -38 c 0
 396 -44 425 -48 458 -48 c 0
 522 -48 590 -36 663 -12 c 1
 674 -88 l 1
 611 -117 532 -132 434 -132 c 0
 402 -132 377 -130 355 -128 c 0
 325 -122 297 -117 273 -108 c 0
 245 -100 219 -87 192 -64 c 0
 163 -44 138 -16 114 18 c 0
 95 50 82 84 76 123 c 0
 72 142.5 70.25 161.75 70.25 180.125 c 0
 70.25 198.5 72 216 75 232 c 0
 84 272 93 304 107 336 c 0
 118 366 135 396 157 428 c 0
 177 458 199 486 225 512 c 0
 261 550 305 590 358 627 c 0
 413 663 464 687 519 702 c 0
 562 714 605 718 649 718 c 0
 731 718 800 700 855 663 c 0
 947.051 600.643 995.015 521.632 995.015 430.814 c 0
 995.015 429.877 995.01 428.939 995 428 c 0
 995 400 993 374 988 348 c 0
 977 298 957 255 931 216 c 0
 883 147 834 102 776 76 c 0
 747 63 717 56 687 56 c 0
 664 56 647 60 629 64 c 0
 605 70 587 90 575 120 c 1
 538 93 506 75 484 66 c 0
 460 57 440 52 417 52 c 0
 401 52 381 60 355 70 c 0
 331 82 313 100 304 122 c 0
 295.55 142.8 291.325 163.6 291.325 184.949 c 0
 291.325 196.445 292.55 208.1 295 220 c 0
 296 226 299 238 304 255 c 0
 335 334 384 394 445 438 c 0
 504 480 554 500 601 500 c 0
 613 500 625 498 635 495 c 0
 673 484 695 465 696 434 c 1
 726 492 l 1
440 130 m 1
 474 130 502 140 528 158 c 1
 557 177 580 204 601 240 c 0
 625 278 639 312 646 342 c 0
 647.297 349.295 647.937 356.169 647.937 362.622 c 0
 647.937 395.982 630.84 418.107 599 429 c 0
 592 430 588 432 584 432 c 0
 569 432 550 428 533 418 c 0
 515 410 496 396 477 381 c 0
 459 366 443 346 428 321 c 0
 413 296 397 270 392 244 c 0
 389.406 233.623 388.185 223.521 388.185 213.897 c 0
 388.185 197.553 391.706 182.588 398 170 c 0
 405 148 419 135 440 130 c 1
EndSplineSet
EndChar
StartChar: A
Encoding: 65 65 35
Width: 694
Flags: W
HStem: 0 21G<26 172 531 678> 141 120<323 512>
DStem: 420 704 468 534 26 0 323 261 420 704 252 141 26 0 172 0 468 534 588 704 502 261 678 0
Fore
588 704 m 1
 678 0 l 1
 531 0 l 1
 512 141 l 1
 252 141 l 1
 172 0 l 1
 26 0 l 1
 420 704 l 1
 588 704 l 1
468 534 m 1
 323 261 l 1
 502 261 l 1
 468 534 l 1
EndSplineSet
EndChar
StartChar: B
Encoding: 66 66 36
Width: 694
Flags: W
HStem: 0 120<250 421> 302 120<314 480> 584 120<230 535>
DStem: 230 704 348 584 80 0 314 422 230 704 288 302 80 0 250 120
Fore
80 0 m 1
 230 704 l 1
 542 704 l 2
 567 704 596 699 629 690 c 0
 658 681 682 668 698 650 c 1
 714 634 727 616 731 602 c 0
 733.667 598 734.111 590.444 734.111 579.926 c 0
 734.111 574.667 734 568.667 734 562 c 0
 734.667 555.667 734.889 549.556 734.889 543.963 c 0
 734.889 532.778 734 523.667 734 519 c 0
 729 494 718 470 702 444 c 0
 686 418 663 394 636 375 c 1
 655 360 669 338 678 312 c 0
 685.417 291.975 689.533 270.85 689.533 249.033 c 0
 689.533 241.434 689.033 233.75 688 226 c 1
 680 186 669 153 650 123 c 0
 632 94 609 69 578 48 c 0
 533 15 472 0 396 0 c 2
 80 0 l 1
348 584 m 1
 314 422 l 1
 478 422 l 2
 508 422 533 429 553 444 c 0
 575 459 586 478 590 501 c 0
 591.729 509.643 592.593 517.619 592.593 524.924 c 0
 592.593 564.109 567.729 584 518 584 c 2
 348 584 l 1
288 302 m 1
 250 120 l 1
 419 120 l 2
 448 120 474 126 499 138 c 0
 523 148 542 177 548 219 c 0
 550.042 228.625 551.062 237.314 551.062 245.068 c 0
 551.062 263.898 545.042 277.208 533 285 c 0
 517 297 493 302 460 302 c 2
 288 302 l 1
EndSplineSet
EndChar
StartChar: C
Encoding: 67 67 37
Width: 694
Flags: W
HStem: -22 124<355 380> 594 120<472 516>
Fore
571 240 m 1
 713 240 l 1
 706 206 688 170 662 134 c 0
 635 96 605 68 576 46 c 0
 550 27 516 12 477 0 c 0
 437 -14 395 -22 355 -22 c 0
 351.866 -22.0774 348.766 -22.1158 345.701 -22.1158 c 0
 269.531 -22.1158 214.259 1.62506 171 42 c 0
 128 87 106 146 103 222 c 0
 102.882 225.895 102.82 229.916 102.82 234.058 c 0
 102.82 265.012 106.298 302.784 116 346 c 0
 127 399 142 442 162 480 c 0
 240 636 359 714 516 714 c 0
 593 714 652 694 695 660 c 0
 742.004 622.721 764.707 572.964 764.707 510.728 c 0
 764.707 496.168 763.465 480.926 761 465 c 1
 621 465 l 1
 621.29 469.348 621.496 473.949 621.496 478.802 c 0
 621.496 490.688 620.261 504.088 616 519 c 0
 608 538 595 556 574 572 c 0
 552.973 584.799 522.753 594.255 483.338 594.255 c 0
 479.64 594.255 475.86 594.172 472 594 c 0
 440 594 409 579 380 560 c 0
 350 537 327 512 308 482 c 0
 290 453 272 412 260 360 c 0
 252 330 248 303 247 279 c 0
 245.923 270.745 245.362 262.619 245.362 254.576 c 0
 245.362 240.208 247.153 226.104 251 212 c 0
 260 166 286 132 321 114 c 0
 338 105 358 102 374 102 c 0
 392 102 414 105 437 110 c 0
 484 122 514 141 530 162 c 0
 547 184 563 212 571 240 c 1
EndSplineSet
EndChar
StartChar: D
Encoding: 68 68 38
Width: 694
Flags: W
HStem: 0 120<245 392> 584 120<225 492>
DStem: 225 704 343 584 75 0 245 120
Fore
75 0 m 1
 225 704 l 1
 552 704 l 2
 578 704 603 699 628 688 c 0
 651 678 675 662 695 636 c 0
 715 612 727 579 740 538 c 0
 744.791 519.796 747.516 498.149 747.516 473.39 c 0
 747.516 446.466 744.293 415.861 737 382 c 0
 725 326 708 274 687 231 c 0
 666 186 641 152 617 123 c 0
 584 84 549 56 508 34 c 0
 469 12 429 0 392 0 c 2
 75 0 l 1
343 584 m 1
 245 120 l 1
 360 120 l 2
 432 120 491 153 532 216 c 0
 554 250 574 300 587 364 c 0
 593.757 395.534 596.862 423.01 596.862 446.884 c 0
 596.862 476.005 592.243 499.767 584 519 c 0
 574 544 560 561 541 570 c 0
 523 578 500 584 474 584 c 2
 343 584 l 1
EndSplineSet
EndChar
StartChar: E
Encoding: 69 69 39
Width: 642
Flags: W
HStem: 0 120<246 602> 302 120<310 622> 584 120<226 709>
DStem: 226 704 344 584 76 0 310 422 226 704 284 302 76 0 246 120
Fore
226 704 m 1
 735 704 l 1
 709 584 l 1
 344 584 l 1
 310 422 l 1
 648 422 l 1
 622 302 l 1
 284 302 l 1
 246 120 l 1
 628 120 l 1
 602 0 l 1
 76 0 l 1
 226 704 l 1
EndSplineSet
EndChar
StartChar: F
Encoding: 70 70 40
Width: 589
Flags: W
HStem: 0 21G<70 216> 302 120<306 588> 584 120<220 688>
DStem: 220 704 340 584 70 0 306 422 220 704 280 302 70 0 216 0
Fore
220 704 m 1
 714 704 l 1
 688 584 l 1
 340 584 l 1
 306 422 l 1
 614 422 l 1
 588 302 l 1
 280 302 l 1
 216 0 l 1
 70 0 l 1
 220 704 l 1
EndSplineSet
EndChar
StartChar: G
Encoding: 71 71 41
Width: 748
Flags: W
HStem: -3 21G<597 685> 258 120<483 619> 596 118<502 529>
Fore
459 258 m 1
 484 378 l 1
 766 378 l 1
 685 -3 l 1
 597 -3 l 1
 600 84 l 1
 575 63 555 44 538 32 c 1
 519 16 493 4 459 -4 c 0
 430.302 -14.7617 395.975 -22.3063 358.902 -22.3063 c 0
 354.636 -22.3063 350.334 -22.2064 346 -22 c 0
 313 -22 288 -15 270 -9 c 1
 248 -4 233 3 221 12 c 0
 205 21 194 30 183 42 c 0
 171 54 165 63 160 68 c 0
 134 102 117 142 109 192 c 0
 105.605 212.373 103.83 233.466 103.83 255.127 c 0
 103.83 284.501 107.093 314.919 114 346 c 0
 129 420 161 490 210 552 c 0
 259 615 318 663 387 690 c 0
 429 706 476 714 527 714 c 0
 572 714 610 708 649 699 c 0
 684 688 715 668 740 638 c 0
 773.137 595.907 788.628 549.001 788.628 498.001 c 0
 788.628 492.056 788.418 486.055 788 480 c 1
 654 480 l 1
 650 519 636 548 610 566 c 0
 583 585 550 596 508 596 c 0
 465 596 421 582 376 556 c 1
 346 534 320 504 299 465 c 0
 279 428 262 387 253 344 c 0
 247.224 316.697 244.481 292.702 244.481 271.726 c 0
 244.481 252.752 246.726 236.248 251 222 c 0
 274 146 318 104 384 94 c 1
 458 94 513 118 558 160 c 0
 586 190 608 220 619 258 c 1
 459 258 l 1
EndSplineSet
EndChar
StartChar: H
Encoding: 72 72 42
Width: 694
Flags: W
HStem: 0 21G<66 210 488 634> 318 122<304 556>
DStem: 216 704 360 704 66 0 304 440 216 704 278 318 66 0 210 0 556 318 784 704 488 0 634 0 638 704 784 704 582 440 634 0
Fore
66 0 m 1
 216 704 l 1
 360 704 l 1
 304 440 l 1
 582 440 l 1
 638 704 l 1
 784 704 l 1
 634 0 l 1
 488 0 l 1
 556 318 l 1
 278 318 l 1
 210 0 l 1
 66 0 l 1
EndSplineSet
EndChar
StartChar: I
Encoding: 73 73 43
Width: 267
Flags: W
HStem: 0 21G<62 206>
DStem: 212 704 356 704 62 0 206 0
Fore
356 704 m 1
 206 0 l 1
 62 0 l 1
 212 704 l 1
 356 704 l 1
EndSplineSet
EndChar
StartChar: J
Encoding: 74 74 44
Width: 535
Flags: W
HStem: -22 122<257 272>
DStem: 474 704 618 704 362 178 504 168
Fore
474 704 m 1
 618 704 l 1
 504 168 l 2
 494 120 469 80 427 44 c 0
 383 3 326 -21 257 -22 c 0
 251.74 -22.1697 246.596 -22.253 241.567 -22.253 c 0
 187.311 -22.253 146.455 -12.5578 119 3 c 0
 99 15 84 30 75 50 c 0
 65 68 59 88 59 110 c 0
 57.875 118.25 57.3125 126.5 57.3125 134.961 c 0
 57.3125 149.062 58.875 163.75 62 180 c 2
 79 260 l 1
 223 260 l 1
 208 188 l 2
 205.71 177.923 204.469 168.266 204.469 159.028 c 0
 204.469 148.098 206.206 137.755 210 128 c 0
 216.651 108.998 235.037 99.9251 265.159 99.9251 c 0
 266.741 99.9251 268.354 99.9501 270 100 c 0
 297 100 319 110 335 126 c 0
 348 141 358 158 362 178 c 2
 474 704 l 1
EndSplineSet
EndChar
StartChar: K
Encoding: 75 75 45
Width: 694
Flags: W
HStem: 0 21G<70 216 518 692>
DStem: 220 704 366 704 70 0 300 394 220 704 264 225 70 0 216 0 355 304 471 399 518 0 692 0 642 704 813 704 300 394 471 399
Fore
70 0 m 1
 220 704 l 1
 366 704 l 1
 300 394 l 1
 642 704 l 1
 813 704 l 1
 471 399 l 1
 692 0 l 1
 518 0 l 1
 355 304 l 1
 264 225 l 1
 216 0 l 1
 70 0 l 1
EndSplineSet
EndChar
StartChar: L
Encoding: 76 76 46
Width: 589
Flags: W
HStem: 0 120<248 558>
DStem: 226 704 372 704 76 0 248 120
Fore
226 704 m 1
 372 704 l 1
 248 120 l 1
 584 120 l 1
 558 0 l 1
 76 0 l 1
 226 704 l 1
EndSplineSet
EndChar
StartChar: M
Encoding: 77 77 47
Width: 802
Flags: W
HStem: 0 21G<63 208 334 478 603 748>
DStem: 213 704 329 570 63 0 208 0 724 570 898 704 603 0 748 0
Fore
478 0 m 1
 334 0 l 1
 329 570 l 1
 208 0 l 1
 63 0 l 1
 213 704 l 1
 424 704 l 1
 440 162 l 1
 687 704 l 1
 898 704 l 1
 748 0 l 1
 603 0 l 1
 724 570 l 1
 478 0 l 1
EndSplineSet
EndChar
StartChar: N
Encoding: 78 78 48
Width: 694
Flags: W
HStem: 0 21G<66 210 495 638>
DStem: 216 704 314 490 66 0 210 0 314 490 358 704 495 0 541 220 644 704 788 704 541 220 638 0
Fore
216 704 m 1
 358 704 l 1
 541 220 l 1
 644 704 l 1
 788 704 l 1
 638 0 l 1
 495 0 l 1
 314 490 l 1
 210 0 l 1
 66 0 l 1
 216 704 l 1
EndSplineSet
EndChar
StartChar: O
Encoding: 79 79 49
Width: 748
Flags: W
HStem: -22 126<373 402> 588 128<501 530>
Fore
790 346 m 0
 779 296 757 244 728 194 c 0
 698 141 665 99 626 66 c 0
 558 8 473 -22 373 -22 c 0
 273 -22 202 8 156 66 c 0
 131 99 117 141 109 194 c 0
 105.894 216.187 104.166 238.768 104.166 261.393 c 0
 104.166 289.755 106.881 318.187 113 346 c 0
 124 399 146 452 174 500 c 0
 204 550 236 594 275 627 c 0
 346 687 430 716 530 716 c 0
 558 716 585 712 612 706 c 0
 641 700 666 690 688 676 c 0
 711 664 729 648 745 627 c 0
 770 594 785 550 793 500 c 0
 796.682 477.907 798.67 454.754 798.67 431.03 c 0
 798.67 403.211 795.937 374.605 790 346 c 0
400 104 m 0
 451 104 496 118 539 152 c 0
 566 171 590 198 610 234 c 0
 629 270 641 308 650 346 c 0
 655.573 373.867 659.205 399.792 659.205 425.128 c 0
 659.205 436.16 658.517 447.08 657 458 c 0
 653 494 641 520 622 540 c 0
 593 573 554 588 503 588 c 0
 451 588 406 573 363 540 c 0
 336 520 313 494 294 459 c 0
 274 423 260 386 252 346 c 0
 246.214 321.571 243.321 297.143 243.321 273.777 c 0
 243.321 260.796 244.214 248.143 246 236 c 0
 251 200 261 171 280 152 c 0
 309 118 348 104 400 104 c 0
EndSplineSet
EndChar
StartChar: P
Encoding: 80 80 50
Width: 642
Flags: W
HStem: 0 21G<74 219> 250 120<298 461> 584 120<224 507>
DStem: 224 704 343 584 74 0 298 370 224 704 272 250 74 0 219 0
Fore
74 0 m 1
 224 704 l 1
 537 704 l 2
 579 704 618 694 651 682 c 0
 685 669 708 639 716 590 c 0
 718.697 576.965 720.182 562.717 720.182 547.167 c 0
 720.182 528.121 717.955 507.121 713 484 c 0
 704 440 688 402 671 376 c 0
 614 292 537 250 443 250 c 2
 272 250 l 1
 219 0 l 1
 74 0 l 1
343 584 m 1
 298 370 l 1
 459 370 l 2
 495 370 524 392 550 430 c 0
 551 434 554 442 562 456 c 0
 567 468 572 480 575 492 c 0
 578 506 578 518 578 530 c 0
 573 564 546 584 498 584 c 2
 343 584 l 1
EndSplineSet
EndChar
StartChar: Q
Encoding: 81 81 51
Width: 748
Flags: W
HStem: -22 126<375 404> 588 128<503 532>
Fore
663 99 m 1
 724 26 l 1
 633 -52 l 1
 568 26 l 1
 506 -8 442 -22 375 -22 c 0
 277 -22 206 8 160 66 c 0
 135 99 120 141 111 192 c 0
 107.605 212.373 105.83 233.466 105.83 255.127 c 0
 105.83 284.501 109.093 314.919 116 346 c 0
 127 400 148 453 176 501 c 0
 207 550 240 594 279 627 c 0
 350 687 434 716 532 716 c 0
 580 716 621 708 659 693 c 0
 696 678 725 656 747 627 c 0
 774 591 791 549 798 500 c 0
 801.07 481.582 802.52 462.427 802.52 442.819 c 0
 802.52 411.326 798.779 378.663 792 346 c 0
 782 300 766 256 744 212 c 0
 722 170 694 130 663 99 c 1
486 122 m 1
 428 190 l 1
 519 270 l 1
 584 194 l 1
 613 232 639 284 653 346 c 0
 658.333 373.333 661 398.444 661 422.815 c 0
 661 435 660.333 447 659 459 c 0
 654 494 642 520 623 540 c 0
 596 573 557 588 505 588 c 0
 453 588 408 573 365 540 c 0
 341 520 317 494 297 458 c 0
 278 422 262 386 254 346 c 0
 248.964 324.735 247.059 304.096 247.059 283.733 c 0
 247.059 267.708 248.238 251.854 250 236 c 0
 255 200 266 171 282 152 c 0
 311 118 350 104 402 104 c 0
 432 104 461 110 486 122 c 1
EndSplineSet
EndChar
StartChar: R
Encoding: 82 82 52
Width: 694
Flags: W
HStem: 0 21G<76 222 496 652> 278 121<307 461> 584 120<226 557>
DStem: 226 704 346 584 76 0 307 399 226 704 281 278 76 0 222 0
Fore
76 0 m 1
 226 704 l 1
 618 704 l 2
 640 704 661 699 683 690 c 0
 703 681 720 668 735 652 c 0
 746.323 636.903 754.084 617.355 754.084 595.035 c 0
 754.084 593.7 754.056 592.355 754 591 c 0
 754 584 756 573 756 564 c 0
 756 556 755 548 754 536 c 0
 754 525 754 518 752 508 c 0
 747 486 739 466 731 448 c 0
 716 420 701 400 684 386 c 0
 666 369 643 354 612 339 c 1
 617 336 622 330 631 326 c 0
 640 321 646 315 654 309 c 0
 660 302 664 292 668 282 c 0
 669.5 276 670 269.5 670 262.5 c 0
 670 255.5 669.5 248 669 240 c 0
 669.085 239.319 669.127 238.514 669.127 237.587 c 0
 669.127 227.619 664.319 203.424 657 165 c 0
 650 123 646 96 644 84 c 0
 641.578 74.3112 640.256 66.0891 640.256 59.3338 c 0
 640.256 54.9335 640.817 51.1556 642 48 c 0
 646 39 651 32 658 26 c 1
 652 0 l 1
 496 0 l 1
 491.696 14.756 489.66 28.756 489.66 42 c 0
 489.66 50.2967 490.459 58.2967 492 66 c 2
 522 207 l 1
 522.558 211.189 522.805 215.299 522.805 219.31 c 0
 522.805 229.663 521.162 239.351 519 248 c 0
 513 258 504 266 493 272 c 0
 482 276 467 278 451 278 c 2
 281 278 l 1
 222 0 l 1
 76 0 l 1
346 584 m 1
 307 399 l 1
 503 399 l 2
 525 399 545 406 569 426 c 0
 590 444 606 470 613 504 c 0
 614.767 512.353 615.657 520.086 615.657 527.183 c 0
 615.657 564.273 591.362 584 541 584 c 2
 346 584 l 1
EndSplineSet
EndChar
StartChar: S
Encoding: 83 83 53
Width: 642
Flags: W
HStem: -24 118<297 354> 600 114<429 462>
Fore
692 488 m 1
 556 488 l 1
 557.333 494.333 558 500.556 558 506.704 c 0
 558 519 555.333 531 550 543 c 0
 545 560 532 573 512 585 c 0
 493 596 467 600 436 600 c 0
 354 600 306 573 290 519 c 0
 287.182 506.039 285.953 495.936 285.953 487.797 c 0
 285.953 481.492 286.691 476.365 288 472 c 0
 294 465 304 456 319 448 c 1
 324 444 334 440 354 434 c 0
 376 428 400 423 431 417 c 0
 462 412 478 406 486 405 c 0
 563 392 614 368 637 336 c 0
 653.603 313.17 662.071 286.512 662.071 255.694 c 0
 662.071 241.965 660.39 227.41 657 212 c 0
 650 177 633 141 611 106 c 0
 589 74 560 46 528 27 c 0
 473 -4 397 -22 297 -24 c 0
 274 -24 246 -18 214 -10 c 0
 182 -2 155 10 135 27 c 0
 110 50 91 76 83 108 c 0
 76.25 132.75 72.875 157.5 72.875 182.672 c 0
 72.875 191.062 73.25 199.5 74 208 c 1
 215 208 l 1
 213.826 202.13 213.258 196.26 213.258 190.417 c 0
 213.258 171.371 219.287 152.6 230 135 c 0
 253 108 293 94 354 94 c 0
 376 94 397 99 421 105 c 0
 443 110 460 118 473 128 c 0
 492 142 505 162 511 190 c 0
 512.602 197.05 513.486 203.792 513.486 210.193 c 0
 513.486 223.767 509.513 235.807 500 246 c 0
 495 258 480 266 463 273 c 0
 445 279 418 286 386 292 c 0
 354 298 326 303 304 309 c 0
 280 314 260 318 241 326 c 0
 218 334 200 346 183 362 c 0
 168 376 159 399 153 423 c 0
 150.633 434.439 149.511 446.189 149.511 458.496 c 0
 149.511 477.389 152.156 497.595 157 520 c 1
 175 579 211 627 261 663 c 0
 310 696 378 714 462 714 c 0
 503 714 544 710 587 699 c 0
 626 688 660 663 681 626 c 0
 693.133 602.946 698.642 577.316 698.642 548.44 c 0
 698.642 529.719 696.327 509.633 692 488 c 1
EndSplineSet
EndChar
StartChar: T
Encoding: 84 84 54
Width: 589
Flags: W
HStem: 0 21G<226 370> 584 120<163 350 164 700>
DStem: 350 584 494 584 226 0 370 0
Fore
164 704 m 1
 726 704 l 1
 700 584 l 1
 494 584 l 1
 370 0 l 1
 226 0 l 1
 350 584 l 1
 138 584 l 1
 164 704 l 1
EndSplineSet
EndChar
StartChar: U
Encoding: 85 85 55
Width: 694
Flags: W
HStem: -22 126<349 375>
DStem: 224 704 369 704 121 219 265 218 636 704 780 704 532 218 677 219
Fore
636 704 m 1
 780 704 l 1
 677 219 l 2
 656 120 598 48 500 8 c 0
 450 -14 399 -22 349 -22 c 0
 299 -22 258 -14 219 2 c 1
 149.478 44.0367 115.245 100.451 115.245 168.6 c 0
 115.245 184.753 117.168 201.564 121 219 c 2
 224 704 l 1
 369 704 l 1
 265 218 l 2
 262.981 208.193 262.043 199.136 262.043 190.706 c 0
 262.043 169.911 267.75 152.943 277 138 c 0
 291 116 322 104 373 104 c 0
 424 104 463 116 487 138 c 0
 511 159 526 186 532 218 c 2
 636 704 l 1
EndSplineSet
EndChar
StartChar: V
Encoding: 86 86 56
Width: 642
Flags: W
HStem: 0 21G<261 386>
Fore
628 704 m 1
 774 704 l 1
 386 0 l 1
 261 0 l 1
 174 704 l 1
 318 704 l 1
 361 172 l 1
 628 704 l 1
EndSplineSet
EndChar
StartChar: W
Encoding: 87 87 57
Width: 909
Flags: W
HStem: 0 21G<208 339 572 702>
VStem: 568 106<170.141 290.562 349.455 535.844>
DStem: 530 704 568 536 312 177 339 0
Fore
162 704 m 1
 316 704 l 1
 312 177 l 1
 530 704 l 1
 682 704 l 1
 674 170 l 1
 896 704 l 1
 1048 704 l 1
 702 0 l 1
 572 0 l 1
 568 536 l 1
 339 0 l 1
 208 0 l 1
 162 704 l 1
EndSplineSet
EndChar
StartChar: X
Encoding: 88 88 58
Width: 642
Flags: W
HStem: 0 21G<22 192 459 628>
Fore
182 704 m 1
 351 704 l 1
 427 477 l 1
 604 704 l 1
 774 704 l 1
 483 360 l 1
 628 0 l 1
 459 0 l 1
 377 238 l 1
 192 0 l 1
 22 0 l 1
 319 354 l 1
 182 704 l 1
EndSplineSet
EndChar
StartChar: Y
Encoding: 89 89 59
Width: 642
Flags: W
HStem: 0 21G<258 402>
DStem: 313 261 457 261 258 0 402 0
Fore
615 704 m 1
 777 704 l 1
 457 261 l 1
 402 0 l 1
 258 0 l 1
 313 261 l 1
 176 704 l 1
 336 704 l 1
 415 400 l 1
 615 704 l 1
EndSplineSet
MinimumDistance: x6,1 
EndChar
StartChar: Z
Encoding: 90 90 60
Width: 589
Flags: W
HStem: 0 120<224 558> 582 122<177 512>
DStem: 512 582 682 584 54 120 224 120
Fore
178 704 m 1
 708 704 l 1
 682 584 l 1
 224 120 l 1
 584 120 l 1
 558 0 l 1
 28 0 l 1
 54 120 l 1
 512 582 l 1
 152 584 l 1
 178 704 l 1
EndSplineSet
EndChar
StartChar: bracketleft
Encoding: 91 91 61
Width: 319
Flags: W
HStem: 608 96<214 426>
DStem: 214 704 319 608 23 -195 170 -94
Fore
426 608 m 1
 319 608 l 1
 170 -94 l 1
 277 -94 l 1
 256 -195 l 1
 23 -195 l 1
 214 704 l 1
 447 704 l 1
 426 608 l 1
EndSplineSet
EndChar
StartChar: backslash
Encoding: 92 92 62
Width: 267
Flags: W
HStem: -21 21G<203 274>
DStem: 133 682 207 682 203 -21 274 -21
Fore
133 682 m 1
 207 682 l 1
 274 -21 l 1
 203 -21 l 1
 133 682 l 1
EndSplineSet
EndChar
StartChar: bracketright
Encoding: 93 93 63
Width: 319
Flags: W
HStem: -195 101<-5 209>
DStem: 252 608 400 704 103 -94 209 -195
Fore
145 608 m 1
 166 704 l 1
 400 704 l 1
 209 -195 l 1
 -25 -195 l 1
 -4 -94 l 1
 103 -94 l 1
 252 608 l 1
 145 608 l 1
EndSplineSet
EndChar
StartChar: asciicircum
Encoding: 94 94 64
Width: 562
Flags: W
DStem: 362 670 399 549 115 261 223 261 399 549 481 670 449 261 559 261
Fore
115 261 m 1
 362 670 l 1
 481 670 l 1
 559 261 l 1
 449 261 l 1
 399 549 l 1
 223 261 l 1
 115 261 l 1
EndSplineSet
EndChar
StartChar: underscore
Encoding: 95 95 65
Width: 535
Flags: W
HStem: -194 68<-50 517>
Fore
531 -126 m 1
 517 -194 l 1
 -63 -194 l 1
 -49 -126 l 1
 531 -126 l 1
EndSplineSet
EndChar
StartChar: grave
Encoding: 96 96 66
Width: 391
VWidth: 2048
Flags: W
HStem: 568 134<191 465>
Fore
465 568 m 5
 347 568 l 1
 191 702 l 1
 383 702 l 1
 465 568 l 5
EndSplineSet
EndChar
StartChar: a
Encoding: 97 97 67
Width: 535
Flags: W
HStem: -22 112<155 271> 0 21G<363 506> 434 97<350 373>
Fore
506 0 m 1
 363 0 l 1
 358.225 8.35626 355.944 17.425 355.944 28.0569 c 0
 355.944 35.2376 356.984 43.1313 359 52 c 1
 335 34 311 16 278 2 c 0
 246 -14 205 -22 155 -22 c 1
 84.8497 -14.0284 49.0146 21.9039 49.0146 85.7968 c 0
 49.0146 102.054 51.3347 120.122 56 140 c 0
 65 182 87 219 116 248 c 0
 143 276 186 296 242 303 c 1
 289 304 335 314 384 327 c 1
 408 338 424 357 430 387 c 0
 430.569 389.846 430.85 392.585 430.85 395.208 c 0
 430.85 406.41 425.723 415.518 416 422 c 0
 401 430 380 434 350 434 c 0
 316 432 290 423 275 408 c 0
 261 393 250 374 244 350 c 1
 116 350 l 1
 144 470 229 531 371 531 c 0
 423 531 462 524 490 512 c 0
 535.19 493.301 557.312 460.032 557.312 411.249 c 0
 557.312 397.42 555.534 382.344 552 366 c 2
 491 80 l 2
 489.875 74.8256 489.307 69.8537 489.307 65.0273 c 0
 489.307 48.4004 496.049 33.5006 510 18 c 1
 506 0 l 1
394 218 m 2
 400 246 l 1
 380 237 357 231 324 225 c 0
 293 222 273 220 269 219 c 0
 250 216 234 208 220 196 c 0
 205 184 195 170 192 153 c 0
 190 148 190 142 190 134 c 0
 193 126 196 117 200 110 c 0
 204 104 213 99 224 94 c 0
 236 92 250 90 271 90 c 1
 310 94 338 110 355 132 c 0
 373 154 387 182 394 218 c 2
EndSplineSet
EndChar
StartChar: b
Encoding: 98 98 68
Width: 589
Flags: W
HStem: -22 115<312 330> 0 21G<57 192> 414 117<392 453>
DStem: 207 704 342 704 57 0 288 452
Fore
57 0 m 1
 207 704 l 1
 342 704 l 1
 288 452 l 1
 325 504 381 531 453 531 c 0
 541 530 592 490 608 414 c 0
 614.273 384.202 617.267 356.59 617.267 330.307 c 0
 617.267 306.315 614.772 283.43 610 261 c 0
 600 212 574 158 537 99 c 0
 516 69 496 46 474 28 c 1
 454 10 430 -2 404 -10 c 0
 378 -18 351 -22 321 -22 c 0
 268 -21 227 4 203 52 c 1
 192 0 l 1
 57 0 l 1
392 414 m 0
 354 414 320 393 291 354 c 0
 266 322 253 288 246 252 c 0
 242.106 235.449 239.87 218.661 239.87 202.213 c 0
 239.87 184.872 242.355 167.909 248 152 c 0
 260 112 286 93 324 93 c 0
 366 93 400 112 426 152 c 0
 449 183 464 218 472 252 c 0
 475.062 267.75 476.594 283.117 476.594 298.102 c 0
 476.594 317.367 474.062 336 469 354 c 0
 466 376 453 392 441 400 c 0
 426 408 410 414 392 414 c 0
EndSplineSet
EndChar
StartChar: c
Encoding: 99 99 69
Width: 535
Flags: W
HStem: -22 112<263 295> 414 117<357 387>
Fore
574 327 m 1
 445 327 l 1
 443 363 436 387 423 396 c 0
 410 406 391 414 362 414 c 0
 360.527 414.067 359.06 414.1 357.601 414.1 c 0
 315.469 414.1 279.129 386.326 254 338 c 0
 251 332 250 327 246 321 c 0
 244 314 241 303 236 290 c 0
 231 276 227 262 224 249 c 0
 219.901 229.325 216.474 211.666 216.474 194.921 c 0
 216.474 191.24 216.64 187.604 217 184 c 0
 219 147 226 122 239 110 c 0
 252 99 270 92 295 90 c 0
 319 90 341 94 361 106 c 0
 377 118 397 144 414 183 c 1
 543 183 l 1
 537 153 520 122 494 93 c 0
 470 64 447 40 426 26 c 0
 402 9 379 -3 358 -10 c 0
 335 -16 303 -22 263 -22 c 0
 259.391 -22.1443 255.824 -22.2158 252.302 -22.2158 c 0
 207.016 -22.2158 169.051 -10.4122 144 10 c 0
 115 32 97 60 88 92 c 0
 79.9033 114.818 75.0573 137.094 75.0573 158.829 c 0
 75.0573 166.622 75.6803 174.346 77 182 c 0
 77 200 80 224 86 252 c 0
 97 308 115 351 137 382 c 0
 166 426 191 458 219 480 c 0
 246 501 270 516 295 520 c 0
 319 525 350 531 387 531 c 0
 389.313 531.036 391.595 531.054 393.848 531.054 c 0
 453.943 531.054 492.94 518.35 518 501 c 0
 543 484 558 459 568 422 c 0
 573.333 395.333 576.444 373.111 576.444 353.852 c 0
 576.444 344.222 575.667 335.333 574 327 c 1
EndSplineSet
EndChar
StartChar: d
Encoding: 100 100 70
Width: 589
Flags: W
HStem: -22 115<251 298> -3 21G<389 524> 416 115<351 368>
DStem: 540 704 675 704 486 452 524 -3
Fore
675 704 m 1
 524 -3 l 1
 389 -3 l 1
 401 52 l 1
 380 27 354 10 328 -2 c 0
 300 -14 274 -22 251 -22 c 0
 247.056 -22.263 243.197 -22.3876 239.424 -22.3876 c 0
 214.495 -22.3876 193.239 -16.9481 175 -10 c 0
 153 -2 134 10 120 28 c 0
 106 46 96 69 89 99 c 0
 80.5007 133.651 74.9936 165.31 74.9936 195.932 c 0
 74.9936 212.149 76.5379 228.074 80 244 c 0
 92 304 116 362 150 412 c 0
 198 488 267 530 353 531 c 0
 429 531 475 504 486 452 c 1
 540 704 l 1
 675 704 l 1
366 416 m 0
 326 416 292 394 262 356 c 1
 239 322 226 288 219 255 c 0
 215.251 237.327 213.223 218.794 213.223 200.169 c 0
 213.223 184.015 214.749 167.792 218 152 c 1
 232 112 258 93 298 93 c 0
 336 93 370 112 400 152 c 1
 421 184 437 219 444 255 c 0
 448.31 273.857 451.169 292.423 451.169 310.543 c 0
 451.169 326.055 449.074 341.24 444 356 c 0
 432 394 404 416 366 416 c 0
EndSplineSet
EndChar
StartChar: e
Encoding: 101 101 71
Width: 535
Flags: W
HStem: -22 110<256 307> 219 91<224 553> 418 113<351 377>
Fore
553 219 m 1
 205 219 l 1
 200.508 198.223 197.907 180.283 197.907 165.182 c 0
 197.907 153.391 199.492 143.33 203 135 c 0
 213 117 226 105 241 99 c 0
 258 92 280 88 307 88 c 1
 329 93 347 100 363 110 c 0
 380 122 391 134 397 147 c 1
 531 147 l 1
 517 116 492 84 461 60 c 0
 430 34 396 14 360 0 c 0
 323 -15 287 -22 256 -22 c 0
 211 -22 169 -9 129 16 c 1
 111 32 93 51 84 74 c 0
 71 94 64 118 62 142 c 0
 62 166 64 186 66 206 c 0
 76 252 86 290 94 316 c 0
 119 380 147 426 181 458 c 0
 216 490 249 510 281 519 c 0
 312 526 344 531 375 531 c 0
 423 531 462 522 492 501 c 0
 520 483 539 458 551 429 c 0
 560 406 567 382 569 360 c 0
 569 334 567 312 566 291 c 0
 564 272 559 248 553 219 c 1
224 310 m 1
 432 310 l 1
 434.431 321.344 435.713 332.03 435.713 342.061 c 0
 435.713 356.789 432.949 370.103 427 382 c 0
 418 405 397 418 361 418 c 0
 358.105 418.145 355.274 418.216 352.501 418.216 c 0
 316.963 418.216 291.191 406.48 268 387 c 0
 245 364 230 339 224 310 c 1
EndSplineSet
EndChar
StartChar: f
Encoding: 102 102 72
Width: 319
Flags: W
HStem: 0 21G<87 222> 422 90<122 177 331 392> 602 102<363 426>
DStem: 177 422 312 422 87 0 222 0
Fore
104 422 m 1
 123 512 l 1
 196 512 l 1
 209 573 l 2
 218 614 233 646 260 669 c 0
 288 692 321 704 363 704 c 2
 448 704 l 1
 426 602 l 1
 378 602 l 2
 360 602 347 590 342 566 c 2
 331 512 l 1
 411 512 l 1
 392 422 l 1
 312 422 l 1
 222 0 l 1
 87 0 l 1
 177 422 l 1
 104 422 l 1
EndSplineSet
EndChar
StartChar: g
Encoding: 103 103 73
Width: 589
Flags: W
HStem: -22 109<250 294> 408 123<355 379>
Fore
505 522 m 1
 633 522 l 1
 519 -14 l 2
 512 -46 497 -76 476 -105 c 0
 455 -132 432 -154 404 -171 c 0
 358.475 -197.153 287.617 -212.047 194.153 -212.047 c 0
 191.125 -212.047 188.075 -212.031 185 -212 c 0
 132 -210 91 -192 62 -160 c 0
 39.4869 -137.487 26.671 -111.741 26.671 -83.2834 c 0
 26.671 -76.3476 27.4323 -69.2506 29 -62 c 1
 170 -62 l 1
 169.377 -64.907 169.067 -67.7277 169.067 -70.4577 c 0
 169.067 -94.0235 192.191 -110.831 237 -118 c 1
 275 -118 309 -108 338 -88 c 0
 368 -68 385 -44 390 -18 c 2
 405 54 l 1
 388 38 371 24 357 14 c 0
 342 2 325 -8 309 -12 c 0
 293 -18 271 -22 250 -22 c 0
 214 -22 188 -18 169 -10 c 0
 152 -2 132 14 113 36 c 0
 101 51 91 70 86 93 c 0
 79 116 76 140 75 165 c 0
 76 190 78 216 84 244 c 0
 93 288 109 330 130 369 c 0
 153 410 178 442 209 468 c 0
 256 510 311 531 369 531 c 0
 387 531 404 530 419 524 c 0
 428 519 439 512 448 506 c 0
 455 496 461 490 466 482 c 0
 474 472 480 459 488 444 c 1
 505 522 l 1
363 408 m 0
 323 408 287 390 255 351 c 1
 229 315 213 279 207 248 c 0
 203.78 233.282 201.83 218.141 201.83 202.577 c 0
 201.83 184.301 204.519 165.442 211 146 c 0
 223 106 252 87 294 87 c 0
 336 87 375 106 405 146 c 0
 428 178 441 212 449 248 c 0
 452.867 265.885 454.631 282.836 454.631 299.304 c 0
 454.631 316.904 452.616 333.952 449 351 c 1
 433 390 403 408 363 408 c 0
EndSplineSet
EndChar
StartChar: h
Encoding: 104 104 74
Width: 589
Flags: W
HStem: 0 21G<64 200 387 522> 412 119<409 464>
DStem: 214 704 340 704 64 0 287 454 214 704 265 304 64 0 200 0 457 330 603 381 387 0 522 0
Fore
340 704 m 1
 287 454 l 1
 332 506 391 531 464 531 c 0
 509 531 548 519 576 495 c 0
 597.506 477.795 607.706 453.91 607.706 422.24 c 0
 607.706 409.731 606.115 396.007 603 381 c 2
 522 0 l 1
 387 0 l 1
 457 330 l 2
 459.023 338.9 459.736 346.983 459.736 354.577 c 0
 459.736 365.755 458.191 375.878 457 386 c 0
 451 399 436 406 409 412 c 1
 374 412 344 404 318 387 c 0
 290 368 272 340 265 304 c 2
 200 0 l 1
 64 0 l 1
 214 704 l 1
 340 704 l 1
EndSplineSet
EndChar
StartChar: i
Encoding: 105 105 75
Width: 267
Flags: W
HStem: 0 21G<64 200>
DStem: 175 522 311 522 64 0 200 0
Fore
188 584 m 1
 214 704 l 1
 350 704 l 1
 324 584 l 1
 188 584 l 1
64 0 m 1
 175 522 l 1
 311 522 l 1
 200 0 l 1
 64 0 l 1
EndSplineSet
EndChar
StartChar: j
Encoding: 106 106 76
Width: 267
Flags: W
HStem: -212 112<-42 -9>
DStem: 179 522 312 522 55 -63 181 -96
Fore
192 584 m 1
 218 704 l 1
 351 704 l 1
 325 584 l 1
 192 584 l 1
55 -63 m 2
 179 522 l 1
 312 522 l 1
 181 -96 l 2
 177 -114 171 -129 161 -144 c 0
 150 -159 140 -172 126 -183 c 0
 112 -195 97 -201 80 -204 c 0
 48 -208 7 -212 -42 -212 c 1
 -18 -100 l 1
 6 -100 23 -99 34 -93 c 0
 44 -88 51 -78 55 -63 c 2
EndSplineSet
EndChar
StartChar: k
Encoding: 107 107 77
Width: 535
Flags: W
HStem: 0 21G<57 192 369 530>
DStem: 207 704 342 704 57 0 260 318 207 704 226 162 57 0 192 0 474 522 629 522 260 318 409 324
Fore
207 704 m 1
 342 704 l 1
 260 318 l 1
 474 522 l 1
 629 522 l 1
 409 324 l 1
 530 0 l 1
 369 0 l 1
 296 224 l 1
 226 162 l 1
 192 0 l 1
 57 0 l 1
 207 704 l 1
EndSplineSet
EndChar
StartChar: l
Encoding: 108 108 78
Width: 267
Flags: W
HStem: 0 21G<64 200>
DStem: 214 704 350 704 64 0 200 0
Fore
214 704 m 1
 350 704 l 1
 200 0 l 1
 64 0 l 1
 214 704 l 1
EndSplineSet
EndChar
StartChar: m
Encoding: 109 109 79
Width: 856
Flags: W
HStem: 0 21G<57 192 360 494 660 795> 416 118<679 736>
DStem: 168 522 260 321 57 0 192 0 437 360 562 321 360 0 494 0 737 360 872 363 660 0 795 0
Fore
192 0 m 1
 57 0 l 1
 168 522 l 1
 303 522 l 1
 286 444 l 1
 314 477 343 498 368 510 c 0
 393 524 427 531 467 531 c 1
 499 526 519 520 531 510 c 0
 544 500 558 482 575 454 c 1
 597 480 622 500 646 513 c 0
 672 526 700 534 736 534 c 0
 744 534 755 532 775 531 c 0
 844.567 521.405 878.328 483.036 878.328 417.429 c 0
 878.328 400.989 876.208 382.837 872 363 c 2
 795 0 l 1
 660 0 l 1
 737 360 l 2
 737.695 363.709 738.042 367.23 738.042 370.565 c 0
 738.042 396.011 717.9 410.695 679 416 c 1
 648 416 622 405 601 386 c 0
 578 363 567 342 562 321 c 2
 494 0 l 1
 360 0 l 1
 437 360 l 1
 435 394 415 414 373 416 c 0
 348 416 323 406 302 390 c 0
 280 375 267 351 260 321 c 2
 192 0 l 1
EndSplineSet
EndChar
StartChar: n
Encoding: 110 110 80
Width: 589
Flags: W
HStem: 0 21G<62 195 392 526> 422 109<382 439>
DStem: 173 522 266 334 62 0 195 0 460 321 601 351 392 0 526 0
Fore
62 0 m 1
 173 522 l 1
 306 522 l 1
 289 444 l 1
 308 471 331 494 358 508 c 0
 385 524 413 531 439 531 c 0
 550.956 531 606.934 488.485 606.934 403.456 c 0
 606.934 387.473 604.956 369.987 601 351 c 2
 526 0 l 1
 392 0 l 1
 460 321 l 2
 463.383 335.983 465.131 349.33 465.131 361.156 c 0
 465.131 373.798 463.133 384.7 459 394 c 0
 451 414 426 422 382 422 c 1
 347 417 320 406 302 390 c 0
 286 375 271 356 266 334 c 2
 195 0 l 1
 62 0 l 1
EndSplineSet
EndChar
StartChar: o
Encoding: 111 111 81
Width: 589
Flags: W
HStem: -24 117<286 313> 416 115<377 404>
Fore
286 -24 m 0
 214 -24 158 -2 119 40 c 0
 98 64 88 94 82 134 c 0
 80.5563 147.354 79.764 161.229 79.764 175.531 c 0
 79.764 200.856 82.2483 227.52 88 255 c 0
 97 297 112 338 134 376 c 0
 154 416 179 446 209 468 c 0
 264 510 331 531 404 531 c 0
 479 531 534 510 570 468 c 0
 590 444 606 414 611 376 c 0
 612.167 365.204 612.738 354.066 612.738 342.639 c 0
 612.738 314.902 609.374 285.453 603 255 c 0
 594 212 579 171 559 134 c 0
 538 94 510 64 480 40 c 0
 426 -2 359 -24 286 -24 c 0
379 416 m 0
 337 416 302 396 271 357 c 0
 247 326 232 291 224 255 c 0
 220.894 239.025 219.166 223.248 219.166 207.929 c 0
 219.166 188.726 221.881 170.244 228 153 c 0
 242 114 269 93 311 93 c 0
 352 93 388 114 421 153 c 1
 445 188 461 222 468 255 c 0
 471.472 270.189 473.249 285.19 473.249 300.003 c 0
 473.249 319.322 470.226 338.321 464 357 c 0
 451 399 420 416 379 416 c 0
EndSplineSet
EndChar
StartChar: p
Encoding: 112 112 82
Width: 589
Flags: W
HStem: -22 112<314 332> 412 119<392 441>
DStem: 167 522 201 54 11 -212 145 -212
Fore
167 522 m 1
 301 522 l 1
 284 444 l 1
 295 454 305 465 319 477 c 0
 330 488 341 496 354 506 c 0
 364 512 376 519 390 524 c 0
 405 530 423 531 441 531 c 0
 501 531 546 510 576 468 c 0
 594 442 606 410 611 370 c 0
 612.629 356.969 613.409 343.727 613.409 330.271 c 0
 613.409 302.423 610.068 273.666 604 244 c 0
 595 201 580 162 561 128 c 0
 541 90 519 60 490 36 c 0
 462 14 438 -2 414 -10 c 0
 390 -18 363 -22 327 -22 c 0
 304 -22 284 -18 270 -12 c 0
 256 -8 244 2 235 12 c 0
 224 21 215 36 201 54 c 1
 145 -212 l 1
 11 -212 l 1
 167 522 l 1
392 412 m 0
 354 412 317 392 287 352 c 1
 263 315 250 282 243 250 c 0
 239.885 234.426 238.118 217.773 238.118 200.043 c 0
 238.118 183.62 239.634 166.272 243 148 c 1
 257 110 285 90 323 90 c 0
 363 90 397 110 425 148 c 1
 450 186 464 220 470 250 c 0
 473.383 265.466 475.131 281.166 475.131 297.438 c 0
 475.131 314.833 473.133 332.883 469 352 c 1
 457 392 432 412 392 412 c 0
EndSplineSet
EndChar
StartChar: q
Encoding: 113 113 83
Width: 589
Flags: W
HStem: -22 103<244 293>
DStem: 401 54 635 520 345 -212 479 -212
Fore
635 520 m 1
 479 -212 l 1
 345 -212 l 1
 401 54 l 1
 383 38 367 24 353 14 c 0
 338 2 320 -8 305 -12 c 0
 287 -18 267 -22 244 -22 c 0
 208 -22 180 -18 163 -10 c 0
 144 -2 125 12 107 36 c 0
 88 60 76 90 73 128 c 0
 71.5563 141.354 70.764 154.969 70.764 168.797 c 0
 70.764 193.282 73.2483 218.437 79 244 c 0
 88 288 104 330 126 369 c 0
 149 408 174 442 203 468 c 0
 225 486 248 501 274 513 c 0
 298 525 329 531 363 531 c 0
 401 530 427 522 446 507 c 0
 462 494 475 472 484 444 c 1
 501 520 l 1
 635 520 l 1
363 408 m 0
 324 408 289 388 260 350 c 0
 238 316 222 284 214 246 c 0
 210.849 229.794 209.319 214.196 209.319 198.659 c 0
 209.319 179.681 211.601 160.794 216 141 c 0
 228 102 254 81 293 81 c 0
 331 81 368 102 396 141 c 0
 419 172 434 208 442 246 c 0
 446.145 263.964 448.169 280.654 448.169 296.561 c 0
 448.169 315.188 445.394 332.739 440 350 c 0
 428 388 402 408 363 408 c 0
EndSplineSet
EndChar
StartChar: r
Encoding: 114 114 84
Width: 373
Flags: W
HStem: 0 21G<62 195> 396 135<393 469>
DStem: 173 522 258 296 62 0 195 0
Fore
62 0 m 1
 173 522 l 1
 306 522 l 1
 285 422 l 1
 295 440 304 453 317 465 c 0
 326 477 342 488 368 504 c 0
 397 522 429 531 469 531 c 1
 440 393 l 1
 422 394 406 396 393 396 c 0
 363 396 338 390 316 375 c 0
 293 360 272 334 258 296 c 1
 195 0 l 1
 62 0 l 1
EndSplineSet
EndChar
StartChar: s
Encoding: 115 115 85
Width: 535
Flags: W
HStem: -22 102<253 295> 429 102<343 364>
Fore
60 154 m 1
 193 154 l 1
 195 135 200 122 210 112 c 0
 218 102 228 94 241 90 c 0
 255 84 273 80 295 80 c 0
 297.456 79.9123 299.866 79.8688 302.229 79.8688 c 0
 353.759 79.8688 383.307 100.535 390 134 c 0
 390.85 137.402 391.219 140.482 391.219 143.332 c 0
 391.219 150.536 388.866 156.268 386 162 c 0
 384 171 377 177 365 178 c 2
 207 226 l 2
 168 238 142 258 129 279 c 0
 123.188 293.852 119.878 309.122 119.878 325.616 c 0
 119.878 334.664 120.875 344.081 123 354 c 0
 135 410 165 456 215 492 c 0
 252 518 303 531 362 531 c 0
 364.399 531.036 366.777 531.054 369.135 531.054 c 0
 432.632 531.054 481.253 518.105 515 494 c 0
 542 472 561 452 565 429 c 0
 566.798 418.662 567.788 407.919 567.788 396.773 c 0
 567.788 383.121 566.303 368.864 563 354 c 1
 432 354 l 1
 434.343 365.716 435.314 375.373 435.314 382.971 c 0
 435.314 388.343 434.828 392.686 434 396 c 0
 428 405 416 414 397 420 c 0
 381 426 364 429 349 429 c 0
 327 429 306 423 286 414 c 0
 270 406 262 394 258 376 c 0
 257.329 372.811 256.995 369.904 256.995 367.245 c 0
 256.995 354.063 265.189 346.993 281 342 c 2
 466 290 l 2
 481 285 494 276 508 264 c 0
 520 252 529 238 535 220 c 0
 537.11 209.977 538.385 200.232 538.385 190.179 c 0
 538.385 181.174 537.362 171.922 535 162 c 0
 529 130 515 99 491 66 c 0
 465 34 431 10 387 -4 c 0
 372 -10 349 -14 324 -16 c 0
 298 -21 274 -22 253 -22 c 0
 204 -21 168 -14 142 -2 c 0
 85.6633 24.9071 56.9005 65.9545 56.9005 121.142 c 0
 56.9005 131.588 57.931 142.541 60 154 c 1
EndSplineSet
EndChar
StartChar: t
Encoding: 116 116 86
Width: 319
Flags: W
HStem: -22 104<219 254> 422 90<122 170 325 380>
DStem: 170 422 306 422 97 81 243 129 219 654 355 654 189 512 325 512
Fore
123 512 m 1
 189 512 l 1
 219 654 l 1
 355 654 l 1
 325 512 l 1
 399 512 l 1
 380 422 l 1
 306 422 l 1
 243 129 l 2
 240.966 118.828 239.851 110.15 239.851 103.123 c 0
 239.851 89.426 244.086 82 254 82 c 2
 305 81 l 1
 286 -10 l 1
 265 -16 241 -22 219 -22 c 0
 213.573 -22.4174 208.408 -22.617 203.486 -22.617 c 0
 184.826 -22.617 169.661 -19.7477 157 -15 c 0
 118.478 -2.7857 96.7287 26.2013 96.7287 71.9611 c 0
 96.7287 74.9047 96.8187 77.9176 97 81 c 1
 170 422 l 1
 104 422 l 1
 123 512 l 1
EndSplineSet
EndChar
StartChar: u
Encoding: 117 117 87
Width: 589
Flags: W
HStem: 0 21G<387 522>
DStem: 167 522 301 522 90 159 232 198 498 522 633 522 426 184 522 0
Fore
633 522 m 1
 522 0 l 1
 387 0 l 1
 401 64 l 1
 376 36 353 14 330 2 c 0
 310 -10 283 -16 253 -22 c 1
 216 -21 185 -16 160 -10 c 0
 134 -3 115 14 101 40 c 0
 89.6827 57.6047 83.8998 79.1625 83.8998 105.916 c 0
 83.8998 121.714 85.9161 139.323 90 159 c 2
 167 522 l 1
 301 522 l 1
 232 198 l 2
 228.72 183.004 226.977 169.765 226.977 158.282 c 0
 226.977 145.263 229.218 134.502 234 126 c 0
 242 106 267 99 309 99 c 1
 346 104 374 114 390 129 c 0
 407 144 421 162 426 184 c 2
 498 522 l 1
 633 522 l 1
EndSplineSet
EndChar
StartChar: v
Encoding: 118 118 88
Width: 535
Flags: W
HStem: 0 21G<194 336>
Fore
125 522 m 1
 267 522 l 1
 294 140 l 1
 486 522 l 1
 629 522 l 1
 336 0 l 1
 194 0 l 1
 125 522 l 1
EndSplineSet
EndChar
StartChar: w
Encoding: 119 119 89
Width: 748
Flags: W
HStem: 0 21G<152 290 454 594>
VStem: 452 99<0 522>
DStem: 413 522 452 368 258 156 290 0
Fore
115 522 m 1
 255 522 l 1
 258 156 l 1
 413 522 l 1
 553 522 l 1
 551 156 l 1
 709 522 l 1
 851 522 l 1
 594 0 l 1
 454 0 l 1
 452 368 l 1
 290 0 l 1
 152 0 l 1
 115 522 l 1
EndSplineSet
EndChar
StartChar: x
Encoding: 120 120 90
Width: 535
Flags: W
HStem: 0 21G<15 177 354 516>
DStem: 241 261 301 154 15 0 177 0
Fore
132 522 m 1
 294 522 l 1
 345 364 l 1
 465 522 l 1
 624 522 l 1
 399 261 l 1
 516 0 l 1
 354 0 l 1
 301 154 l 1
 177 0 l 1
 15 0 l 1
 241 261 l 1
 132 522 l 1
EndSplineSet
EndChar
StartChar: y
Encoding: 121 121 91
Width: 535
Flags: W
HStem: -212 110<36 61>
Fore
120 522 m 1
 269 522 l 1
 302 142 l 1
 491 522 l 1
 630 522 l 1
 274 -108 l 1
 263 -130 245 -153 221 -174 c 0
 204 -190 177 -198 139 -204 c 0
 102 -208 67 -212 36 -212 c 1
 59 -102 l 1
 101 -102 132 -96 146 -88 c 0
 170 -76 184 -56 190 -30 c 0
 191.464 -21.2154 192.392 -14.0385 192.392 -7.29234 c 0
 192.392 -4.82309 192.268 -2.41154 192 0 c 2
 120 522 l 1
EndSplineSet
EndChar
StartChar: z
Encoding: 122 122 92
Width: 480
Flags: W
HStem: 0 110<211 452> 412 110<149 366>
DStem: 366 412 532 412 44 110 211 110
Fore
150 522 m 1
 555 522 l 1
 532 412 l 1
 211 110 l 1
 475 110 l 1
 452 0 l 1
 21 0 l 1
 44 110 l 1
 366 412 l 1
 127 412 l 1
 150 522 l 1
EndSplineSet
EndChar
StartChar: braceleft
Encoding: 123 123 93
Width: 373
Flags: W
HStem: -195 95<236 263> 213 90<81 100> 609 95<374 433>
DStem: 150 158 258 156 103 -63 214 -50 238 572 344 558 190 350 300 352
Fore
81 213 m 1
 100 303 l 1
 152 303 184 318 190 350 c 2
 238 572 l 2
 246 612 265 644 295 668 c 0
 325 692 351 704 374 704 c 2
 454 704 l 1
 433 609 l 1
 399 609 l 2
 379 609 365 604 359 597 c 0
 351 588 347 574 344 558 c 2
 300 352 l 2
 289 300 251 268 189 258 c 1
 213 255 232 246 248 234 c 0
 257.633 225.009 262.317 211.482 262.317 192.625 c 0
 262.317 182.117 260.863 169.955 258 156 c 2
 214 -50 l 2
 212.954 -55.5778 212.516 -60.6695 212.516 -65.3174 c 0
 212.516 -74.0021 214.046 -81.1375 216 -87 c 0
 218 -94 229 -100 249 -100 c 2
 283 -100 l 1
 263 -195 l 1
 183 -195 l 2
 160 -195 139 -183 119 -159 c 0
 105.356 -142.628 98.6934 -122.998 98.6934 -99.158 c 0
 98.6934 -88.0512 100.14 -76.0307 103 -63 c 2
 150 158 l 2
 150.795 162.201 151.19 166.156 151.19 169.868 c 0
 151.19 198.855 127.097 213 81 213 c 1
EndSplineSet
EndChar
StartChar: bar
Encoding: 124 124 94
Width: 268
Flags: W
DStem: 246 704 322 704 55 -195 131 -195
Fore
322 704 m 1
 131 -195 l 1
 55 -195 l 1
 246 704 l 1
 322 704 l 1
EndSplineSet
EndChar
StartChar: braceright
Encoding: 125 125 95
Width: 373
Flags: W
HStem: 213 90<381 403>
DStem: 181 156 295 158 137 -50 248 -63 267 558 383 572 223 352 336 351
Fore
403 303 m 1
 384 213 l 1
 360 213 342 210 327 201 c 0
 309 194 299 180 295 158 c 2
 248 -63 l 2
 239 -105 219 -138 188 -159 c 0
 157 -183 131 -195 111 -195 c 2
 28 -195 l 1
 48 -100 l 1
 84 -100 l 2
 105 -100 118 -94 124 -87 c 0
 130 -78 134 -66 137 -50 c 2
 181 156 l 2
 195 219 236 252 298 260 c 1
 273 261 252 270 237 282 c 0
 225.294 288.886 219.278 302.409 219.278 321.918 c 0
 219.278 330.741 220.509 340.789 223 352 c 2
 267 558 l 2
 268.954 568.422 270.484 577.996 270.484 585.892 c 0
 270.484 590.117 270.046 593.862 269 597 c 0
 266 604 256 610 235 610 c 2
 199 610 l 1
 219 704 l 1
 302 704 l 2
 316 704 331 699 345 690 c 0
 358 680 371 664 380 644 c 0
 384.571 632.571 386.857 619.837 386.857 605.796 c 0
 386.857 595.265 385.571 584 383 572 c 2
 336 351 l 2
 335.133 346.911 334.695 343.099 334.695 339.557 c 0
 334.695 314.513 356.567 303 403 303 c 1
EndSplineSet
EndChar
StartChar: asciitilde
Encoding: 126 126 96
Width: 562
Flags: W
Fore
162 168 m 1
 93 168 l 1
 110 218 135 255 167 279 c 0
 194 300 219 310 244 310 c 0
 262 310 280 303 296 292 c 2
 382 237 l 2
 400 225 416 219 429 219 c 0
 459 219 477 238 485 279 c 1
 559 279 l 1
 555 260 547 240 540 224 c 0
 530 207 512 188 490 170 c 0
 465 147 441 138 419 138 c 0
 399 138 379 144 355 159 c 2
 259 218 l 2
 246 225 232 231 220 231 c 0
 205 231 192 224 185 212 c 0
 177 200 169 186 162 168 c 1
EndSplineSet
EndChar
StartChar: uni0E10.descless
Encoding: 128 63232 97
Width: 535
Flags: W
HStem: 0 21G<330 438> 140 67<212 231> 297 71<245 260> 472 78<530 547> 518 72<341 365>
Fore
330 0 m 1
 330.338 4.73335 330.505 9.69531 330.505 14.8956 c 0
 330.505 40.4572 326.479 71.7762 319 110 c 0
 311 154 306 177 304 177 c 1
 298 171 289 162 273 153 c 0
 257 144 237 140 212 140 c 0
 176 140 149 152 136 172 c 0
 124.261 187.882 118.721 204.718 118.721 224.153 c 0
 118.721 232.864 119.834 242.097 122 252 c 0
 128 284 144 310 170 332 c 0
 193 354 224 366 260 368 c 0
 291 368 317 362 334 350 c 0
 349 336 358 314 362 284 c 0
 366 270 370 252 375 232 c 0
 379 212 382 201 382 200 c 2
 398 279 l 2
 403.062 303.188 405.594 322.629 405.594 337.146 c 0
 405.594 348.438 404.062 356.75 401 362 c 0
 391 374 369 382 334 393 c 0
 298 404 260 414 221 420 c 0
 183 428 154 432 134 434 c 1
 142 471 l 1
 177 508 213 537 249 560 c 0
 283 579 321 590 363 590 c 0
 397 590 433 585 472 572 c 0
 507 560 533 550 547 550 c 0
 565 550 589 556 615 566 c 1
 615 566 614.556 561.556 614.556 552.963 c 0
 614.556 548.667 614.667 543.333 615 537 c 0
 616 528 616.25 519 616.25 510.625 c 0
 616.25 502.25 616 494.5 616 488 c 1
 582 478 553 472 530 472 c 0
 516 472 503 474 491 477 c 0
 480 480 463 486 441 495 c 0
 417 504 399 508 388 512 c 0
 378 516 365 518 350 518 c 0
 335 518 321 513 304 507 c 0
 288 500 276 494 274 488 c 1
 286 486 309 483 339 478 c 0
 368 472 390 468 406 462 c 0
 459 447 491 428 501 402 c 0
 505.05 390.3 507.075 375.765 507.075 358.577 c 0
 507.075 337.57 504.05 312.6 498 284 c 2
 438 0 l 1
 330 0 l 1
226 207 m 0
 240 207 252 212 260 220 c 0
 271 230 276 238 279 252 c 0
 279.582 255.492 279.91 258.815 279.91 262.017 c 0
 279.91 269.82 277.963 276.91 273 284 c 0
 269 291 259 297 245 297 c 0
 229 297 218 291 208 284 c 0
 199 274 194 264 192 252 c 0
 191.225 248.513 190.75 244.726 190.75 240.813 c 0
 190.75 234.627 191.937 228.126 195 222 c 0
 203 213 212 208 226 207 c 0
EndSplineSet
EndChar
StartChar: uni0E34.left
Encoding: 129 63233 98
Width: 0
Flags: W
HStem: 729 71<-378 -339.286>
Fore
-252 921 m 0
 -210 921 -177 908 -154 886 c 0
 -131 868 -116 846 -108 820 c 0
 -99 795 -93 768 -93 740 c 0
 -94 708 -94 687 -94 675 c 1
 -110 680 -133 688 -166 699 c 0
 -201 706 -241 716 -287 722 c 0
 -316 728 -352 729 -394 729 c 0
 -427 729 -455 728 -482 726 c 0
 -508 724 -527 722 -539 720 c 1
 -517 778 -481 825 -429 862 c 0
 -377.263 901.047 -319.808 921.036 -256.635 921.036 c 0
 -255.094 921.036 -253.549 921.024 -252 921 c 0
-267 852 m 1
 -299 852 -327 848 -353 836 c 0
 -380 824 -397 812 -405 796 c 1
 -400 798 -390 798 -378 800 c 0
 -366 800 -352 800 -337 800 c 0
 -322 800 -302 798 -278 796 c 0
 -245 794 -220 788 -200 783 c 0
 -183 777 -170 771 -164 768 c 1
 -177 818 -212 846 -267 852 c 1
EndSplineSet
EndChar
StartChar: uni0E35.left
Encoding: 130 63234 99
Width: 0
Flags: W
HStem: 732 72<-375 -307>
DStem: -102 986 -12 986 -124 884 -62 752
Fore
-233 924 m 0
 -200 924 -176 915 -159 908 c 0
 -141 897 -129 888 -124 884 c 1
 -102 986 l 1
 -12 986 l 1
 -62 752 l 1
 -60.7639 752 -59.9098 742.069 -59.9098 722.443 c 0
 -59.9098 710.313 -60.2361 694.48 -61 675 c 1
 -77 680 -105 690 -147 702 c 0
 -186 714 -227 720 -264 726 c 0
 -297 730 -332 732 -375 732 c 0
 -400 732 -420 732 -439 730 c 0
 -454 729 -471 729 -487 728 c 0
 -506 726 -515 724 -516 724 c 1
 -505 759 -484 792 -455 824 c 0
 -427 856 -395 878 -355 897 c 0
 -320.706 912.756 -281.259 924.218 -242.23 924.218 c 0
 -239.15 924.218 -236.072 924.146 -233 924 c 0
-248 856 m 1
 -277 856 -303 850 -330 838 c 0
 -358 826 -376 813 -385 798 c 1
 -379 800 -370 800 -360 801 c 0
 -347 804 -329 804 -307 804 c 0
 -295 804 -278 801 -258 800 c 0
 -225 796 -200 792 -181 786 c 0
 -162 780 -150 774 -144 771 c 1
 -147 794 -158 810 -175 825 c 0
 -189 840 -213 850 -248 856 c 1
EndSplineSet
EndChar
StartChar: uni0E36.left
Encoding: 131 63235 100
Width: 0
Flags: W
HStem: 732 72<-391 -356.705> 856 68<-291 -266> 928 66<-141 -123>
VStem: -116 72<907 912>
Fore
-44 910 m 1
 -54 860 -76 826 -111 812 c 1
 -108 801 -101 784 -98 760 c 0
 -94.5451 742.725 -93.4775 723.541 -93.4775 703.107 c 0
 -93.4775 693.968 -93.691 684.58 -94 675 c 1
 -111 680 -139 690 -179 702 c 0
 -218 714 -261 720 -299 726 c 0
 -329 730 -366 732 -408 732 c 0
 -434 732 -454 732 -472 730 c 0
 -487 729 -505 729 -521 728 c 0
 -539 726 -550 724 -551 724 c 1
 -539 759 -519 792 -489 824 c 0
 -460 856 -428 878 -388 897 c 0
 -352 914 -311 924 -266 924 c 0
 -262 924 -256 924 -246 922 c 0
 -238 921 -234 921 -234 918 c 1
 -230 933 -216 950 -198 968 c 0
 -178 987 -155 994 -123 994 c 0
 -97 994 -75 987 -62 970 c 0
 -49 956 -44 936 -44 910 c 1
-283 856 m 1
 -312 856 -338 850 -365 838 c 0
 -392 826 -411 816 -418 800 c 1
 -414 801 -404 801 -391 804 c 0
 -379 804 -365 804 -349 804 c 0
 -335 804 -316 801 -290 800 c 0
 -260 796 -234 792 -214 786 c 0
 -197 780 -185 774 -176 771 c 1
 -182 794 -192 810 -207 825 c 0
 -223 840 -248 850 -283 856 c 1
-151 870 m 0
 -142 870 -135 873 -128 879 c 0
 -122 885 -119 891 -117 900 c 0
 -116.333 902.667 -116 905.111 -116 907.333 c 0
 -116 911.778 -117.333 915.333 -120 918 c 0
 -124 926 -130 928 -139 928 c 0
 -157 928 -169 918 -173 900 c 0
 -173.676 896.45 -174.009 893.243 -174.009 890.364 c 0
 -174.009 876.214 -165.957 870 -151 870 c 0
EndSplineSet
EndChar
StartChar: uni0E37.left
Encoding: 132 63236 101
Width: 0
Flags: W
HStem: 732 72<-375 -307> 856 68<-250 -230>
DStem: -98 986 -12 986 -121 879 -62 752
Fore
-121 879 m 1
 -98 986 l 1
 -12 986 l 1
 -62 752 l 1
 -60.7639 752 -59.9098 742.069 -59.9098 722.443 c 0
 -59.9098 710.313 -60.2361 694.48 -61 675 c 1
 -77 680 -105 690 -147 702 c 0
 -186 714 -227 720 -264 726 c 0
 -297 730 -332 732 -375 732 c 0
 -400 732 -420 732 -439 730 c 0
 -454 729 -471 729 -487 728 c 0
 -506 726 -515 724 -516 724 c 1
 -480 806 -433 860 -384 885 c 0
 -332 910 -281 924 -230 924 c 1
 -216 986 l 1
 -136 986 l 1
 -154 903 l 1
 -148 903 -138 896 -121 879 c 1
-248 856 m 1
 -277 856 -303 850 -330 838 c 0
 -358 826 -376 813 -385 798 c 1
 -379 800 -370 800 -360 801 c 0
 -347 804 -329 804 -307 804 c 0
 -295 804 -278 801 -258 800 c 0
 -225 796 -200 792 -181 786 c 0
 -162 780 -150 774 -144 771 c 1
 -147 794 -158 810 -175 825 c 0
 -189 840 -213 850 -248 856 c 1
EndSplineSet
EndChar
StartChar: ellipsis
Encoding: 133 8230 102
Width: 889
VWidth: 2048
Flags: W
HStem: -21 21G<124.504 179.5>
Fore
533 52 m 4
 525 12 491 -12 431 -21 c 5
 378.033 -21 352.889 1.25865 352.889 45.776 c 0
 352.889 47.4845 352.926 49.2259 353 51 c 5
 364 102 401 128 461 128 c 4
 486 128 507 118 520 105 c 4
 529.664 95.3356 534.907 83.4605 534.907 68.553 c 0
 534.907 63.4078 534.283 57.9014 533 52 c 4
812 52 m 5
 804 12 769 -12 710 -21 c 5
 659.498 -21 632.612 -0.00903575 632.612 41.9729 c 0
 632.612 44.8812 632.741 47.8902 633 51 c 5
 644 102 679 128 739 128 c 4
 765 128 784 118 800 105 c 5
 809 95.25 813.5 83.25 813.5 68.1562 c 0
 813.5 63.125 813 57.75 812 52 c 5
255 52 m 4
 245 3 209 -21 150 -21 c 4
 99.0089 -21 74.741 -3.66607 74.741 31.6156 c 0
 74.741 37.849 75.4985 44.6427 77 52 c 4
 88 102 121 128 181 128 c 4
 231.158 128 257.466 109.209 257.466 72.8556 c 0
 257.466 66.4473 256.648 59.4931 255 52 c 4
EndSplineSet
EndChar
StartChar: uni0E48.low_left
Encoding: 134 63237 103
Width: 0
Flags: W
DStem: -150 939 -50 939 -205 681 -105 681
Fore
-205 681 m 1
 -150 939 l 1
 -50 939 l 1
 -105 681 l 1
 -205 681 l 1
EndSplineSet
EndChar
StartChar: uni0E49.low_left
Encoding: 135 63238 104
Width: 0
Flags: W
HStem: 890 72<-252 -236>
Fore
-148 849 m 0
 -156 818 -167 795 -176 780 c 0
 -188 765 -195 756 -202 754 c 1
 -195 756 -189 756 -179 758 c 0
 -171 759 -162 762 -151 768 c 0
 -138 772 -126 778 -112 786 c 0
 -99 795 -89 804 -79 816 c 0
 -53 852 -36 886 -30 915 c 0
 -26 933 -23 946 -22 954 c 1
 74 954 l 1
 48 831 -11 747 -100 708 c 0
 -152 687 -209 675 -269 675 c 0
 -287 675 -303 675 -315 676 c 0
 -328 678 -337 680 -341 681 c 1
 -334 716 l 1
 -330 717 -319 722 -310 730 c 0
 -299 738 -289 746 -287 754 c 1
 -292 754 -299 758 -318 762 c 0
 -335 768 -346 780 -354 798 c 0
 -359.786 809.571 -362.679 821.969 -362.679 835.725 c 0
 -362.679 843.367 -361.786 851.429 -360 860 c 0
 -354 888 -338 912 -315 930 c 0
 -293 951 -266 962 -236 962 c 0
 -210 962 -190 956 -177 944 c 0
 -164 933 -155 918 -149 900 c 0
 -146.361 891.554 -145.115 882.551 -145.115 873.432 c 0
 -145.115 865.276 -146.111 857.026 -148 849 c 0
-265 824 m 0
 -254 824 -244 826 -239 834 c 0
 -231 840 -226 849 -224 858 c 0
 -223.483 860.067 -223.234 862.067 -223.234 864 c 0
 -223.234 869.55 -225.292 874.55 -229 879 c 0
 -232 886 -240 890 -251 890 c 0
 -259 890 -270 886 -275 879 c 0
 -284 873 -288 866 -290 858 c 0
 -290.606 855.275 -290.936 852.825 -290.936 850.484 c 0
 -290.936 845.092 -289.183 840.275 -285 834 c 0
 -282 826 -277 824 -265 824 c 0
EndSplineSet
EndChar
StartChar: uni0E4A.low_left
Encoding: 136 63239 105
Width: 0
Flags: W
HStem: 668 52<-396 -385> 766 52<-377 -356> 844 66<-239 -211> 848 62<-355 -329>
VStem: -87 74<884 901>
Fore
-396 668 m 0
 -426 669 -446 681 -460 706 c 0
 -468 723.333 -473.333 742.444 -473.333 763.926 c 0
 -473.333 774.667 -472 786 -469 798 c 0
 -462 831 -445 856 -423 878 c 0
 -403 900 -377 910 -345 910 c 0
 -325 910 -308 908 -301 898 c 0
 -291 890 -284 885 -283 879 c 1
 -277 885 -269 890 -256 898 c 0
 -242 908 -229 910 -211 910 c 0
 -182 910 -159 902 -148 884 c 0
 -141.278 871.778 -137.917 858.062 -137.917 841.939 c 0
 -137.917 831.679 -139.278 820.444 -142 808 c 0
 -148 782 -160 756 -178 732 c 1
 -172 734 -165 740 -155 746 c 0
 -144 753 -135 760 -126 772 c 0
 -109 796 -98 820 -93 844 c 0
 -89 860 -87 874 -87 890 c 1
 -14 914 l 1
 -13.3333 910.333 -13 906 -13 901.037 c 0
 -13 891.111 -14.3333 878.667 -17 864 c 0
 -28 816 -48 774 -79 741 c 0
 -103 716 -129 699 -161 690 c 0
 -191 681 -226 678 -270 678 c 1
 -269 680 -269 682 -269 692 c 0
 -268 700 -267 705 -267 705 c 1
 -261 710 -251 718 -238 732 c 0
 -228 746 -218 765 -214 786 c 0
 -211.718 795.889 -210.593 804.493 -210.593 811.826 c 0
 -210.593 833.414 -220.339 844 -239 844 c 0
 -251 844 -261 840 -268 836 c 0
 -277 831 -284 825 -287 822 c 1
 -291 825 -295 831 -306 837 c 0
 -316 844 -327 848 -342 848 c 0
 -369 848 -384 836 -392 810 c 1
 -389 812 -385 812 -377 813 c 0
 -371 816 -363 818 -356 818 c 0
 -334 816 -318 808 -311 795 c 0
 -305.458 785.763 -302.57 774.631 -302.57 761.603 c 0
 -302.57 753.473 -303.695 744.606 -306 735 c 0
 -310 717 -321 702 -338 688 c 0
 -357 675 -376 668 -396 668 c 0
-377 766 m 0
 -393 766 -403 759 -406 744 c 0
 -406.25 743 -406.375 741.875 -406.375 740.672 c 0
 -406.375 737.062 -405.25 732.75 -403 729 c 0
 -398 724 -395 720 -387 720 c 0
 -381 720 -377 722 -369 728 c 0
 -364 732 -362 740 -361 744 c 0
 -360.634 745.464 -360.402 747.196 -360.402 749.049 c 0
 -360.402 752.258 -361.098 755.83 -363 759 c 0
 -367 765 -371 766 -377 766 c 0
EndSplineSet
EndChar
StartChar: uni0E4B.low_left
Encoding: 137 63240 106
Width: 0
Flags: W
HStem: 778 90<-327 -247 -134 -55> 944 20G<-207 -113>
DStem: -247 778 -153 778 -267 681 -173 681 -207 964 -113 964 -228 868 -134 868
Fore
-247 778 m 1
 -345 778 l 1
 -326 868 l 1
 -228 868 l 1
 -207 964 l 1
 -113 964 l 1
 -134 868 l 1
 -36 868 l 1
 -55 778 l 1
 -153 778 l 1
 -173 681 l 1
 -267 681 l 1
 -247 778 l 1
EndSplineSet
EndChar
StartChar: uni0E4C.low_left
Encoding: 138 63241 107
Width: 0
Flags: W
HStem: 681 67<-194 -183> 813 69<-171 -151> 882 75<-151 -89>
Fore
0 894 m 0
 -52 885 -103 882 -151 882 c 0
 -122 882 -100 873 -88 855 c 0
 -77.424 841.402 -70.8427 826.093 -70.8427 807.346 c 0
 -70.8427 801.277 -71.5326 794.848 -73 788 c 0
 -77 759 -93 734 -114 714 c 0
 -137 693 -163 681 -194 681 c 0
 -195.507 680.961 -197 680.942 -198.48 680.942 c 0
 -235.302 680.942 -263.734 692.85 -282 714 c 0
 -295.985 728.685 -302.636 748.259 -302.636 771.697 c 0
 -302.636 781.777 -301.406 792.572 -299 804 c 0
 -283 870 -247 914 -190 939 c 0
 -166 950 -133 956 -89 957 c 0
 -46 962 -17 966 1 974 c 0
 20 980 32 996 38 1026 c 1
 124 1026 l 1
 117 992 103 963 83 939 c 0
 62 915 33 900 0 894 c 0
-171 813 m 0
 -181 813 -191 810 -198 806 c 1
 -205 798 -210 790 -212 782 c 0
 -212.536 779.32 -212.785 776.928 -212.785 774.727 c 0
 -212.785 768.713 -210.928 764.124 -208 759 c 0
 -203 753 -195 748 -185 748 c 0
 -175 748 -166 753 -160 759 c 0
 -152 765 -148 772 -146 782 c 0
 -145.045 786.2 -144.565 789.926 -144.565 793.206 c 0
 -144.565 807.108 -153.2 813 -171 813 c 0
EndSplineSet
EndChar
StartChar: uni0E48.low
Encoding: 139 63242 108
Width: 0
Flags: W
DStem: 20 939 119 939 -35 681 64 681
Fore
-35 681 m 1
 20 939 l 1
 119 939 l 1
 64 681 l 1
 -35 681 l 1
EndSplineSet
EndChar
StartChar: uni0E49.low
Encoding: 140 63243 109
Width: 0
Flags: W
HStem: 890 72<-143 -126>
Fore
-42 849 m 0
 -50 818 -57 794 -71 778 c 0
 -80 765 -87 756 -92 754 c 1
 -89 754 -79 756 -63 760 c 0
 -49 765 -32 770 -17 778 c 0
 1 786 16 800 29 816 c 0
 55 850 72 885 79 918 c 0
 83 934 85 946 86 954 c 1
 181 954 l 1
 155 831 96 747 6 708 c 0
 -44 687 -101 675 -160 675 c 0
 -179 675 -195 675 -207 676 c 0
 -220 678 -229 680 -233 681 c 1
 -226 716 l 1
 -222 717 -211 722 -201 730 c 0
 -191 738 -181 746 -179 754 c 1
 -182 754 -193 758 -212 762 c 0
 -229 768 -239 780 -247 798 c 0
 -251.775 809.938 -254.056 821.519 -254.056 833.807 c 0
 -254.056 842.106 -253.016 850.728 -251 860 c 0
 -246 886 -230 910 -207 930 c 0
 -185 951 -158 962 -126 962 c 0
 -92 962 -66 950 -52 926 c 0
 -43.2635 910.543 -38.5917 894.183 -38.5917 876.312 c 0
 -38.5917 867.591 -39.7043 858.511 -42 849 c 0
-157 824 m 0
 -147 824 -138 826 -131 834 c 0
 -123 843 -118 849 -116 858 c 0
 -115.483 860.067 -115.234 862.067 -115.234 864 c 0
 -115.234 869.55 -117.292 874.55 -121 879 c 0
 -126 886 -133 890 -143 890 c 0
 -153 890 -163 886 -169 879 c 0
 -177 873 -182 866 -184 858 c 0
 -184.517 855.675 -184.766 853.55 -184.766 851.522 c 0
 -184.766 845.7 -182.708 840.675 -179 834 c 0
 -175 826 -169 824 -157 824 c 0
EndSplineSet
EndChar
StartChar: uni0E4A.low
Encoding: 141 63244 110
Width: 0
Flags: W
HStem: 674 58<-257 -236> 782 54<-226 -210> 866 70<-211 -190>
Fore
-257 674 m 0
 -289 674 -313 688 -326 717 c 0
 -334.499 735.96 -340.006 756.202 -340.006 777.727 c 0
 -340.006 789.125 -338.462 800.883 -335 813 c 0
 -328 848 -310 876 -287 900 c 0
 -263 924 -233 936 -201 936 c 0
 -189 936 -177 934 -168 930 c 0
 -160 927 -154 924 -148 921 c 0
 -144 916 -142 914 -137 910 c 0
 -134 908 -134 903 -132 902 c 1
 -125 908 -116 914 -102 922 c 0
 -88 930 -73 936 -53 936 c 0
 -21 936 1 926 15 908 c 1
 21.7791 894.442 25.5198 879.364 25.5198 861.363 c 0
 25.5198 850.155 24.0697 837.814 21 824 c 0
 15 795 1 766 -20 741 c 1
 -14 742 -7 747 4 754 c 0
 15 760 26 771 38 784 c 0
 58 808 72 837 79 870 c 0
 81.1436 879.646 82.1384 889.867 82.1384 900.046 c 0
 82.1384 908.862 81.3923 917.646 80 926 c 1
 161 940 l 1
 161.536 936.249 161.785 932.21 161.785 927.923 c 0
 161.785 916.21 159.928 902.641 157 888 c 0
 145 832 121 786 85 748 c 0
 61 722 34 704 1 694 c 0
 -34 687 -74 681 -119 681 c 1
 -119 682 -118 687 -117 693 c 0
 -117 702 -116 706 -115 712 c 1
 -109 717 -97 728 -86 742 c 0
 -73 758 -65 777 -60 800 c 0
 -57.6536 811.21 -56.4627 820.926 -56.4627 829.163 c 0
 -56.4627 852.522 -66.0391 864 -86 864 c 0
 -100 864 -113 861 -122 855 c 0
 -134 849 -142 844 -148 838 c 1
 -148 838 l 1
 -147.764 838.472 -147.639 839 -147.639 839.597 c 0
 -147.639 841.528 -148.944 844.18 -152 848 c 0
 -158 852 -164 856 -169 861 c 0
 -178 864 -186 866 -197 866 c 0
 -228 866 -247 852 -253 826 c 1
 -250 830 -243 831 -237 832 c 0
 -229 834 -221 836 -210 836 c 0
 -187 834 -173 825 -164 810 c 0
 -157.932 799.212 -154.591 785.242 -154.591 769.623 c 0
 -154.591 762.076 -155.371 754.144 -157 746 c 0
 -161 728 -175 710 -192 694 c 0
 -211 680 -233 674 -257 674 c 0
-226 782 m 0
 -242 782 -253 772 -256 758 c 0
 -256.453 755.431 -256.678 753.044 -256.678 750.843 c 0
 -256.678 738.485 -249.582 732 -236 732 c 0
 -219 732 -208 741 -205 758 c 0
 -204.155 760.959 -203.845 763.56 -203.845 765.879 c 0
 -203.845 769.048 -204.423 771.691 -205 774 c 0
 -210 780 -216 782 -226 782 c 0
EndSplineSet
EndChar
StartChar: uni0E4B.low
Encoding: 142 63245 111
Width: 0
Flags: W
HStem: 778 90<-185 -103 7 87> 944 20G<-63 28>
DStem: -103 778 -12 778 -123 681 -32 681 -63 964 28 964 -84 868 7 868
Fore
-103 778 m 1
 -203 778 l 1
 -184 868 l 1
 -84 868 l 1
 -63 964 l 1
 28 964 l 1
 7 868 l 1
 106 868 l 1
 87 778 l 1
 -12 778 l 1
 -32 681 l 1
 -123 681 l 1
 -103 778 l 1
EndSplineSet
EndChar
StartChar: uni0E4C.low
Encoding: 143 63246 112
Width: 0
Flags: W
HStem: 682 66<-99 -88> 816 66<-76 -56>
Fore
96 894 m 0
 67 888 40 886 14 885 c 0
 -12 884 -37 882 -56 882 c 0
 -26 882 -6 873 8 855 c 1
 18.0821 842.037 23.4967 827.519 23.4967 809.95 c 0
 23.4967 803.123 22.6791 795.836 21 788 c 0
 17 759 2 734 -19 714 c 0
 -43 693 -68 682 -99 682 c 0
 -141 682 -170 694 -188 717 c 0
 -200.693 733.219 -207.916 751.924 -207.916 774.167 c 0
 -207.916 783.468 -206.653 793.386 -204 804 c 0
 -197 836 -183 862 -164 886 c 0
 -147 909 -124 927 -96 939 c 0
 -71 950 -37 956 6 960 c 0
 48 962 77 966 99 974 c 0
 115 978 128 996 134 1026 c 1
 218 1026 l 1
 202 950 160 904 96 894 c 0
-76 816 m 0
 -87 816 -95 812 -103 806 c 0
 -109 798 -116 792 -118 783 c 0
 -118.134 781.794 -118.196 780.642 -118.196 779.53 c 0
 -118.196 772.338 -115.598 766.794 -113 759 c 0
 -110 753 -102 748 -90 748 c 0
 -79 748 -71 753 -64 759 c 0
 -57 766 -53 774 -52 783 c 0
 -51.101 787.045 -50.6061 790.889 -50.6061 794.53 c 0
 -50.6061 798.99 -51.3485 803.146 -53 807 c 1
 -59 812 -67 816 -76 816 c 0
EndSplineSet
EndChar
StartChar: uni0E0D.descless
Encoding: 144 63247 113
Width: 810
Flags: W
HStem: -10 62<202 217> 0 88<372 611> 144 63<237 250> 520 70<401 439>
DStem: 502 434 597 418 429 88 527 88 752 576 851 576 659 138 752 110
Fore
851 576 m 1
 752 110 l 2
 746 78 735 54 724 39 c 0
 711 24 695 14 676 9 c 0
 655 3 626 0 590 0 c 2
 354 0 l 1
 373 88 l 1
 429 88 l 1
 502 434 l 2
 503.485 440.434 504.235 446.622 504.235 452.506 c 0
 504.235 470.398 497.298 485.464 483 496 c 0
 465 512 436 519 401 520 c 0
 385 520 362 518 332 508 c 0
 301 500 276 488 260 472 c 1
 271 471 287 468 310 459 c 0
 330 453 350 442 367 428 c 1
 357 380 l 1
 339 380 320 375 299 363 c 0
 279 351 264 326 256 286 c 2
 239 206 l 1
 240 207 240 207 242 207 c 0
 248 207 l 0
 269 207 289 201 303 192 c 0
 317 182 327 168 332 152 c 0
 334.639 142.498 335.885 133.276 335.885 124.037 c 0
 335.885 115.774 334.889 107.498 333 99 c 0
 329 80 322 63 310 46 c 0
 297 28 281 15 263 4 c 0
 245 -4 223 -10 202 -10 c 0
 168 -10 142 0 128 22 c 0
 117.988 36.3033 112.067 53.6755 112.067 74.1164 c 0
 112.067 82.2575 113.006 90.8854 115 100 c 2
 153 279 l 2
 160 312 171 338 182 356 c 0
 196 375 212 392 234 405 c 1
 228 408 216 414 197 418 c 0
 180 423 159 429 135 430 c 1
 142 462 l 1
 160 484 195 510 244 543 c 0
 294 574 359 590 439 590 c 0
 476 590 506 585 530 573 c 0
 553 561 570 548 581 531 c 0
 592 512 599 494 599 474 c 0
 600.381 467.093 600.928 460.305 600.928 453.678 c 0
 600.928 441.115 598.964 429.129 597 418 c 2
 527 88 l 1
 609 88 l 2
 628 88 641 92 646 96 c 0
 650 102 655 116 659 138 c 2
 752 576 l 1
 851 576 l 1
217 52 m 0
 224 52 233 54 244 60 c 0
 251 64 258 69 262 76 c 0
 266 82 269 90 271 99 c 0
 272.139 103.937 272.846 108.586 272.846 112.947 c 0
 272.846 120.067 270.962 126.418 266 132 c 0
 261 141 251 144 237 144 c 0
 221 144 210 140 199 130 c 0
 188 122 181 110 179 99 c 0
 178.1 95.4 177.65 91.89 177.65 88.524 c 0
 177.65 80.67 180.1 73.6 185 68 c 0
 192 57 201 52 217 52 c 0
EndSplineSet
EndChar
StartChar: quoteleft
Encoding: 145 8216 114
Width: 240
VWidth: 2048
Flags: W
Fore
165 651 m 4
 176 705 201 746 246 780 c 5
 290 813 330 834 366 837 c 5
 373 810 l 5
 341 795 320 783 309 774 c 5
 291 762 276 742 269 718 c 5
 288 718 307 712 323 702 c 4
 336.657 692.895 342.831 678.609 342.831 657.832 c 0
 342.831 651.225 342.206 643.962 341 636 c 5
 337 615 325 597 305 576 c 5
 290 561 271 555 247 555 c 4
 212 555 188 562 177 579 c 5
 167.2 592.3 162.3 608.05 162.3 626.25 c 0
 162.3 634.05 163.2 642.3 165 651 c 4
EndSplineSet
EndChar
StartChar: quoteright
Encoding: 146 8217 115
Width: 238
VWidth: 2048
Flags: W
Fore
365 729 m 4
 365.024 727.737 365.036 726.48 365.036 725.227 c 0
 365.036 673.907 345.047 631.095 306 594 c 5
 269 552 230 526 194 518 c 5
 183 540 l 5
 211 561 230 576 242 586 c 4
 258 600 270 621 272 646 c 5
 265.333 644.667 258.556 644 251.815 644 c 0
 238.333 644 225 646.667 213 652 c 4
 195 662 184 680 183 710 c 4
 183 730 192 752 206 772 c 4
 220 792 239 801 264 806 c 4
 275.1 807.8 285.03 808.7 293.898 808.7 c 0
 314.59 808.7 329.5 803.8 340 794 c 5
 355.558 779.357 365.253 761.365 365.253 736.189 c 0
 365.253 733.856 365.17 731.46 365 729 c 4
EndSplineSet
EndChar
StartChar: quotedblleft
Encoding: 147 8220 116
Width: 484
VWidth: 2048
Flags: W
Fore
164 648 m 4
 171 700 197 742 241 777 c 5
 285 812 324 832 360 837 c 5
 369 812 l 5
 339 795 318 783 305 774 c 4
 285 760 274 742 264 717 c 5
 286 717 304 712 321 702 c 4
 334.858 694.301 340.417 678.898 340.417 657.158 c 0
 340.417 650.66 339.921 643.595 339 636 c 4
 337 614 325 596 305 576 c 4
 290 561 270 552 246 552 c 4
 243.249 551.843 240.579 551.766 237.988 551.766 c 0
 207.604 551.766 188.057 562.336 177 578 c 4
 166.988 591.588 161.067 606.199 161.067 624.394 c 0
 161.067 631.64 162.006 639.455 164 648 c 4
395 654 m 4
 402 705 429 747 474 783 c 5
 514 818 554 837 591 843 c 5
 600 818 l 5
 570 801 548 788 534 778 c 4
 517 766 505 747 495 722 c 5
 515 722 534 717 552 706 c 4
 565.099 696.176 570.825 680.99 570.825 657.151 c 0
 570.825 651.87 570.544 646.165 570 640 c 4
 565 618 556 600 538 582 c 4
 522 566 501 558 479 558 c 4
 443 558 418 564 408 584 c 5
 397.918 595.522 392.503 611.194 392.503 630.267 c 0
 392.503 637.679 393.321 645.605 395 654 c 4
EndSplineSet
EndChar
StartChar: quotedblright
Encoding: 148 8221 117
Width: 486
VWidth: 2048
Flags: W
Fore
580 708 m 4
 572 657 547 615 500 582 c 4
 456 548 417 530 381 524 c 5
 373 550 l 5
 404 564 425 578 439 586 c 4
 456 600 470 618 478 642 c 5
 457 642 440 650 424 660 c 4
 410.142 667.699 404.583 682.509 404.583 704.433 c 0
 404.583 710.986 405.079 718.175 406 726 c 4
 411 747 423 766 440 783 c 4
 456 800 476 808 500 808 c 4
 535 808 558 798 570 780 c 5
 579.183 768.193 583.633 754.666 583.633 737.724 c 0
 583.633 728.837 582.409 719.011 580 708 c 4
350 708 m 4
 344 657 315 615 270 582 c 5
 226 548 188 530 150 524 c 5
 143 550 l 5
 172 564 193 578 207 586 c 4
 226 598 237 616 248 642 c 5
 229 642 212 650 192 660 c 4
 179.951 667.531 174.14 682.433 174.14 703.427 c 0
 174.14 710.311 174.765 717.851 176 726 c 4
 181 747 191 766 210 783 c 4
 226 800 247 808 271 808 c 4
 306 808 329 798 340 780 c 5
 349.633 770.367 354.317 757.023 354.317 739.967 c 0
 354.317 730.464 352.863 719.808 350 708 c 4
EndSplineSet
EndChar
StartChar: bullet
Encoding: 149 8226 118
Width: 304
VWidth: 2048
Flags: W
Fore
180 170 m 0
 129 170 92 186 71 219 c 0
 55.875 240.312 48.3125 264.934 48.3125 292.538 c 0
 48.3125 305.086 49.875 318.25 53 332 c 0
 59 362 70 388 88 412 c 0
 108 438 132 459 156 472 c 0
 184 488 215 495 249 495 c 0
 285 495 314 488 334 472 c 0
 355 458 369 438 378 414 c 1
 381.248 399.924 383.031 385.848 383.031 371.138 c 0
 383.031 358.676 381.752 345.759 379 332 c 0
 369 288 345 249 310 218 c 0
 277 186 232 170 180 170 c 0
EndSplineSet
EndChar
StartChar: endash
Encoding: 150 8211 119
Width: 901
VWidth: 2048
Flags: W
HStem: 284 55<15 963>
Fore
16 339 m 1
 975 339 l 1
 963 284 l 1
 4 284 l 1
 16 339 l 1
EndSplineSet
EndChar
StartChar: emdash
Encoding: 151 8212 120
Width: 1804
VWidth: 2048
Flags: W
HStem: 284 55<-39 1868>
Fore
-38 339 m 1
 1880 339 l 1
 1868 284 l 1
 -50 284 l 1
 -38 339 l 1
EndSplineSet
EndChar
StartChar: uni0E31.left
Encoding: 152 63248 121
Width: 0
Flags: W
HStem: 680 80<-140 -112> 856 68<-202 -186>
Fore
-186 924 m 0
 -154 924 -130 914 -114 894 c 0
 -105.55 879.7 -101.325 863.71 -101.325 845.206 c 0
 -101.325 835.242 -102.55 824.55 -105 813 c 0
 -108 801 -111 792 -118 782 c 0
 -122 772 -127 766 -130 760 c 1
 -88 760 -48 771 -9 792 c 0
 31 810 70 849 109 909 c 1
 184 878 l 1
 164 837 136 801 102 772 c 0
 68 742 33 718 -9 704 c 0
 -52 688 -95 680 -140 680 c 0
 -155 680 -167 680 -176 681 c 0
 -222 687 -259 702 -290 724 c 0
 -312.653 741.185 -324.933 762.032 -324.933 788.923 c 0
 -324.933 796.457 -323.97 804.465 -322 813 c 0
 -315 846 -298 872 -275 894 c 0
 -252 914 -222 924 -186 924 c 0
-217 774 m 0
 -204 774 -195 778 -185 786 c 0
 -177 795 -171 806 -169 816 c 0
 -168.038 819.206 -167.59 822.411 -167.59 825.551 c 0
 -167.59 832.206 -169.603 838.564 -173 844 c 0
 -179 852 -187 856 -200 856 c 0
 -214 856 -225 852 -235 844 c 0
 -242 836 -247 826 -250 816 c 0
 -250.667 812.667 -251 809.222 -251 805.778 c 0
 -251 798.889 -249.667 792 -247 786 c 0
 -241 778 -231 774 -217 774 c 0
EndSplineSet
EndChar
StartChar: uni0E4D.left
Encoding: 153 63249 122
Width: 0
Flags: W
HStem: 681 71<-223 -206> 840 70<-191 -175>
Fore
-175 910 m 0
 -139 910 -112 900 -98 876 c 0
 -86.5389 862.629 -81.9699 846.014 -81.9699 827.963 c 0
 -81.9699 817.664 -83.4571 806.898 -86 796 c 0
 -92 766 -107 740 -133 716 c 0
 -157 693 -187 681 -223 681 c 0
 -259 681 -285 693 -301 716 c 0
 -311.082 733.284 -316.497 751.605 -316.497 771.71 c 0
 -316.497 779.522 -315.679 787.605 -314 796 c 0
 -307 826 -290 855 -267 876 c 0
 -243 898 -212 910 -175 910 c 0
-208 752 m 0
 -194 752 -183 756 -173 765 c 0
 -163 772 -157 784 -155 796 c 0
 -153.964 800.143 -153.405 804.166 -153.405 807.947 c 0
 -153.405 815.118 -155.416 821.417 -160 826 c 0
 -166 836 -175 840 -189 840 c 0
 -202 840 -214 837 -224 830 c 0
 -234 820 -240 808 -243 796 c 0
 -243.582 792.508 -243.91 789.016 -243.91 785.647 c 0
 -243.91 777.44 -241.963 769.963 -237 765 c 0
 -231 756 -221 752 -208 752 c 0
EndSplineSet
EndChar
StartChar: uni0E47.left
Encoding: 154 63250 123
Width: 0
Flags: W
HStem: 681 61<-170 -155> 762 76<-316 -292> 795 61<-148 -133> 870 68<-199 -165> 873 69<-287 -260>
Fore
-170 681 m 0
 -185 681 -200 686 -213 693 c 0
 -226 702 -237 712 -250 724 c 0
 -262 735 -271 746 -282 753 c 0
 -293 759 -304 762 -316 762 c 0
 -328 762 -338 754 -351 735 c 0
 -364 717 -371 696 -375 678 c 1
 -396 678 l 1
 -415 690 -433 712 -442 741 c 0
 -450 760.333 -454 780.111 -454 800.037 c 0
 -454 810 -453 820 -451 830 c 0
 -448 844 -444 858 -436 870 c 0
 -418 898 -399 916 -376 927 c 0
 -353 938 -324 942 -286 942 c 0
 -268 942 -254 942 -244 940 c 0
 -208 939 -183 938 -171 938 c 0
 -141 938 -118 942 -106 952 c 0
 -88 962 -77 981 -71 1012 c 1
 7 1012 l 1
 -4 962 -25 926 -56 903 c 0
 -86 882 -130 870 -190 870 c 0
 -219 870 -243 872 -260 873 c 0
 -296 873 -323 868 -339 860 c 0
 -356 850 -367 831 -374 801 c 1
 -371 808 -362 818 -349 825 c 0
 -335 834 -317 838 -292 838 c 0
 -270 838 -254 836 -244 826 c 0
 -234 819 -227 812 -222 807 c 1
 -204 838 -175 856 -133 856 c 0
 -104 856 -84 848 -72 832 c 0
 -63.6795 822.293 -59.6859 808.259 -59.6859 792.231 c 0
 -59.6859 785.143 -60.4669 777.666 -62 770 c 0
 -68 744 -83 722 -100 706 c 0
 -119 690 -143 681 -170 681 c 0
-157 742 m 0
 -150 742 -141 746 -136 752 c 0
 -129 756 -126 760 -124 770 c 0
 -123.775 771.573 -123.652 773.096 -123.652 774.568 c 0
 -123.652 779.646 -125.124 784.124 -129 788 c 0
 -131 794 -139 795 -146 795 c 0
 -155 795 -160 792 -167 786 c 0
 -173 782 -175 774 -176 770 c 0
 -176.828 766.686 -177.314 763.716 -177.314 761.088 c 0
 -177.314 757.373 -176.343 754.343 -174 752 c 0
 -169 746 -166 742 -157 742 c 0
EndSplineSet
EndChar
StartChar: uni0E48.left
Encoding: 155 63251 124
Width: 0
Flags: W
DStem: -81 1248 9 1248 -123 1048 -33 1048
Fore
-123 1048 m 1
 -81 1248 l 1
 9 1248 l 1
 -33 1048 l 1
 -123 1048 l 1
EndSplineSet
EndChar
StartChar: uni0E49.left
Encoding: 156 63252 125
Width: 0
Flags: W
HStem: 1190 60<-134 -120>
Fore
-46 1155 m 0
 -57 1126 -63 1107 -71 1095 c 0
 -80 1083 -87 1074 -90 1072 c 1
 -88 1072 -81 1074 -68 1078 c 0
 -55 1082 -42 1086 -27 1095 c 0
 -11 1104 1 1113 13 1125 c 0
 25 1143 37 1160 42 1176 c 0
 47 1191 54 1214 60 1242 c 1
 138 1242 l 1
 115 1136 67 1065 -5 1034 c 0
 -52 1014 -100 1005 -146 1005 c 0
 -161 1005 -174 1006 -186 1008 c 0
 -197 1010 -205 1010 -211 1012 c 1
 -205 1041 l 1
 -199 1042 -193 1047 -182 1053 c 0
 -174 1058 -168 1065 -165 1072 c 1
 -166 1072 -177 1074 -190 1080 c 0
 -205 1084 -215 1095 -222 1110 c 0
 -225.986 1118.54 -227.703 1128.06 -227.703 1138.18 c 0
 -227.703 1145.83 -226.722 1153.82 -225 1162 c 0
 -220 1186 -208 1208 -187 1224 c 0
 -168 1240 -144 1250 -120 1250 c 0
 -90 1250 -69 1239 -56 1221 c 0
 -49.1416 1205 -44.606 1188.41 -44.606 1171.25 c 0
 -44.606 1165.89 -45.0482 1160.47 -46 1155 c 0
-146 1132 m 0
 -127 1132 -114 1143 -110 1161 c 0
 -109.442 1163.51 -109.195 1165.79 -109.195 1167.9 c 0
 -109.195 1173.35 -110.838 1177.68 -113 1182 c 0
 -117 1186 -125 1190 -134 1190 c 0
 -141 1190 -152 1186 -157 1182 c 0
 -164 1176 -167 1170 -169 1161 c 0
 -169.172 1159.97 -169.255 1158.91 -169.255 1157.82 c 0
 -169.255 1152.57 -167.314 1146.63 -164 1140 c 0
 -161 1136 -153 1132 -146 1132 c 0
EndSplineSet
EndChar
StartChar: uni0E4A.left
Encoding: 157 63253 126
Width: 0
Flags: W
HStem: 1010 50<-239 -229> 1104 48<-221 -201> 1182 58<-201 -181>
Fore
-239 1010 m 0
 -268 1012 -288 1024 -301 1048 c 0
 -309.54 1062.64 -313.243 1079.14 -313.243 1097.28 c 0
 -313.243 1108.87 -311.73 1121.13 -309 1134 c 1
 -300 1166 -284 1191 -265 1210 c 0
 -246 1230 -219 1240 -190 1240 c 0
 -178 1240 -167 1239 -159 1236 c 0
 -136 1221 l 0
 -134 1215 -130 1212 -130 1212 c 1
 -130 1212 l 1
 -128 1216 -118 1222 -105 1230 c 0
 -93 1238 -78 1240 -63 1240 c 0
 -34 1240 -14 1233 -4 1215 c 0
 3.26279 1203.78 7.03811 1189.5 7.03811 1173.04 c 0
 7.03811 1164.56 6.03848 1155.51 4 1146 c 0
 -2 1119 -15 1094 -32 1071 c 1
 -27 1072 -20 1078 -9 1086 c 0
 1 1094 10 1101 17 1110 c 0
 34 1132 46 1155 51 1179 c 0
 52.5352 1188.21 54.6596 1200.37 54.6596 1211.85 c 0
 54.6596 1215.33 54.4648 1218.75 54 1222 c 1
 123 1244 l 1
 124.046 1239.12 124.484 1234.12 124.484 1229.04 c 0
 124.484 1219.54 122.954 1209.77 121 1200 c 0
 111 1152 90 1112 60 1080 c 0
 38 1056 13 1041 -17 1032 c 0
 -46 1024 -81 1020 -121 1020 c 1
 -120 1026 -119 1029 -118 1034 c 0
 -118 1040 -118 1042 -116 1047 c 1
 -110 1053 -102 1060 -90 1072 c 0
 -80 1084 -74 1101 -65 1124 c 0
 -63.6458 1130.32 -63.1066 1136.64 -63.1066 1142.78 c 0
 -63.1066 1150.23 -63.9028 1157.42 -65 1164 c 0
 -66 1174 -75 1179 -89 1179 c 0
 -100 1179 -110 1176 -117 1172 c 0
 -127 1166 -133 1162 -135 1158 c 1
 -135 1158 l 1
 -134.785 1158.43 -134.662 1158.81 -134.662 1159.18 c 0
 -134.662 1160.52 -136.292 1161.65 -141 1164 c 0
 -146 1168 -153 1172 -160 1176 c 0
 -167 1179 -178 1182 -189 1182 c 0
 -214 1182 -229 1170 -236 1148 c 1
 -234 1149 -228 1149 -222 1150 c 0
 -215 1152 -209 1152 -201 1152 c 0
 -181 1152 -166 1146 -158 1132 c 0
 -152.214 1123.64 -149.321 1112.81 -149.321 1100.02 c 0
 -149.321 1092.92 -150.214 1085.21 -152 1077 c 0
 -156 1059 -166 1044 -183 1030 c 0
 -201 1017 -219 1010 -239 1010 c 0
-221 1104 m 0
 -236 1104 -245 1096 -248 1083 c 0
 -248.55 1080.25 -248.831 1077.74 -248.831 1075.46 c 0
 -248.831 1065.34 -243.251 1060 -231 1060 c 0
 -216 1060 -207 1068 -204 1083 c 0
 -203.45 1085.38 -203.169 1087.6 -203.169 1089.63 c 0
 -203.169 1098.66 -208.749 1104 -221 1104 c 0
EndSplineSet
EndChar
StartChar: uni0E4B.left
Encoding: 158 63254 127
Width: 0
Flags: W
HStem: 1092 78<-180 -110 -9 60>
Fore
-110 1092 m 1
 -196 1092 l 1
 -179 1170 l 1
 -93 1170 l 1
 -78 1244 l 1
 6 1244 l 1
 -9 1170 l 1
 77 1170 l 1
 60 1092 l 1
 -26 1092 l 1
 -42 1018 l 1
 -126 1018 l 1
 -110 1092 l 1
EndSplineSet
EndChar
StartChar: uni0E4C.left
Encoding: 159 63255 128
Width: 0
Flags: W
HStem: 960 57<-219 -211>
Fore
-55 1138 m 0
 -97 1132 -127 1132 -147 1131 c 0
 -165 1130 -177 1130 -182 1130 c 0
 -156 1130 -140 1122 -128 1107 c 0
 -119.958 1094.94 -113.855 1079.64 -113.855 1063.71 c 0
 -113.855 1059.83 -114.217 1055.92 -115 1052 c 0
 -120 1026 -133 1004 -152 987 c 0
 -170 969 -192 960 -219 960 c 0
 -222.701 959.692 -226.266 959.542 -229.699 959.542 c 0
 -259.656 959.542 -279.645 970.954 -294 988 c 0
 -305.275 1000.68 -311.088 1016.35 -311.088 1036.39 c 0
 -311.088 1044.79 -310.067 1053.96 -308 1064 c 0
 -296 1119 -266 1158 -216 1178 c 0
 -194 1186 -164 1194 -128 1196 c 0
 -94 1197 -69 1202 -52 1208 c 0
 -34 1212 -25 1227 -20 1251 c 1
 50 1251 l 1
 44 1222 32 1197 14 1178 c 0
 -2 1158 -25 1143 -55 1138 c 0
-201 1072 m 0
 -219 1072 -230 1065 -234 1046 c 0
 -234.487 1043.08 -234.737 1040.34 -234.737 1037.81 c 0
 -234.737 1024.72 -228.079 1017 -213 1017 c 0
 -194 1017 -183 1028 -180 1046 c 0
 -179.292 1048.48 -178.959 1050.83 -178.959 1053.11 c 0
 -178.959 1057.25 -180.063 1061.13 -182 1065 c 0
 -187 1070 -192 1072 -201 1072 c 0
EndSplineSet
EndChar
StartChar: uni0E01
Encoding: 161 3585 130
Width: 624
Flags: W
HStem: 0 21G<94 195 446 544> 516 74<412 439>
DStem: 153 279 256 286 94 0 195 0 529 392 629 400 446 0 544 0
Fore
234 405 m 1
 228 408 216 414 197 418 c 0
 180 423 159 429 135 430 c 1
 142 462 l 1
 147 468 155 477 168 488 c 0
 181 500 201 513 227 531 c 0
 251 546 284 561 320 573 c 0
 355 585 395 590 439 590 c 0
 485 590 523 584 553 570 c 0
 584 555 608 534 621 506 c 0
 629.665 488.05 634.117 467.802 634.117 445.018 c 0
 634.117 430.992 632.429 416.004 629 400 c 2
 544 0 l 1
 446 0 l 1
 529 392 l 2
 531.554 403.351 532.819 414.138 532.819 424.201 c 0
 532.819 449.601 524.757 470.392 509 484 c 0
 488 507 456 516 414 516 c 0
 366 516 314 500 262 471 c 1
 268 470 273 468 283 466 c 0
 295 465 308 459 323 454 c 0
 339 447 355 440 367 428 c 1
 357 380 l 1
 339 380 320 375 299 363 c 0
 279 351 264 326 256 286 c 2
 195 0 l 1
 94 0 l 1
 153 279 l 2
 160 312 171 338 182 356 c 0
 196 375 212 392 234 405 c 1
EndSplineSet
EndChar
StartChar: uni0E02
Encoding: 162 3586 131
Width: 610
Flags: W
HStem: 0 88<172 411> 327 69<204 220> 484 107<237 320>
DStem: 277 261 378 264 241 88 341 88 552 576 653 576 459 138 554 110
Fore
388 432 m 1
 389.889 440.816 390.787 449.038 390.787 456.571 c 0
 390.787 472.962 386.536 486.093 379 495 c 0
 368 507 353 513 336 516 c 1
 339 510 342 501 344 490 c 0
 345.392 483.967 346.138 477.072 346.138 469.615 c 0
 346.138 461.005 345.144 451.646 343 442 c 0
 335 408 318 381 295 360 c 0
 267 338 238 327 204 327 c 0
 169 327 142 339 127 362 c 0
 113.413 376.302 106.985 394.695 106.985 415.716 c 0
 106.985 424.091 108.006 432.883 110 442 c 0
 117 474 132 501 153 524 c 0
 176 546 200 562 230 574 c 0
 260 586 291 591 320 591 c 0
 375 591 418 576 444 546 c 0
 466.313 522.918 476.786 496.284 476.786 467.01 c 0
 476.786 458.235 475.845 449.224 474 440 c 0
 469 417 463 399 456 387 c 0
 447 374 437 360 425 346 c 0
 410 330 402 318 394 309 c 0
 387 297 382 284 378 264 c 2
 341 88 l 1
 405 88 l 2
 425 88 438 92 443 96 c 0
 451 104 455 117 459 138 c 2
 552 576 l 1
 653 576 l 1
 554 110 l 2
 545 64 528 36 503 22 c 0
 479 8 440 0 386 0 c 2
 154 0 l 1
 173 88 l 1
 241 88 l 1
 277 261 l 2
 282 282 288 298 297 312 c 0
 305 324 318 339 333 354 c 0
 348 369 359 381 367 390 c 0
 373 399 379 414 388 432 c 1
218 396 m 0
 232 396 244 402 255 410 c 0
 263 418 269 429 272 441 c 0
 272.633 444.799 272.966 448.599 272.966 452.24 c 0
 272.966 460.098 271.417 467.216 268 472 c 0
 261 482 251 484 237 484 c 0
 223 484 212 480 202 471 c 0
 191 462 186 453 184 441 c 0
 182.964 436.858 182.405 432.834 182.405 429.012 c 0
 182.405 421.763 184.416 415.238 189 410 c 0
 195 402 204 396 218 396 c 0
EndSplineSet
EndChar
StartChar: uni0E03
Encoding: 163 3587 132
Width: 675
Flags: W
HStem: 0 88<237 486> 250 68<207 223> 406 68<237 255>
DStem: 364 356 461 348 307 88 406 88 618 576 718 576 525 138 625 138
Fore
207 250 m 0
 163 250 134 264 118 292 c 0
 107.614 310.824 102.285 332.176 102.285 356.877 c 0
 102.285 370.23 103.842 384.561 107 400 c 0
 109 410 113 426 121 446 c 0
 130 478 149 504 174 525 c 0
 196 548 222 564 245 576 c 0
 272 588 292 594 306 594 c 1
 363 558 l 1
 442 594 l 1
 471 588 497 574 519 552 c 0
 536.633 535.9 545.45 517.449 545.45 496.647 c 0
 545.45 490.316 544.633 483.767 543 477 c 0
 539 458 532 441 520 429 c 0
 509 417 496 406 484 394 c 0
 473 382 465 366 461 348 c 2
 406 88 l 1
 471 88 l 2
 491 88 504 92 510 96 c 0
 517 104 521 117 525 138 c 2
 618 576 l 1
 718 576 l 1
 625 138 l 2
 615 88 597 52 579 32 c 0
 558 10 522 0 471 0 c 2
 219 0 l 1
 238 88 l 1
 307 88 l 1
 364 356 l 2
 374 405 397 438 437 456 c 1
 451 465 460 471 462 480 c 0
 462.369 481.477 462.557 482.985 462.557 484.515 c 0
 462.557 495.417 453.045 507.477 432 518 c 1
 346 480 l 1
 275 518 l 1
 255 513 240 506 227 494 c 0
 216 482 206 471 203 462 c 1
 205 465 211 468 218 470 c 0
 228 472 241 474 255 474 c 0
 278 474 296 470 311 459 c 0
 327 452 336 438 340 422 c 0
 343.875 411.668 346.081 400.502 346.081 388.502 c 0
 346.081 381.919 345.417 375.085 344 368 c 0
 339 334 321 304 297 284 c 0
 273 261 243 250 207 250 c 0
221 318 m 0
 236 318 247 324 255 332 c 0
 266 340 271 351 273 363 c 0
 274.139 367.558 274.846 372.115 274.846 376.399 c 0
 274.846 383.394 272.962 389.659 268 394 c 0
 264 404 254 406 239 406 c 0
 226 406 214 402 204 393 c 0
 194 386 188 375 185 363 c 0
 184.418 359.508 184.09 356.101 184.09 352.828 c 0
 184.09 344.852 186.037 337.672 191 332 c 0
 198 324 208 318 221 318 c 0
EndSplineSet
EndChar
StartChar: uni0E04
Encoding: 164 3588 133
Width: 619
Flags: W
HStem: 0 21G<134 234 441 538> 218 68<328 343> 376 70<362 377> 518 78<398 423>
DStem: 155 100 282 226 134 0 234 0 523 387 621 392 441 0 538 0
Fore
328 218 m 0
 322 218 313 219 302 220 c 0
 288 224 282 225 282 226 c 2
 234 0 l 1
 134 0 l 1
 155 100 l 2
 158.515 115.23 159.971 128.745 159.971 141.951 c 0
 159.971 151.289 159.243 160.473 158 170 c 0
 154 190 147 213 138 238 c 0
 126 264 123 288 118 310 c 0
 116.923 317.896 116.362 326.049 116.362 334.645 c 0
 116.362 350 118.153 366.767 122 386 c 0
 133 430 153 468 186 500 c 0
 217 532 252 556 294 572 c 0
 337 586 379 596 423 596 c 0
 465 596 501 588 538 573 c 0
 571 558 596 534 613 504 c 0
 621.231 483.74 625.854 461.475 625.854 436.952 c 0
 625.854 422.742 624.302 407.775 621 392 c 2
 538 0 l 1
 441 0 l 1
 523 387 l 2
 525.382 398.118 526.574 408.465 526.574 418.096 c 0
 526.574 444.851 517.382 466.088 499 483 c 0
 476 506 442 518 400 518 c 0
 356 518 316 506 279 482 c 0
 239 456 216 423 207 381 c 0
 204.019 366.689 202.104 353.445 202.104 340.419 c 0
 202.104 331.6 202.981 322.882 205 314 c 0
 207 296 208 286 209 286 c 1
 209 286 209 286 209 288 c 0
 216 318 233 352 259 388 c 0
 284 423 324 444 377 446 c 0
 410 446 434 435 452 414 c 0
 463.425 399.215 468.075 381.72 468.075 362.122 c 0
 468.075 352.558 466.968 342.494 465 332 c 0
 458 300 444 274 418 252 c 0
 393 231 363 219 328 218 c 0
343 286 m 0
 358 286 370 291 379 300 c 0
 388 309 394 318 397 332 c 0
 397.606 335.633 397.936 339.267 397.936 342.789 c 0
 397.936 350.9 396.183 358.422 392 364 c 0
 387 374 377 376 362 376 c 0
 348 376 337 370 326 363 c 0
 315 354 310 344 308 332 c 0
 306.964 328.203 306.405 324.286 306.405 320.415 c 0
 306.405 313.073 308.416 305.893 313 300 c 0
 320 291 329 286 343 286 c 0
EndSplineSet
EndChar
StartChar: uni0E05
Encoding: 165 3589 134
Width: 619
Flags: W
HStem: 0 21G<134 234 441 538> 218 68<328 343> 376 70<362 377>
DStem: 155 100 282 226 134 0 234 0 523 388 621 392 441 0 538 0
Fore
338 586 m 1
 419 549 l 1
 521 586 l 1
 552 578 577 561 594 538 c 0
 611 518 623 494 624 466 c 0
 625.468 456.458 626.128 446.916 626.128 437.571 c 0
 626.128 421.454 624.165 405.926 621 392 c 2
 538 0 l 1
 441 0 l 1
 523 388 l 2
 527.9 408.3 530.35 425.66 530.35 439.737 c 0
 530.35 445.77 529.9 451.2 529 456 c 0
 528 471 515 486 496 500 c 1
 401 468 l 1
 326 506 l 1
 293 494 268 478 245 456 c 0
 226 434 213 408 207 381 c 0
 204.019 366.689 202.104 353.445 202.104 340.419 c 0
 202.104 331.6 202.981 322.882 205 314 c 0
 207 296 208 286 209 286 c 1
 209 286 209 286 209 288 c 0
 216 318 233 352 259 388 c 0
 284 423 324 444 377 446 c 0
 410 446 434 435 452 414 c 0
 463.425 399.215 468.075 381.72 468.075 362.122 c 0
 468.075 352.558 466.968 342.494 465 332 c 0
 458 300 444 274 418 252 c 0
 393 231 363 219 328 218 c 0
 322 218 313 219 302 220 c 0
 288 224 282 225 282 226 c 2
 234 0 l 1
 134 0 l 1
 155 100 l 2
 158.515 115.23 159.971 128.745 159.971 141.951 c 0
 159.971 151.289 159.243 160.473 158 170 c 0
 154 190 147 213 138 238 c 0
 126 264 123 288 118 310 c 0
 116.923 317.896 116.362 326.049 116.362 334.645 c 0
 116.362 350 118.153 366.767 122 386 c 0
 145 484 217 550 338 586 c 1
343 286 m 0
 358 286 370 291 379 300 c 0
 388 309 394 318 397 332 c 0
 397.606 335.633 397.936 339.267 397.936 342.789 c 0
 397.936 350.9 396.183 358.422 392 364 c 0
 387 374 377 376 362 376 c 0
 348 376 337 370 326 363 c 0
 315 354 310 344 308 332 c 0
 306.964 328.203 306.405 324.286 306.405 320.415 c 0
 306.405 313.073 308.416 305.893 313 300 c 0
 320 291 329 286 343 286 c 0
EndSplineSet
EndChar
StartChar: uni0E06
Encoding: 166 3590 135
Width: 775
Flags: W
HStem: -12 76<278 289> 0 21G<597 694> 246 66<211 224> 402 66<241 258>
DStem: 332 188 431 184 311 88 411 88 719 576 816 576 631 160 694 0
Fore
464 340 m 2
 449 266 l 1
 473 262 497 258 523 246 c 0
 548 236 571 219 591 204 c 0
 612 188 625 172 631 160 c 1
 719 576 l 1
 816 576 l 1
 694 0 l 1
 597 0 l 1
 597.292 1.31308 597.435 2.83903 597.435 4.57783 c 0
 597.435 14.757 592.541 32.231 584 57 c 0
 573 87 556 116 530 141 c 0
 505 166 472 180 431 184 c 1
 411 88 l 2
 405 60 389 36 366 16 c 0
 344 -2 315 -12 283 -12 c 0
 245 -12 216 2 200 27 c 0
 187.252 44.7051 180.523 64.918 180.523 87.9938 c 0
 180.523 97.5016 181.666 107.495 184 118 c 0
 192 156 211 188 241 218 c 0
 271 246 306 262 349 266 c 1
 367 351 l 2
 377 400 402 432 442 452 c 0
 454 456 463 465 464 472 c 0
 464.373 473.741 464.561 475.482 464.561 477.219 c 0
 464.561 489.451 455.264 501.492 436 512 c 1
 350 474 l 1
 279 512 l 1
 260 508 244 500 229 486 c 0
 214 471 204 459 200 452 c 1
 203 454 211 458 221 460 c 0
 231 465 243 466 258 468 c 0
 291 468 316 458 331 438 c 0
 344.5 422.25 351.25 404.25 351.25 383.578 c 0
 351.25 376.688 350.5 369.5 349 362 c 0
 343 328 325 302 297 279 c 0
 273 258 242 246 211 246 c 0
 169 248 137 261 123 286 c 0
 111.596 304.783 105.592 327.167 105.592 352.547 c 0
 105.592 365 107.037 378.175 110 392 c 0
 115 412 119 428 124 440 c 0
 140 482 167 518 209 546 c 0
 250 573 283 586 309 586 c 1
 366 552 l 1
 447 586 l 1
 475 584 501 570 522 548 c 0
 540.645 530.132 549.03 511.056 549.03 489.836 c 0
 549.03 483.741 548.339 477.47 547 471 c 0
 544 458 541 446 533 435 c 0
 526 428 518 417 506 406 c 0
 494 394 486 387 479 378 c 0
 471 369 468 356 464 340 c 2
265 80 m 0
 267 69 275 64 287 64 c 0
 300 64 308 74 311 88 c 2
 332 188 l 1
 318 186 302 178 287 165 c 0
 274 148 265 134 262 117 c 0
 260.875 112.5 260.312 107.859 260.312 103.184 c 0
 260.312 95.3906 261.875 87.5 265 80 c 0
222 312 m 0
 236 312 247 316 257 326 c 0
 267 334 273 344 276 357 c 0
 276.633 360.799 276.966 364.499 276.966 368.034 c 0
 276.966 375.665 275.417 382.533 272 388 c 0
 266 396 256 402 241 402 c 0
 227 402 216 396 205 388 c 0
 197 380 190 369 188 357 c 0
 187.367 353.517 187.034 349.934 187.034 346.409 c 0
 187.034 338.802 188.583 331.467 192 326 c 0
 199 316 208 312 222 312 c 0
EndSplineSet
EndChar
StartChar: uni0E07
Encoding: 167 3591 136
Width: 493
Flags: W
HStem: -16 84<307 320> 360 68<374 392> 518 68<405 422>
DStem: 93 362 182 412 215 39 220 315 93 362 220 315 215 39 274 172 392 362 516 478 336 100 431 82
Fore
422 586 m 0
 455 586 482 576 499 556 c 0
 512.673 540.168 518.578 522.264 518.578 502.288 c 0
 518.578 494.507 517.682 486.411 516 478 c 2
 431 82 l 2
 425 51 410 27 388 10 c 0
 361 -9 336 -16 307 -16 c 0
 261 -16 230 2 215 39 c 2
 93 362 l 1
 182 412 l 1
 191 390 204 357 220 315 c 0
 236 273 254 225 274 172 c 0
 294 120 304 93 304 92 c 0
 307 76 314 68 318 68 c 0
 324 68 332 78 336 100 c 2
 392 362 l 1
 392 362 391 362 387 362 c 0
 385 360 379 360 374 360 c 0
 338 360 313 370 296 393 c 0
 284.664 409.295 279.352 427.097 279.352 446.76 c 0
 279.352 454.85 280.251 463.255 282 472 c 0
 289 504 305 531 329 552 c 0
 354 574 386 586 422 586 c 0
388 428 m 0
 403 428 414 432 422 441 c 0
 433 448 438 459 440 472 c 0
 441.187 476.748 441.904 481.495 441.904 486.119 c 0
 441.904 493.182 440.23 499.956 436 506 c 0
 431 513 422 518 407 518 c 0
 394 518 382 512 371 504 c 0
 361 495 355 484 352 472 c 0
 351.418 468.508 351.09 465.016 351.09 461.647 c 0
 351.09 453.44 353.037 445.963 358 441 c 0
 365 432 375 428 388 428 c 0
EndSplineSet
EndChar
StartChar: uni0E08
Encoding: 168 3592 137
Width: 583
Flags: W
HStem: -8 72<394 410> 172 71<237 254> 330 70<268 285> 507 79<380 403>
DStem: 489 393 588 396 425 94 529 116
Fore
529 116 m 2
 518 66 501 32 475 16 c 0
 454 2 427 -8 394 -8 c 0
 367 -8 348 0 333 14 c 0
 318 26 310 46 307 75 c 0
 306 93 304 118 304 147 c 0
 302 177 302 192 301 192 c 1
 298 188 289 184 281 180 c 0
 269 174 256 172 237 172 c 0
 202 174 174 184 161 207 c 0
 150.019 222.785 144.691 239.982 144.691 258.916 c 0
 144.691 267.571 145.804 276.589 148 286 c 0
 154 315 169 342 195 366 c 0
 217 388 250 400 285 400 c 0
 345 400 381 370 385 315 c 0
 396.504 182.26 400.177 106.687 400.177 90.3596 c 0
 400.177 88.2365 400.115 87.1151 400 87 c 0
 401 70 404 64 408 64 c 0
 414 64 421 75 425 94 c 2
 489 393 l 2
 491.263 404.597 492.406 415.154 492.406 424.739 c 0
 492.406 449.04 485.06 467.091 470 480 c 0
 448 498 418 507 382 507 c 0
 312 507 245 474 182 412 c 1
 129 458 l 1
 200 544 291 586 403 586 c 0
 469 586 520 570 555 537 c 0
 581.007 514.605 593.445 483.338 593.445 444.33 c 0
 593.445 429.342 591.609 413.21 588 396 c 2
 529 116 l 2
252 243 m 0
 268 243 277 246 288 255 c 0
 296 262 302 274 305 286 c 0
 305.667 290 306 294 306 297.852 c 0
 306 305.556 304.667 312.667 302 318 c 0
 295 327 286 330 270 330 c 0
 254 330 243 326 235 316 c 0
 225 309 219 298 217 286 c 0
 215.964 281.858 215.405 277.953 215.405 274.288 c 0
 215.405 267.334 217.416 261.238 222 256 c 0
 230 248 238 243 252 243 c 0
EndSplineSet
EndChar
StartChar: uni0E09
Encoding: 169 3593 138
Width: 673
Flags: W
HStem: -12 74<534 569> 0 21G<156 250> 162 70<175 191> 322 70<208 224> 510 80<414 440>
DStem: 484 190 583 190 461 81 560 82 528 394 627 396 500 262 599 262
Fore
224 392 m 0
 255 392 279 381 297 363 c 0
 311.576 348.424 319.089 329.729 319.089 309.171 c 0
 319.089 302.931 318.397 296.52 317 290 c 2
 288 153 l 1
 313 182 345 204 385 222 c 0
 421 240 460 255 500 262 c 1
 528 394 l 2
 530.334 405.088 531.477 415.495 531.477 425.172 c 0
 531.477 448.656 524.748 467.836 512 482 c 0
 493 501 460 510 416 510 c 0
 386 510 354 500 321 482 c 0
 288 462 259 441 230 414 c 1
 174 459 l 1
 208 498 248 530 295 555 c 0
 341 578 387 590 440 590 c 0
 511 590 563 573 596 538 c 0
 619.959 513.315 632.322 481.249 632.322 442.57 c 0
 632.322 427.975 630.561 412.438 627 396 c 2
 599 262 l 1
 632 256 655 238 669 212 c 0
 676.594 194.28 681.786 175.358 681.786 153.968 c 0
 681.786 141.558 680.039 128.318 676 114 c 0
 668 76 650 46 623 24 c 0
 597 0 567 -12 534 -12 c 0
 509 -12 491 -4 474 10 c 0
 463.918 21.5225 458.503 37.1939 458.503 56.6408 c 0
 458.503 64.1977 459.321 72.3248 461 81 c 2
 484 190 l 1
 430 177 380 152 337 116 c 0
 293 80 265 40 250 0 c 1
 156 0 l 1
 191 166 l 1
 189 166 188 166 183 165 c 0
 181 162 178 162 175 162 c 0
 140 165 116 177 99 198 c 0
 88.9877 213.734 83.067 231.513 83.067 251.339 c 0
 83.067 259.235 84.0062 267.455 86 276 c 0
 92 308 110 334 133 356 c 0
 159 380 188 392 224 392 c 0
611 122 m 0
 612.798 130.54 613.788 138.272 613.788 145.287 c 0
 613.788 153.879 612.303 161.394 609 168 c 0
 602 180 595 186 583 190 c 1
 560 82 l 1
 559.6 79.2 559.4 76.72 559.4 74.544 c 0
 559.4 65.84 562.6 62 569 62 c 0
 574 63 580 66 587 70 c 0
 591 78 596 87 602 96 c 0
 606 105 609 114 611 122 c 0
191 232 m 0
 207 232 218 237 229 246 c 0
 237 255 242 264 245 278 c 0
 246.183 282.733 246.744 287.467 246.744 291.955 c 0
 246.744 298.844 245.422 305.156 243 310 c 0
 236 318 226 322 210 322 c 0
 197 322 185 316 176 309 c 0
 166 300 161 290 158 278 c 0
 157.303 273.82 156.849 269.883 156.849 266.188 c 0
 156.849 259.276 158.438 253.213 163 248 c 0
 168 237 178 232 191 232 c 0
EndSplineSet
EndChar
StartChar: uni0E0A
Encoding: 170 3594 139
Width: 622
Flags: W
HStem: 0 88<188 433> 326 70<223 242> 422 72<482 487>
DStem: 296 264 393 255 259 88 358 88 515 332 615 340 473 138 566 110
Fore
402 434 m 0
 404.753 442.947 405.967 451.421 405.967 459.217 c 0
 405.967 474.076 401.559 486.474 395 495 c 0
 384 510 371 518 356 519 c 1
 359 513 363 504 367 492 c 0
 368 484.5 368.75 476.5 368.75 468.375 c 0
 368.75 460.25 368 452 366 444 c 0
 359 410 342 381 317 360 c 0
 292 338 261 326 223 326 c 0
 187 326 164 338 146 360 c 0
 134.261 374.501 128.721 392.817 128.721 413.959 c 0
 128.721 423.435 129.834 433.478 132 444 c 0
 138 471 151 496 174 519 c 0
 196 540 223 558 250 570 c 0
 278 582 305 588 331 588 c 0
 373 588 409 579 437 561 c 0
 467 543 484 519 486 494 c 1
 499 494 523 501 557 519 c 0
 592 534 631 570 676 626 c 1
 737 579 l 1
 712 540 683 512 654 494 c 0
 625 474 602 462 587 458 c 1
 595 454 604 444 615 428 c 0
 619.117 418.736 621.38 406.558 621.38 391.33 c 0
 621.38 376.971 619.368 359.899 615 340 c 2
 566 110 l 2
 560 78 549 54 540 39 c 0
 530 24 516 14 498 9 c 0
 481 3 454 0 418 0 c 2
 170 0 l 1
 189 88 l 1
 259 88 l 1
 296 264 l 2
 300 284 307 298 315 310 c 0
 323 322 333 336 349 351 c 0
 362 364 372 376 382 387 c 0
 388 396 398 412 402 434 c 0
240 396 m 0
 254 396 265 402 275 410 c 0
 285 418 291 429 294 441 c 0
 294.582 444.492 294.91 447.984 294.91 451.353 c 0
 294.91 459.56 292.963 467.037 288 472 c 0
 282 482 273 484 259 484 c 0
 245 484 234 480 223 471 c 0
 214 462 208 453 206 441 c 0
 205.038 437.153 204.59 433.41 204.59 429.834 c 0
 204.59 422.256 206.603 415.436 210 410 c 0
 217 402 226 396 240 396 c 0
482 422 m 1
 475 400 469 382 461 374 c 0
 455 363 449 352 437 342 c 0
 426 330 419 318 411 308 c 0
 403 296 398 276 393 255 c 2
 358 88 l 1
 415 88 l 2
 437 88 452 92 458 96 c 0
 464 104 469 117 473 138 c 2
 515 332 l 2
 517.846 346.635 519.369 359.286 519.369 369.954 c 0
 519.369 385.53 516.122 396.878 509 404 c 0
 500 416 490 422 482 422 c 1
EndSplineSet
EndChar
StartChar: uni0E0B
Encoding: 171 3595 140
Width: 658
Flags: W
HStem: 0 88<224 461> 250 68<199 212> 406 68<226 247>
DStem: 334 273 429 255 295 88 394 88 553 332 651 340 511 138 602 110
Fore
435 594 m 1
 456 591 479 579 500 560 c 0
 519.225 538.852 531.058 519.553 531.058 496.772 c 0
 531.058 495.854 531.039 494.93 531 494 c 1
 543 495 566 504 599 522 c 0
 632 538 668 573 711 626 c 1
 774 579 l 1
 749 540 723 512 693 494 c 0
 663 474 641 462 627 458 c 1
 634 454 642 444 652 428 c 0
 655.882 418.294 657.88 406.705 657.88 392.774 c 0
 657.88 377.998 655.632 360.589 651 340 c 2
 602 110 l 2
 593 64 579 34 560 21 c 0
 540 8 506 0 456 0 c 2
 206 0 l 1
 225 88 l 1
 295 88 l 1
 334 273 l 2
 338 291 344 308 353 318 c 0
 360 327 370 339 387 354 c 0
 402 368 413 380 422 390 c 0
 431 402 438 416 443 434 c 0
 446.397 448.948 448.41 461.126 448.41 471.161 c 0
 448.41 475.896 447.962 480.153 447 484 c 0
 444 496 436 507 422 518 c 1
 338 480 l 1
 266 518 l 1
 247 513 230 506 219 494 c 0
 207 482 199 471 194 462 c 1
 198 465 203 468 210 470 c 0
 217 472 230 474 247 474 c 0
 269 474 286 470 304 459 c 0
 316 452 327 438 333 422 c 0
 335.097 410.815 337.683 398.653 337.683 385.513 c 0
 337.683 379.857 337.204 374.019 336 368 c 0
 331 336 313 308 287 285 c 0
 263 262 233 250 199 250 c 0
 157 250 125 264 108 292 c 0
 97.6142 311.473 92.2846 333.053 92.2846 357.561 c 0
 92.2846 370.809 93.842 384.912 97 400 c 0
 99 410 105 426 110 446 c 0
 122 474 138 501 162 524 c 0
 185 546 212 564 236 576 c 0
 263 588 282 594 296 594 c 1
 355 558 l 1
 367 562 384 572 405 579 c 0
 425 588 435 594 435 594 c 1
518 422 m 1
 512 404 504 388 497 378 c 0
 490 366 482 356 473 346 c 0
 463 334 455 322 447 309 c 0
 439 296 434 276 429 255 c 2
 394 88 l 1
 451 88 l 2
 473 88 488 92 492 96 c 0
 500 104 507 117 511 138 c 2
 553 332 l 2
 555.494 344.829 556.719 356.133 556.719 365.914 c 0
 556.719 383.581 552.724 396.276 545 404 c 0
 535 416 525 422 518 422 c 1
210 318 m 0
 226 318 237 324 248 332 c 0
 255 340 261 351 263 363 c 0
 264.183 367.733 264.744 372.467 264.744 376.893 c 0
 264.744 383.689 263.422 389.761 261 394 c 0
 254 404 244 406 228 406 c 0
 215 406 203 402 194 393 c 0
 184 386 179 375 176 363 c 0
 175.303 358.82 174.849 354.761 174.849 350.909 c 0
 174.849 343.701 176.438 337.213 181 332 c 0
 187 324 197 318 210 318 c 0
EndSplineSet
EndChar
StartChar: uni0E0C
Encoding: 172 3596 141
Width: 810
Flags: W
HStem: -10 62<202 217 418 429> 0 21G<630 729> 144 63<237 250> 520 70<401 439>
DStem: 502 434 597 418 456 216 553 210 752 576 851 576 659 135 729 0
Fore
522 68 m 2
 518 46 507 27 489 12 c 0
 470 -3 446 -10 418 -10 c 0
 390 -10 369 0 358 21 c 0
 351.977 32.4442 348.856 47.1535 348.856 64.0354 c 0
 348.856 75.1814 350.216 87.2744 353 100 c 0
 359 129 372 154 388 174 c 0
 404 194 425 207 456 216 c 1
 502 434 l 2
 503.485 440.434 504.235 446.622 504.235 452.506 c 0
 504.235 470.398 497.298 485.464 483 496 c 0
 465 512 436 519 401 520 c 0
 385 520 362 518 332 508 c 0
 301 500 276 488 260 472 c 1
 271 471 287 468 310 459 c 0
 330 453 350 442 367 428 c 1
 357 380 l 1
 339 380 320 375 299 363 c 0
 279 351 264 326 256 286 c 2
 239 206 l 1
 240 207 240 207 242 207 c 0
 248 207 l 0
 269 207 289 201 303 192 c 0
 317 182 327 168 332 152 c 0
 334.639 142.498 335.885 133.276 335.885 124.037 c 0
 335.885 115.774 334.889 107.498 333 99 c 0
 329 80 322 63 310 46 c 0
 297 28 281 15 263 4 c 0
 245 -4 223 -10 202 -10 c 0
 168 -10 142 0 128 22 c 0
 117.988 36.3033 112.067 53.6755 112.067 74.1164 c 0
 112.067 82.2575 113.006 90.8854 115 100 c 2
 153 279 l 2
 160 312 171 338 182 356 c 0
 196 375 212 392 234 405 c 1
 228 408 216 414 197 418 c 0
 180 423 160 429 135 430 c 1
 142 462 l 1
 160 484 195 510 244 543 c 0
 294 574 359 590 439 590 c 0
 476 590 506 585 530 573 c 0
 553 561 570 548 581 531 c 0
 592 512 599 494 599 474 c 0
 600.381 467.093 600.928 460.305 600.928 453.678 c 0
 600.928 441.115 598.964 429.129 597 418 c 2
 553 210 l 1
 574 206 590 196 605 184 c 0
 622 172 635 165 643 156 c 0
 652 147 657 141 659 135 c 1
 752 576 l 1
 851 576 l 1
 729 0 l 1
 630 0 l 1
 626 18 618 44 604 75 c 0
 588 105 567 126 536 134 c 1
 522 68 l 2
217 52 m 0
 224 52 233 54 244 60 c 0
 251 64 258 69 262 76 c 0
 266 82 269 90 271 99 c 0
 272.139 103.937 272.846 108.586 272.846 112.947 c 0
 272.846 120.067 270.962 126.418 266 132 c 0
 261 141 251 144 237 144 c 0
 221 144 210 140 199 130 c 0
 188 122 181 110 179 99 c 0
 178.1 95.4 177.65 91.89 177.65 88.524 c 0
 177.65 80.67 180.1 73.6 185 68 c 0
 192 57 201 52 217 52 c 0
438 57 m 1
 458 152 l 1
 441 148 430 142 422 134 c 0
 417 126 411 112 407 93 c 0
 405.817 88.2666 405.256 83.6888 405.256 79.4507 c 0
 405.256 72.9445 406.578 67.2389 409 63 c 0
 413 54 419 50 427 50 c 0
 431 50 434 52 438 57 c 1
EndSplineSet
EndChar
StartChar: uni0E0D
Encoding: 173 3597 142
Width: 810
Flags: W
HStem: -88 62<421 436> -52 20G<621 719> -10 62<202 217> 0 88<372 623> 144 63<237 250> 520 70<401 439>
DStem: 502 434 597 418 429 88 527 88 752 576 851 576 659 138 752 110
Fore
851 576 m 1
 752 110 l 2
 746 78 735 54 724 39 c 0
 711 24 695 14 676 9 c 0
 655 3 626 0 590 0 c 2
 354 0 l 1
 373 88 l 1
 429 88 l 1
 502 434 l 2
 503.485 440.434 504.235 446.622 504.235 452.506 c 0
 504.235 470.398 497.298 485.464 483 496 c 0
 465 512 436 519 401 520 c 0
 385 520 362 518 332 508 c 0
 301 500 276 488 260 472 c 1
 271 471 287 468 310 459 c 0
 330 453 350 442 367 428 c 1
 357 380 l 1
 339 380 320 375 299 363 c 0
 279 351 264 326 256 286 c 2
 239 206 l 1
 240 207 240 207 242 207 c 0
 248 207 l 0
 269 207 289 201 303 192 c 0
 317 182 327 168 332 152 c 0
 334.639 142.498 335.885 133.276 335.885 124.037 c 0
 335.885 115.774 334.889 107.498 333 99 c 0
 329 80 322 63 310 46 c 0
 297 28 281 15 263 4 c 0
 245 -4 223 -10 202 -10 c 0
 168 -10 142 0 128 22 c 0
 117.988 36.3033 112.067 53.6755 112.067 74.1164 c 0
 112.067 82.2575 113.006 90.8854 115 100 c 2
 153 279 l 2
 160 312 171 338 182 356 c 0
 196 375 212 392 234 405 c 1
 228 408 216 414 197 418 c 0
 180 423 159 429 135 430 c 1
 142 462 l 1
 160 484 195 510 244 543 c 0
 294 574 359 590 439 590 c 0
 476 590 506 585 530 573 c 0
 553 561 570 548 581 531 c 0
 592 512 599 494 599 474 c 0
 600.381 467.093 600.928 460.305 600.928 453.678 c 0
 600.928 441.115 598.964 429.129 597 418 c 2
 527 88 l 1
 609 88 l 2
 628 88 641 92 646 96 c 0
 650 102 655 116 659 138 c 2
 752 576 l 1
 851 576 l 1
491 -195 m 1
 514 -195 535 -184 562 -165 c 0
 588 -142 607 -99 621 -32 c 1
 719 -32 l 1
 706 -94 685 -144 654 -182 c 0
 623 -219 592 -244 557 -258 c 0
 521 -273 487 -279 451 -279 c 0
 421 -279 395 -276 377 -268 c 0
 340 -255 319 -237 308 -216 c 0
 302.1 -203.021 298.637 -187.953 298.637 -171.207 c 0
 298.637 -159.569 300.31 -147.121 304 -134 c 0
 310 -104 327 -78 351 -57 c 0
 373 -36 402 -26 436 -26 c 0
 472 -26 498 -36 512 -57 c 0
 519.263 -72.1858 523.038 -88.6795 523.038 -106.481 c 0
 523.038 -115.641 522.038 -125.147 520 -135 c 0
 515 -160 505 -182 491 -195 c 1
404 -180 m 0
 420 -180 433 -174 443 -166 c 0
 452 -158 459 -146 462 -134 c 0
 462.582 -130.508 462.91 -127.016 462.91 -123.623 c 0
 462.91 -115.355 460.963 -107.672 456 -102 c 0
 450 -93 439 -88 423 -88 c 0
 410 -88 397 -93 386 -102 c 0
 377 -110 370 -122 368 -134 c 0
 367.216 -137.137 366.842 -140.273 366.842 -143.339 c 0
 366.842 -152 369.83 -160.091 375 -166 c 0
 381 -174 391 -180 404 -180 c 0
217 52 m 0
 224 52 233 54 244 60 c 0
 251 64 258 69 262 76 c 0
 266 82 269 90 271 99 c 0
 272.139 103.937 272.846 108.586 272.846 112.947 c 0
 272.846 120.067 270.962 126.418 266 132 c 0
 261 141 251 144 237 144 c 0
 221 144 210 140 199 130 c 0
 188 122 181 110 179 99 c 0
 178.1 95.4 177.65 91.89 177.65 88.524 c 0
 177.65 80.67 180.1 73.6 185 68 c 0
 192 57 201 52 217 52 c 0
EndSplineSet
EndChar
StartChar: uni0E0E
Encoding: 174 3598 143
Width: 681
Flags: W
HStem: -276 82<154 179> -108 82<213 230> 152 64<170 186> 516 74<469 494>
DStem: 584 392 685 400 471 -142 541 -276
Fore
391 -80 m 1
 410 -92 430 -102 442 -114 c 0
 456 -128 466 -138 471 -142 c 1
 584 392 l 2
 586.531 403.25 587.797 413.709 587.797 423.421 c 0
 587.797 448.242 579.531 468.188 563 484 c 0
 543 506 512 516 472 516 c 0
 449 516 423 512 395 504 c 0
 367 496 343 486 319 471 c 1
 330 470 345 466 366 459 c 0
 387 454 404 442 423 428 c 1
 413 380 l 1
 396 380 378 375 356 363 c 0
 336 351 319 326 311 286 c 2
 272 104 l 2
 265 69 249 42 227 22 c 0
 204 0 175 -10 137 -12 c 1
 102 -10 75 0 61 22 c 0
 49.664 37.5869 44.3517 54.6798 44.3517 74.3455 c 0
 44.3517 82.4367 45.251 90.9634 47 100 c 0
 54 132 70 159 95 182 c 0
 118 204 150 216 186 216 c 0
 188 216 192 216 193 216 c 0
 193 213 193 213 197 213 c 1
 211 279 l 2
 218 312 228 338 241 356 c 0
 252 375 269 392 292 405 c 1
 283 408 271 414 254 418 c 0
 236 423 214 429 190 430 c 1
 197 462 l 1
 203 468 211 477 224 488 c 0
 236 500 256 513 283 531 c 0
 308 546 339 561 374 573 c 0
 410 585 451 590 494 590 c 0
 539 590 577 584 609 568 c 0
 642 555 663 532 677 504 c 0
 685.665 485.431 690.117 465.331 690.117 443.223 c 0
 690.117 429.613 688.429 415.242 685 400 c 2
 541 -276 l 1
 442 -276 l 1
 428 -246 411 -220 391 -201 c 0
 371 -183 357 -170 347 -162 c 1
 328 -194 303 -220 269 -243 c 0
 237.164 -262.664 201.82 -276.19 162.149 -276.19 c 0
 159.453 -276.19 156.736 -276.127 154 -276 c 0
 123 -276 97 -262 78 -238 c 0
 64.4851 -223.774 57.5477 -203.476 57.5477 -180.706 c 0
 57.5477 -171.464 58.6905 -161.815 61 -152 c 0
 70 -112 91 -82 121 -62 c 0
 151 -39 188 -27 228 -26 c 0
 256 -26 285 -32 319 -44 c 1
 322 -39 326 -28 333 -16 c 0
 338 -4 344 10 353 32 c 1
 432 14 l 1
 428 -2 419 -21 412 -39 c 0
 404 -57 397 -70 391 -80 c 1
151 52 m 0
 165 52 178 57 188 68 c 0
 200 78 207 90 210 102 c 0
 210.962 106.488 211.41 110.77 211.41 114.847 c 0
 211.41 123.488 209.397 131.206 206 138 c 0
 199 146 186 152 172 152 c 0
 155 152 143 146 133 138 c 0
 121 128 115 116 112 102 c 0
 111.1 98.4 110.65 94.8 110.65 91.254 c 0
 110.65 82.98 113.1 75 118 68 c 0
 124 57 134 52 151 52 c 0
210 -186 m 0
 232 -178 246 -168 257 -154 c 0
 268 -142 275 -132 278 -123 c 1
 260 -114 237 -108 213 -108 c 0
 193 -108 176 -114 164 -122 c 0
 150 -130 142 -142 139 -156 c 0
 138.732 -156.804 138.608 -157.823 138.608 -159 c 0
 138.608 -162.215 139.536 -166.608 141 -171 c 0
 142 -186 154 -194 179 -194 c 0
 193 -194 203 -192 210 -186 c 0
EndSplineSet
EndChar
StartChar: uni0E0F
Encoding: 175 3599 144
Width: 681
Flags: W
HStem: -278 72<129 148> -130 70<167 185> 152 64<162 186> 516 74<468 494>
DStem: 584 392 685 400 470 -146 541 -276
Fore
424 -87 m 1
 470 -146 l 1
 584 392 l 2
 586.531 403.25 587.797 413.709 587.797 423.421 c 0
 587.797 448.242 579.531 468.188 563 484 c 0
 543 506 512 516 472 516 c 0
 449 516 423 512 395 504 c 0
 367 496 343 486 319 471 c 1
 330 470 345 466 366 459 c 0
 387 454 404 442 423 428 c 1
 413 380 l 1
 396 380 378 375 356 363 c 0
 336 351 319 326 311 286 c 2
 272 104 l 2
 265 69 249 42 227 22 c 0
 204 0 175 -10 137 -12 c 1
 102 -10 75 0 61 22 c 0
 49.664 37.5869 44.3517 54.6798 44.3517 74.3455 c 0
 44.3517 82.4367 45.251 90.9634 47 100 c 0
 54 132 70 159 95 182 c 0
 118 204 150 216 186 216 c 0
 188 216 192 216 193 216 c 0
 193 213 193 213 197 213 c 1
 211 279 l 2
 218 312 228 338 241 356 c 0
 252 375 269 392 292 405 c 1
 283 408 271 414 254 418 c 0
 236 423 214 429 190 430 c 1
 197 462 l 1
 203 468 211 477 224 488 c 0
 236 500 256 513 283 531 c 0
 308 546 339 561 374 573 c 0
 410 585 451 590 494 590 c 0
 539 590 577 584 609 568 c 0
 642 555 663 532 677 504 c 0
 685.665 485.431 690.117 465.331 690.117 443.223 c 0
 690.117 429.613 688.429 415.242 685 400 c 2
 541 -276 l 1
 448 -276 l 1
 397 -194 l 1
 301 -276 l 1
 296 -260 290 -244 281 -230 c 0
 273 -213 266 -206 261 -200 c 1
 255 -212 241 -230 219 -248 c 0
 195 -268 166 -278 129 -278 c 0
 100 -278 77 -268 64 -246 c 0
 52.1619 -231.531 46.8118 -213.602 46.8118 -192.213 c 0
 46.8118 -181.079 48.2614 -169.008 51 -156 c 1
 61 -126 78 -102 104 -84 c 0
 130 -68 157 -60 185 -60 c 0
 213 -60 241 -68 261 -82 c 1
 266 -75 273 -60 283 -38 c 0
 294 -16 303 4 309 28 c 1
 379 16 l 1
 352 -56 329 -105 311 -130 c 1
 314 -132 319 -138 322 -142 c 0
 326 -147 330 -154 334 -160 c 1
 349 -148 368 -134 391 -116 c 0
 414 -96 423 -88 424 -87 c 1
151 52 m 0
 165 54 179 60 187 69 c 0
 197 78 202 88 205 102 c 0
 206.036 106.833 206.595 111.427 206.595 115.784 c 0
 206.595 124.047 204.584 131.452 200 138 c 0
 193 146 180 152 162 152 c 0
 147 148 136 144 125 135 c 0
 115 126 109 116 106 104 c 0
 105.234 99.913 104.859 96.087 104.859 92.522 c 0
 104.859 82.1305 108.043 73.9565 114 68 c 1
 120 57 133 52 151 52 c 0
170 -200 m 0
 183 -195 193 -184 201 -172 c 0
 210 -160 215 -156 215 -154 c 1
 215 -154 l 1
 200 -140 184 -130 167 -130 c 0
 149 -130 132 -140 122 -158 c 1
 120.733 -164.755 120.091 -170.798 120.091 -176.127 c 0
 120.091 -196.042 129.066 -206 148 -206 c 0
 156 -206 164 -204 170 -200 c 0
EndSplineSet
EndChar
StartChar: uni0E10
Encoding: 176 3600 145
Width: 514
Flags: W
HStem: -324 60<-5 18> -218 59<292 305> -201 57<29 44> -82 58<318 333> 0 21G<321 426> 140 68<200 217> 297 71<234 248> 472 78<520 537> 518 72<332 355>
Fore
321 0 m 1
 321 28 317 64 308 110 c 0
 301 154 296 177 294 177 c 0
 286 171 277 162 263 153 c 0
 247 144 225 140 200 140 c 0
 164 140 137 152 124 172 c 0
 112.261 187.882 106.721 204.718 106.721 224.153 c 0
 106.721 232.864 107.834 242.097 110 252 c 0
 116 284 132 310 158 332 c 0
 181 354 212 366 248 368 c 0
 279 368 307 362 322 350 c 0
 337 336 346 314 351 284 c 0
 354 270 358 252 363 232 c 0
 367 212 370 201 370 200 c 2
 386 279 l 2
 391.78 304.598 395.515 324.059 395.515 337.947 c 0
 395.515 340.878 395.349 343.56 395 346 c 0
 392 360 387 369 378 375 c 0
 369 380 352 386 324 393 c 0
 287 404 250 414 211 420 c 0
 172 428 143 432 124 434 c 1
 132 471 l 1
 153 494 173 513 197 532 c 0
 222 550 248 566 274 574 c 0
 296 585 325 590 355 590 c 0
 386 590 421 584 460 572 c 0
 497 558 522 550 537 550 c 0
 557 550 578 556 604 566 c 0
 606 566 606 556 608 537 c 0
 606 519 606 501 605 488 c 1
 572 478 542 472 520 472 c 0
 505 472 493 474 481 477 c 0
 470 480 453 486 431 495 c 0
 407 504 390 508 379 512 c 0
 366 516 353 518 340 518 c 0
 323 518 309 513 292 507 c 0
 276 500 265 494 263 488 c 1
 275 486 298 483 327 478 c 0
 356 472 378 466 394 462 c 0
 449 446 483 428 490 402 c 0
 493.472 390.716 495.249 376.796 495.249 360.403 c 0
 495.249 339.021 492.226 313.433 486 284 c 2
 426 0 l 1
 321 0 l 1
268 -255 m 1
 300 -236 l 1
 304 -216 l 1
 302 -218 296 -218 292 -218 c 0
 262 -218 240 -207 226 -188 c 0
 216.611 -175 211.917 -158.87 211.917 -141.118 c 0
 211.917 -134.29 212.611 -127.222 214 -120 c 0
 220 -94 234 -70 257 -52 c 0
 278 -34 304 -24 333 -24 c 0
 361 -24 381 -32 395 -51 c 0
 406.779 -62.7788 411.837 -76.9579 411.837 -93.2047 c 0
 411.837 -100.407 410.843 -108.015 409 -116 c 2
 388 -218 l 2
 384 -234 376 -248 363 -258 c 0
 351 -270 337 -279 320 -288 c 0
 303 -297 282 -309 258 -321 c 1
 200 -284 l 1
 133 -318 l 1
 98 -273 l 1
 77.1042 -306.243 44.4805 -324.15 1.84269 -324.15 c 0
 -0.410328 -324.15 -2.69131 -324.1 -5 -324 c 0
 -30 -324 -48 -312 -61 -296 c 0
 -69 -282.667 -73 -268.889 -73 -252.593 c 0
 -73 -244.444 -72 -235.667 -70 -226 c 0
 -65 -204 -51 -183 -27 -168 c 0
 -6 -153 19 -144 44 -144 c 0
 68 -144 87 -153 104 -168 c 1
 107 -159 113 -146 121 -123 c 0
 130 -102 137 -76 143 -48 c 1
 208 -48 l 1
 201 -80 193 -110 180 -140 c 0
 170 -168 155 -195 140 -218 c 1
 161 -244 l 2
 164 -244 171 -238 188 -231 c 0
 205 -222 214 -218 214 -216 c 1
 268 -255 l 1
31 -201 m 0
 19 -201 8 -206 3 -212 c 0
 -5 -219 -9 -226 -11 -236 c 0
 -11.5744 -238.728 -11.8601 -241.25 -11.8601 -243.569 c 0
 -11.8601 -257.399 -1.69735 -264 18 -264 c 0
 28 -264 39 -260 51 -249 c 0
 59 -240 67 -232 69 -225 c 1
 67 -220 62 -216 57 -210 c 0
 49 -206 41 -201 31 -201 c 0
305 -159 m 0
 317 -159 327 -156 335 -147 c 0
 344 -141 348 -132 350 -122 c 0
 350.732 -118.34 351.196 -114.947 351.196 -111.627 c 0
 351.196 -105.876 349.804 -100.34 346 -94 c 0
 342 -87 334 -82 322 -82 c 0
 310 -82 298 -87 292 -94 c 0
 282 -104 278 -112 276 -122 c 0
 275.303 -125.483 274.849 -128.845 274.849 -132.001 c 0
 274.849 -137.906 276.438 -143.09 281 -147 c 0
 283 -156 293 -159 305 -159 c 0
215 208 m 0
 230 208 241 213 253 222 c 0
 261 231 267 240 270 252 c 0
 270.536 255.215 270.785 258.287 270.785 261.254 c 0
 270.785 269.359 268.928 276.68 266 284 c 0
 258 291 249 297 234 297 c 0
 219 297 208 291 200 284 c 0
 188 274 184 264 182 252 c 0
 180.861 247.442 180.154 243.318 180.154 239.461 c 0
 180.154 233.164 182.038 227.582 187 222 c 0
 192 213 202 208 215 208 c 0
EndSplineSet
EndChar
StartChar: uni0E11
Encoding: 177 3601 146
Width: 793
Flags: W
HStem: 0 21G<276 369 615 714> 250 68<195 211> 406 68<225 243> 501 78<696 717>
DStem: 352 356 450 351 276 0 425 237 576 482 670 478 425 237 369 0 707 435 808 442 615 0 714 0
Fore
450 351 m 2
 425 237 l 1
 576 482 l 2
 600 518 619 543 637 558 c 0
 653 573 679 579 717 579 c 0
 769 579 801 568 809 544 c 0
 812.882 532.353 814.88 518.352 814.88 501.995 c 0
 814.88 484.646 812.632 464.648 808 442 c 2
 714 0 l 1
 615 0 l 1
 707 435 l 2
 713 462 716 480 716 488 c 0
 715 496 709 500 702 501 c 0
 692 501 685 498 679 494 c 0
 676 488 673 483 670 478 c 2
 369 0 l 1
 276 0 l 1
 352 356 l 2
 362 405 385 438 425 456 c 1
 439 465 448 471 450 480 c 0
 450.346 481.385 450.519 482.769 450.519 484.157 c 0
 450.519 494.796 440.346 505.615 420 518 c 1
 334 480 l 1
 263 518 l 1
 243 513 228 506 215 494 c 0
 204 482 194 471 191 462 c 1
 193 465 199 468 206 470 c 0
 216 472 229 474 243 474 c 0
 266 474 284 470 299 459 c 0
 315 452 325 438 330 422 c 0
 332.959 411.94 333.816 401.53 333.816 390.77 c 0
 333.816 383.347 333.408 375.757 333 368 c 0
 326 336 309 308 285 285 c 0
 260 262 230 250 195 250 c 0
 153 250 122 264 106 291 c 0
 95.5941 308.56 89.841 329.927 89.841 355.1 c 0
 89.841 368.633 91.5037 383.267 95 399 c 0
 99 420 104 435 109 446 c 0
 119 474 136 501 162 525 c 0
 184 548 208 564 234 576 c 0
 259 588 279 594 294 594 c 1
 351 558 l 1
 430 594 l 1
 459 588 485 574 505 552 c 0
 522.085 535.692 531.329 516.972 531.329 495.839 c 0
 531.329 489.759 530.564 483.479 529 477 c 0
 526 462 522 453 516 444 c 0
 510 438 501 429 491 418 c 0
 480 408 472 399 464 390 c 0
 457 381 453 368 450 351 c 2
209 318 m 0
 224 318 235 324 245 332 c 0
 254 340 259 351 261 363 c 0
 262.243 367.971 262.971 372.941 262.971 377.556 c 0
 262.971 384.083 261.515 389.899 258 394 c 0
 252 404 242 406 227 406 c 0
 214 406 202 402 192 393 c 0
 182 386 176 375 173 363 c 0
 172.418 359.508 172.09 356.101 172.09 352.828 c 0
 172.09 344.852 174.037 337.672 179 332 c 0
 186 324 196 318 209 318 c 0
EndSplineSet
EndChar
StartChar: uni0E12
Encoding: 178 3602 147
Width: 838
Flags: W
HStem: -10 60<446 459> 0 21G<128 213 656 756> 376 70<364 381>
DStem: 526 405 620 392 486 216 582 210 779 576 878 576 686 135 756 0
Fore
221 120 m 1
 236 135 251 153 266 171 c 0
 278 186 293 204 309 220 c 1
 284 222 268 234 252 256 c 0
 243.256 270.798 239.036 287.405 239.036 305.822 c 0
 239.036 314.786 240.036 324.179 242 334 c 0
 249 366 265 392 292 414 c 0
 317 435 347 446 381 446 c 0
 417 446 442 435 456 416 c 0
 467.024 399.096 473.727 380.032 473.727 357.616 c 0
 473.727 349.532 472.855 341.012 471 332 c 0
 465 296 445 261 418 232 c 2
 213 0 l 1
 128 0 l 1
 138.618 49.007 142.565 88.007 142.565 116.455 c 0
 142.565 122.836 142.366 128.687 142 134 c 0
 141 135 137 154 128 186 c 0
 117 219 110 250 108 282 c 0
 107.1 290.4 106.65 299.16 106.65 308.28 c 0
 106.65 329.56 109.1 352.8 114 378 c 0
 127 426 156 470 201 508 c 0
 245 548 290 574 335 586 c 1
 418 548 l 1
 519 588 l 1
 572 560 603 532 616 506 c 0
 622.898 491.053 626.823 471.811 626.823 448.842 c 0
 626.823 431.856 624.676 412.831 620 392 c 2
 582 210 l 1
 609 204 631 192 649 174 c 0
 668 158 681 144 686 135 c 1
 779 576 l 1
 878 576 l 1
 756 0 l 1
 656 0 l 1
 654 18 645 44 631 75 c 0
 618 105 597 126 565 134 c 1
 551 68 l 2
 547 46 536 27 516 12 c 0
 497 -3 476 -10 446 -10 c 0
 418 -10 399 0 386 21 c 0
 380.306 33.0211 375.812 48.6449 375.812 66.605 c 0
 375.812 77.0318 377.327 88.2461 381 100 c 0
 387 129 401 154 417 174 c 0
 433 194 454 207 486 216 c 1
 526 405 l 2
 529.5 421.5 531 435.25 531 446.625 c 0
 531 458 529.5 467 527 474 c 0
 521 488 511 500 498 508 c 1
 403 474 l 1
 318 508 l 1
 249 477 209 430 198 375 c 0
 195.073 361.667 193.627 347.17 193.627 331.475 c 0
 193.627 298.91 199.854 261.187 212 218 c 0
 219 194 221 172 223 154 c 0
 223 138 222 126 221 120 c 1
465 57 m 1
 485 152 l 1
 459 147 443 129 436 93 c 0
 434.5 87 433.75 81.25 433.75 76.125 c 0
 433.75 71 434.5 66.5 436 63 c 0
 441 54 449 50 453 50 c 0
 458 50 463 52 465 57 c 1
347 286 m 0
 363 286 374 291 382 300 c 0
 393 309 398 318 401 332 c 0
 401.667 336 402.111 340 402.111 343.852 c 0
 402.111 351.556 400.333 358.667 395 364 c 0
 391 374 382 376 366 376 c 0
 353 376 341 370 332 363 c 0
 321 354 316 344 314 332 c 0
 312.964 328.203 312.405 324.286 312.405 320.415 c 0
 312.405 313.073 314.416 305.893 319 300 c 0
 324 291 334 286 347 286 c 0
EndSplineSet
MinimumDistance: x42,28 
EndChar
StartChar: uni0E13
Encoding: 179 3603 148
Width: 837
Flags: W
HStem: -32 20G<708.5 737> -10 62<202 217> 0 21G<410 506> 144 63<237 250> 520 70<401 439>
DStem: 502 434 597 418 410 0 546 180 670 190 769 190 647 81 746 82 752 576 851 576 686 262 785 262
Fore
410 0 m 1
 502 434 l 2
 503.485 440.434 504.235 446.622 504.235 452.506 c 0
 504.235 470.398 497.298 485.464 483 496 c 0
 465 512 436 519 401 520 c 0
 385 520 362 518 332 508 c 0
 301 500 276 488 260 472 c 1
 271 471 287 468 310 459 c 0
 330 453 350 442 367 428 c 1
 357 380 l 1
 339 380 320 375 299 363 c 0
 279 351 264 326 256 286 c 2
 239 206 l 1
 240 207 240 207 242 207 c 0
 248 207 l 0
 269 207 289 201 303 192 c 0
 317 182 327 168 332 152 c 0
 334.639 142.498 335.885 133.276 335.885 124.037 c 0
 335.885 115.774 334.889 107.498 333 99 c 0
 329 80 322 63 310 46 c 0
 297 28 281 15 263 4 c 0
 245 -4 223 -10 202 -10 c 0
 168 -10 142 0 128 22 c 0
 117.988 36.3033 112.067 53.6755 112.067 74.1164 c 0
 112.067 82.2575 113.006 90.8854 115 100 c 2
 153 279 l 2
 160 312 171 338 182 356 c 0
 196 375 212 392 234 405 c 1
 228 408 216 414 197 418 c 0
 180 423 160 429 135 430 c 1
 142 462 l 1
 160 484 195 510 244 543 c 0
 294 574 359 590 439 590 c 0
 476 590 506 585 530 573 c 0
 553 561 570 548 581 531 c 0
 592 512 599 494 599 474 c 0
 600.381 467.093 600.928 460.305 600.928 453.678 c 0
 600.928 441.115 598.964 429.129 597 418 c 2
 546 180 l 1
 566 198 589 216 617 232 c 0
 647 249 669 260 686 262 c 1
 752 576 l 1
 851 576 l 1
 785 262 l 1
 819 256 843 238 857 212 c 0
 864.392 196.079 867.904 179.188 867.904 160.408 c 0
 867.904 146.16 865.883 130.824 862 114 c 0
 854 76 836 46 811 24 c 0
 783 0 753 -12 721 -12 c 0
 696 -12 675 -4 659 10 c 0
 649.2 21.2 644.3 36.32 644.3 55.017 c 0
 644.3 63.03 645.2 71.7 647 81 c 2
 670 190 l 1
 636 177 602 152 573 116 c 0
 542 80 519 42 506 0 c 1
 410 0 l 1
217 52 m 0
 224 52 233 54 244 60 c 0
 251 64 258 69 262 76 c 0
 266 82 269 90 271 99 c 0
 272.139 103.937 272.846 108.586 272.846 112.947 c 0
 272.846 120.067 270.962 126.418 266 132 c 0
 261 141 251 144 237 144 c 0
 221 144 210 140 199 130 c 0
 188 122 181 110 179 99 c 0
 178.1 95.4 177.65 91.89 177.65 88.524 c 0
 177.65 80.67 180.1 73.6 185 68 c 0
 192 57 201 52 217 52 c 0
797 122 m 0
 798.417 128.376 799.081 134.251 799.081 139.712 c 0
 799.081 149.668 796.875 158.251 793 166 c 0
 786 178 780 186 769 190 c 1
 746 82 l 2
 745.148 78.0257 744.7 74.696 744.7 71.9653 c 0
 744.7 65.077 747.555 62 754 62 c 0
 761 63 773 69 779 81 c 0
 788 93 794 106 797 122 c 0
EndSplineSet
EndChar
StartChar: uni0E14
Encoding: 180 3604 149
Width: 618
Flags: W
HStem: 0 21G<128 213 440 537> 375 69<364 380> 506 84<393 421>
VStem: 142 81<134 154>
DStem: 525 400 620 392 440 0 537 0
Fore
415 590 m 0
 499 588 556 570 590 531 c 0
 613.756 502.924 625.075 471.221 625.075 435.517 c 0
 625.075 421.624 623.361 407.126 620 392 c 2
 537 0 l 1
 440 0 l 1
 525 400 l 2
 526.597 407.985 527.413 415.449 527.413 422.452 c 0
 527.413 446.146 518.069 464.563 498 480 c 0
 473 496 442 506 400 506 c 0
 356 506 312 492 271 468 c 0
 232 442 207 410 198 366 c 0
 195.834 355.478 194.721 343.615 194.721 330.292 c 0
 194.721 300.566 200.261 263.575 212 218 c 0
 219 194 221 172 223 154 c 0
 223 138 222 126 221 120 c 1
 236 135 251 153 266 170 c 0
 279 184 293 201 309 219 c 1
 284 220 267 232 252 255 c 0
 243.263 269.113 238.592 285.936 238.592 304.254 c 0
 238.592 313.193 239.704 322.489 242 332 c 0
 248 364 265 390 292 412 c 0
 317 434 346 444 380 444 c 0
 416 444 442 434 456 414 c 0
 466.249 397.895 472.746 378.574 472.746 356.038 c 0
 472.746 347.79 471.876 339.11 470 330 c 0
 464 291 445 260 418 231 c 2
 213 0 l 1
 128 0 l 1
 138.618 49.007 142.565 88.007 142.565 116.455 c 0
 142.565 122.836 142.366 128.687 142 134 c 0
 142 140 137 156 128 186 c 0
 121 219 115 249 111 282 c 0
 109.964 292.356 109.405 302.951 109.405 313.784 c 0
 109.405 334.332 111.416 355.737 116 378 c 0
 126 414 145 446 172 478 c 0
 200 510 234 537 278 560 c 0
 319 579 365 590 415 590 c 0
347 286 m 0
 363 286 374 291 382 300 c 0
 393 309 398 318 400 330 c 0
 401.036 334.142 401.595 338.285 401.595 342.304 c 0
 401.595 349.927 399.584 357.107 395 363 c 0
 391 370 382 375 366 375 c 0
 353 375 340 369 332 362 c 0
 321 352 316 342 313 330 c 0
 312.418 326.508 312.09 323.27 312.09 320.212 c 0
 312.09 312.762 314.037 306.381 319 300 c 0
 324 291 334 286 347 286 c 0
EndSplineSet
EndChar
StartChar: uni0E15
Encoding: 181 3605 150
Width: 618
Flags: W
HStem: 0 21G<128 213 440 537> 376 70<364 381>
DStem: 526 405 620 392 440 0 537 0
Fore
537 0 m 1
 440 0 l 1
 526 405 l 2
 529.5 421.5 531 435.25 531 446.625 c 0
 531 458 529.5 467 527 474 c 0
 521 488 511 500 498 508 c 1
 403 474 l 1
 318 508 l 1
 249 477 209 430 198 375 c 0
 195.073 361.667 193.627 347.17 193.627 331.475 c 0
 193.627 298.91 199.854 261.187 212 218 c 0
 219 194 221 172 223 154 c 0
 223 138 222 126 221 120 c 1
 236 135 251 153 266 171 c 0
 278 186 293 204 309 220 c 1
 284 222 268 234 252 256 c 0
 243.256 270.798 239.036 287.405 239.036 305.822 c 0
 239.036 314.786 240.036 324.179 242 334 c 0
 249 366 265 392 292 414 c 0
 317 435 347 446 381 446 c 0
 417 446 442 435 456 416 c 0
 467.024 399.096 473.727 380.032 473.727 357.616 c 0
 473.727 349.532 472.855 341.012 471 332 c 0
 465 296 445 261 418 232 c 2
 213 0 l 1
 128 0 l 1
 138.618 49.007 142.565 88.007 142.565 116.455 c 0
 142.565 122.836 142.366 128.687 142 134 c 0
 141 135 137 154 128 186 c 0
 117 219 110 250 108 282 c 0
 107.1 290.4 106.65 299.16 106.65 308.28 c 0
 106.65 329.56 109.1 352.8 114 378 c 0
 127 426 156 470 201 508 c 0
 245 548 290 574 335 586 c 1
 418 548 l 1
 519 588 l 1
 572 560 603 532 616 506 c 0
 622.898 491.053 626.823 471.811 626.823 448.842 c 0
 626.823 431.856 624.676 412.831 620 392 c 2
 537 0 l 1
347 286 m 0
 363 286 374 291 382 300 c 0
 393 309 398 318 401 332 c 0
 401.667 336 402.111 340 402.111 343.852 c 0
 402.111 351.556 400.333 358.667 395 364 c 0
 391 374 382 376 366 376 c 0
 353 376 341 370 332 363 c 0
 321 354 316 344 314 332 c 0
 312.964 328.203 312.405 324.286 312.405 320.415 c 0
 312.405 313.073 314.416 305.893 319 300 c 0
 324 291 334 286 347 286 c 0
EndSplineSet
EndChar
StartChar: uni0E16
Encoding: 182 3606 151
Width: 624
Flags: W
HStem: -10 64<206 229> 0 21G<446 544> 153 65<241 253.17> 516 74<412 439>
DStem: 529 392 629 400 446 0 544 0
Fore
241 218 m 1
 254 218 l 2
 290 218 317 206 331 183 c 0
 343.111 165.902 348.624 147.282 348.624 127.862 c 0
 348.624 120.023 347.726 112.053 346 104 c 0
 340 74 324 46 297 24 c 0
 273 2 242 -10 206 -10 c 0
 172 -10 147 2 133 24 c 0
 119.897 40.0143 113.153 57.0883 113.153 78.3077 c 0
 113.153 86.239 114.095 94.7494 116 104 c 2
 153 279 l 2
 160 312 171 338 182 356 c 0
 196 375 212 392 234 405 c 1
 228 408 216 414 197 418 c 0
 180 423 159 429 135 430 c 1
 142 462 l 1
 147 468 155 477 168 488 c 0
 181 500 201 513 227 531 c 0
 251 546 284 561 320 573 c 0
 355 585 395 590 439 590 c 0
 485 590 523 584 553 570 c 0
 584 555 608 534 621 506 c 0
 629.665 488.05 634.117 467.802 634.117 445.018 c 0
 634.117 430.992 632.429 416.004 629 400 c 2
 544 0 l 1
 446 0 l 1
 529 392 l 2
 531.554 403.351 532.819 414.138 532.819 424.201 c 0
 532.819 449.601 524.757 470.392 509 484 c 0
 488 507 456 516 414 516 c 0
 366 516 314 500 262 471 c 1
 268 470 273 468 283 466 c 0
 295 465 308 459 323 454 c 0
 339 447 355 440 367 428 c 1
 357 380 l 1
 339 380 320 375 299 363 c 0
 279 351 264 326 256 286 c 2
 241 218 l 1
229 54 m 0
 243 56 253 62 264 69 c 0
 275 78 281 90 284 102 c 0
 284.929 106.644 285.378 111 285.378 115.128 c 0
 285.378 124.334 283.142 132.405 279 140 c 0
 271 147 259 153 241 153 c 0
 226 152 214 146 206 138 c 0
 195 129 190 117 187 104 c 0
 186.5 101 186.25 98 186.25 95.0156 c 0
 186.25 86.0625 188.5 77.25 193 69 c 0
 199 60 211 54 229 54 c 0
EndSplineSet
EndChar
StartChar: uni0E17
Encoding: 183 3607 152
Width: 678
Flags: W
HStem: 0 21G<162 256 501 600> 360 68<203 235> 501 78<586 603> 518 68<252 269>
DStem: 239 362 361 470 162 0 311 237 464 482 556 478 311 237 256 0 593 435 694 442 501 0 600 0
Fore
162 0 m 1
 239 362 l 1
 233 360 221 360 203 360 c 0
 173 363 154 376 141 399 c 0
 132.256 413.125 128.036 429.512 128.036 447.248 c 0
 128.036 455.881 129.036 464.833 131 474 c 0
 138 506 153 532 180 555 c 0
 202 576 233 586 269 586 c 0
 307 586 332 574 348 552 c 0
 358.566 537.208 363.674 517.951 363.674 497.025 c 0
 363.674 488.242 362.774 479.165 361 470 c 2
 311 237 l 1
 464 482 l 2
 486 519 506 544 523 560 c 0
 539 573 565 579 603 579 c 0
 657 579 689 568 695 544 c 0
 699.609 532.938 701.669 519.751 701.669 504.44 c 0
 701.669 486.532 698.852 465.719 694 442 c 2
 600 0 l 1
 501 0 l 1
 593 435 l 2
 599 460 602 480 602 488 c 0
 601 496 596 500 588 501 c 0
 578 501 572 498 567 494 c 0
 562 488 559 483 556 478 c 2
 256 0 l 1
 162 0 l 1
235 428 m 0
 250 428 262 432 271 441 c 0
 279 448 286 459 288 472 c 0
 289 476 289.444 480 289.444 483.926 c 0
 289.444 491.778 287.667 499.333 285 506 c 0
 279 513 269 518 254 518 c 0
 240 518 229 512 219 504 c 0
 209 495 203 484 200 472 c 0
 199.418 468.508 199.09 465.016 199.09 461.647 c 0
 199.09 453.44 201.037 445.963 206 441 c 0
 212 432 221 428 235 428 c 0
EndSplineSet
EndChar
StartChar: uni0E18
Encoding: 184 3608 153
Width: 537
Flags: W
HStem: 0 88<72 343> 396 69<178 231> 474 75<536 551> 516 72<336 362>
DStem: 202 357 300 357 145 88 243 88 417 284 516 282 386 138 479 110
Fore
231 465 m 1
 237 465 241 465 246 466 c 0
 253 466 267 466 289 466 c 0
 389 466 459 447 499 410 c 0
 514.714 394.941 522.712 371.307 522.712 339.38 c 0
 522.712 322.545 520.488 303.405 516 282 c 2
 479 110 l 2
 470 64 454 34 436 21 c 0
 419 8 382 0 332 0 c 2
 54 0 l 1
 73 88 l 1
 145 88 l 1
 202 357 l 1
 300 357 l 1
 243 88 l 1
 331 88 l 2
 353 88 366 92 371 96 c 0
 378 104 382 117 386 138 c 2
 417 284 l 2
 420.123 298.054 422.637 310.889 422.637 321.552 c 0
 422.637 324.546 422.438 327.369 422 330 c 0
 422.051 330.611 422.076 331.222 422.076 331.833 c 0
 422.076 343.222 413.389 354.611 402 366 c 0
 392 376 365 382 320 388 c 0
 278 393 230 396 178 396 c 0
 147 396 124 396 110 394 c 1
 123 454 l 1
 150 490 185 520 224 548 c 0
 266 574 313 588 362 588 c 0
 398 588 434 582 472 570 c 0
 510 556 535 549 547 549 c 0
 565 549 589 555 614 566 c 1
 621 494 l 1
 590 482 561 474 536 474 c 0
 515 474 483 482 443 495 c 0
 399 508 366 516 336 516 c 0
 310 516 286 508 267 496 c 0
 250 484 238 472 231 465 c 1
EndSplineSet
EndChar
StartChar: uni0E19
Encoding: 185 3609 154
Width: 669
Flags: W
HStem: -12 74<534 569> 0 21G<156 250> 363 67<218 233> 520 70<248 268>
DStem: 233 364 359 488 156 0 286 147 484 190 583 190 461 81 560 82 566 576 665 576 500 262 599 262
Fore
566 576 m 1
 665 576 l 1
 599 262 l 1
 632 256 655 238 669 212 c 0
 676.594 194.28 681.786 175.358 681.786 153.968 c 0
 681.786 141.558 680.039 128.318 676 114 c 0
 668 76 650 46 623 24 c 0
 597 0 567 -12 534 -12 c 0
 509 -12 491 -4 474 10 c 0
 463.918 21.5225 458.503 37.1939 458.503 56.6408 c 0
 458.503 64.1977 459.321 72.3248 461 81 c 2
 484 190 l 1
 438 177 391 148 345 110 c 0
 299 70 267 34 250 0 c 1
 156 0 l 1
 233 364 l 1
 231 364 230 364 225 364 c 0
 224 363 221 363 218 363 c 0
 182 363 158 375 142 399 c 0
 131.143 414.2 125.525 432.543 125.525 452.892 c 0
 125.525 460.657 126.343 468.714 128 477 c 0
 135 507 152 534 175 556 c 0
 201 578 230 590 266 590 c 0
 297 590 322 582 339 562 c 0
 353.576 547.424 361.089 529.317 361.089 508.131 c 0
 361.089 501.7 360.397 494.986 359 488 c 2
 286 147 l 1
 314 177 346 200 386 220 c 0
 425 238 462 255 500 262 c 1
 566 576 l 1
233 430 m 0
 249 430 260 435 271 444 c 0
 279 453 284 462 287 477 c 0
 288.183 481.339 288.744 485.833 288.744 490.177 c 0
 288.744 496.844 287.422 503.156 285 508 c 0
 278 518 269 520 253 520 c 0
 240 520 228 516 218 507 c 0
 208 498 203 488 200 477 c 0
 199.268 472.608 198.804 468.215 198.804 463.97 c 0
 198.804 456.617 200.196 449.706 204 444 c 0
 210 435 220 430 233 430 c 0
611 122 m 0
 612.798 130.54 613.788 138.272 613.788 145.287 c 0
 613.788 153.879 612.303 161.394 609 168 c 0
 602 180 595 186 583 190 c 1
 560 82 l 1
 559.6 79.2 559.4 76.72 559.4 74.544 c 0
 559.4 65.84 562.6 62 569 62 c 0
 574 63 580 66 587 70 c 0
 591 78 596 87 602 96 c 0
 606 105 609 114 611 122 c 0
EndSplineSet
EndChar
StartChar: uni0E1A
Encoding: 186 3610 155
Width: 642
Flags: W
HStem: 0 88<88 429> 360 68<185 219> 518 68<236 253>
DStem: 223 362 344 470 165 88 263 88 582 576 683 576 489 138 585 112
Fore
165 88 m 1
 223 362 l 1
 217 360 205 360 185 360 c 0
 157 363 136 376 124 399 c 0
 115.573 412.612 111.769 428.325 111.769 445.322 c 0
 111.769 454.547 112.889 464.15 115 474 c 0
 119 494 125 512 139 531 c 0
 150 548 165 561 186 572 c 0
 205 582 227 586 253 586 c 0
 290 586 316 574 330 552 c 0
 341.779 537.45 346.837 518.579 346.837 498.048 c 0
 346.837 488.948 345.843 479.521 344 470 c 2
 263 88 l 1
 427 88 l 2
 449 88 466 92 474 99 c 0
 480 104 485 117 489 138 c 2
 582 576 l 1
 683 576 l 1
 585 112 l 2
 575 68 557 39 530 24 c 0
 502 9 460 0 408 0 c 2
 70 0 l 1
 89 88 l 1
 165 88 l 1
219 428 m 0
 232 428 244 432 253 441 c 0
 263 448 269 459 271 472 c 0
 272.077 476.307 272.638 480.614 272.638 484.828 c 0
 272.638 492.356 270.847 499.589 267 506 c 0
 261 513 251 518 238 518 c 0
 224 518 213 512 201 504 c 0
 192 495 185 484 182 472 c 0
 181.5 469 181.25 466 181.25 463.078 c 0
 181.25 454.312 183.5 446.25 188 441 c 0
 196 432 205 428 219 428 c 0
EndSplineSet
EndChar
StartChar: uni0E1B
Encoding: 187 3611 156
Width: 642
Flags: W
HStem: 0 88<88 429> 360 68<185 219> 518 68<236 253> 781 20G<630 731>
DStem: 223 362 344 470 165 88 263 88 630 801 731 801 489 138 585 112
Fore
165 88 m 1
 223 362 l 1
 217 360 205 360 185 360 c 0
 157 363 136 376 124 399 c 0
 115.573 412.612 111.769 428.325 111.769 445.322 c 0
 111.769 454.547 112.889 464.15 115 474 c 0
 119 494 125 512 139 531 c 0
 150 548 165 561 186 572 c 0
 205 582 227 586 253 586 c 0
 290 586 316 574 330 552 c 0
 341.779 537.45 346.837 518.579 346.837 498.048 c 0
 346.837 488.948 345.843 479.521 344 470 c 2
 263 88 l 1
 427 88 l 2
 449 88 466 92 474 99 c 0
 480 104 485 117 489 138 c 2
 630 801 l 1
 731 801 l 1
 585 112 l 2
 575 68 557 39 530 24 c 0
 502 9 460 0 408 0 c 2
 70 0 l 1
 89 88 l 1
 165 88 l 1
219 428 m 0
 232 428 244 432 253 441 c 0
 263 448 269 459 271 472 c 0
 272.077 476.307 272.638 480.614 272.638 484.828 c 0
 272.638 492.356 270.847 499.589 267 506 c 0
 261 513 251 518 238 518 c 0
 224 518 213 512 201 504 c 0
 192 495 185 484 182 472 c 0
 181.5 469 181.25 466 181.25 463.078 c 0
 181.25 454.312 183.5 446.25 188 441 c 0
 196 432 205 428 219 428 c 0
EndSplineSet
EndChar
StartChar: uni0E1C
Encoding: 188 3612 157
Width: 633
Flags: W
HStem: 0 21G<81 174 456 552> 360 68<278.164 295> 518 68<304 323>
DStem: 181 470 257 362 81 0 221 195 387 336 363 226 221 195 230 106 576 576 674 576 495 195 552 0
Fore
174 0 m 1
 81 0 l 1
 181 470 l 2
 187 501 205 531 229 552 c 0
 254 574 285 586 323 586 c 0
 349 586 370 582 384 572 c 0
 397 561 407 548 413 531 c 0
 415.362 522.023 416.385 513.269 416.385 504.422 c 0
 416.385 494.544 415.11 484.551 413 474 c 0
 407 446 392 420 371 399 c 0
 350 376 323 363 295 360 c 0
 275 360 263 360 257 362 c 1
 221 195 l 1
 387 336 l 1
 495 195 l 1
 576 576 l 1
 674 576 l 1
 552 0 l 1
 456 0 l 1
 459.496 16.0831 461.159 30.8215 461.159 44.258 c 0
 461.159 69.2518 455.406 89.7408 445 106 c 2
 363 226 l 1
 230 106 l 2
 201 82 184 48 174 0 c 1
308 518 m 0
 294 518 283 512 273 504 c 0
 263 495 257 484 254 472 c 0
 253.418 468.508 253.09 465.016 253.09 461.647 c 0
 253.09 453.44 255.037 445.963 260 441 c 0
 266 432 275 428 289 428 c 0
 303 428 314 432 325 441 c 0
 333 448 341 459 343 472 c 0
 343.85 475.402 344.219 478.804 344.219 482.16 c 0
 344.219 490.643 341.866 498.835 339 506 c 0
 331 513 322 518 308 518 c 0
EndSplineSet
EndChar
StartChar: uni0E1D
Encoding: 189 3613 158
Width: 633
Flags: W
HStem: 0 21G<81 174 456 552> 360 68<278.164 295> 518 68<304 323> 781 20G<624 722>
DStem: 181 470 257 362 81 0 221 195 387 336 363 226 221 195 230 106 624 801 722 801 495 195 552 0
Fore
174 0 m 1
 81 0 l 1
 181 470 l 2
 187 501 205 531 229 552 c 0
 254 574 285 586 323 586 c 0
 349 586 370 582 384 572 c 0
 397 561 407 548 413 531 c 0
 415.362 522.023 416.385 513.269 416.385 504.422 c 0
 416.385 494.544 415.11 484.551 413 474 c 0
 407 446 392 420 371 399 c 0
 350 376 323 363 295 360 c 0
 275 360 263 360 257 362 c 1
 221 195 l 1
 387 336 l 1
 495 195 l 1
 624 801 l 1
 722 801 l 1
 552 0 l 1
 456 0 l 1
 459.496 16.0831 461.159 30.8215 461.159 44.258 c 0
 461.159 69.2518 455.406 89.7408 445 106 c 2
 363 226 l 1
 230 106 l 2
 201 82 184 48 174 0 c 1
308 518 m 0
 294 518 283 512 273 504 c 0
 263 495 257 484 254 472 c 0
 253.418 468.508 253.09 465.016 253.09 461.647 c 0
 253.09 453.44 255.037 445.963 260 441 c 0
 266 432 275 428 289 428 c 0
 303 428 314 432 325 441 c 0
 333 448 341 459 343 472 c 0
 343.85 475.402 344.219 478.804 344.219 482.16 c 0
 344.219 490.643 341.866 498.835 339 506 c 0
 331 513 322 518 308 518 c 0
EndSplineSet
EndChar
StartChar: uni0E1E
Encoding: 190 3614 159
Width: 720
Flags: W
HStem: 0 21G<141 237 540 639> 360 68<182 214> 518 68<231 248>
DStem: 218 362 340 470 141 0 296 264 468 368 509 562 543 78 596 264 509 562 468 368 296 264 267 78 662 576 761 576 596 264 639 0
Fore
296 264 m 1
 509 562 l 1
 596 264 l 1
 662 576 l 1
 761 576 l 1
 639 0 l 1
 540 0 l 1
 542 9 542 21 545 38 c 0
 545.708 42.9595 546.041 47.919 546.041 52.7895 c 0
 546.041 61.668 544.937 70.251 543 78 c 2
 468 368 l 1
 267 78 l 2
 260 66 254 52 248 38 c 0
 242 21 240 9 237 0 c 1
 141 0 l 1
 218 362 l 1
 212 360 200 360 182 360 c 0
 153 363 132 376 121 399 c 0
 111.833 412.751 107.811 428.645 107.811 445.841 c 0
 107.811 454.907 108.929 464.334 111 474 c 0
 115 494 123 512 135 531 c 0
 146 548 163 561 184 572 c 0
 202 582 224 586 248 586 c 0
 285 586 312 574 327 552 c 0
 338.425 537.887 343.075 519.709 343.075 499.894 c 0
 343.075 490.225 341.968 480.166 340 470 c 2
 296 264 l 1
214 428 m 0
 229 428 239 432 250 441 c 0
 260 448 266 459 268 472 c 0
 269.077 476.307 269.638 480.614 269.638 484.828 c 0
 269.638 492.356 267.847 499.589 264 506 c 0
 256 513 248 518 233 518 c 0
 220 518 209 512 199 504 c 0
 187 495 183 484 180 472 c 0
 179.254 467.521 178.646 463.043 178.646 458.824 c 0
 178.646 451.739 180.359 445.388 186 441 c 0
 192 432 201 428 214 428 c 0
EndSplineSet
EndChar
StartChar: uni0E1F
Encoding: 191 3615 160
Width: 720
Flags: W
HStem: 0 21G<141 237 540 639> 360 68<182 214> 518 68<231 248> 781 20G<710 809>
DStem: 218 362 340 470 141 0 296 264 468 368 509 562 543 78 596 264 509 562 468 368 296 264 267 78 710 801 809 801 596 264 639 0
Fore
296 264 m 1
 509 562 l 1
 596 264 l 1
 710 801 l 1
 809 801 l 1
 639 0 l 1
 540 0 l 1
 542 9 542 21 545 38 c 0
 545.708 42.9595 546.041 47.919 546.041 52.7895 c 0
 546.041 61.668 544.937 70.251 543 78 c 2
 468 368 l 1
 267 78 l 2
 260 66 254 52 248 38 c 0
 242 21 240 9 237 0 c 1
 141 0 l 1
 218 362 l 1
 212 360 200 360 182 360 c 0
 153 363 132 376 121 399 c 0
 111.833 412.751 107.811 428.645 107.811 445.841 c 0
 107.811 454.907 108.929 464.334 111 474 c 0
 115 494 123 512 135 531 c 0
 146 548 163 561 184 572 c 0
 202 582 224 586 248 586 c 0
 285 586 312 574 327 552 c 0
 338.425 537.887 343.075 519.709 343.075 499.894 c 0
 343.075 490.225 341.968 480.166 340 470 c 2
 296 264 l 1
214 428 m 0
 229 428 239 432 250 441 c 0
 260 448 266 459 268 472 c 0
 269.077 476.307 269.638 480.614 269.638 484.828 c 0
 269.638 492.356 267.847 499.589 264 506 c 0
 256 513 248 518 233 518 c 0
 220 518 209 512 199 504 c 0
 187 495 183 484 180 472 c 0
 179.254 467.521 178.646 463.043 178.646 458.824 c 0
 178.646 451.739 180.359 445.388 186 441 c 0
 192 432 201 428 214 428 c 0
EndSplineSet
EndChar
StartChar: uni0E20
Encoding: 192 3616 161
Width: 678
Flags: W
HStem: 0 21G<498 597> 152 64<165 181> 516 74<465 491>
DStem: 581 392 682 400 498 0 597 0
Fore
181 216 m 0
 186 216 188 216 190 216 c 0
 191 213 191 213 192 213 c 1
 206 279 l 2
 213 312 225 338 236 356 c 0
 250 376 266 393 286 405 c 1
 279 408 266 414 248 418 c 0
 231 423 209 429 185 430 c 1
 192 462 l 1
 199 468 207 477 221 488 c 0
 234 500 253 513 279 531 c 0
 304 546 337 561 371 573 c 0
 408 585 447 590 491 590 c 0
 535 590 572 584 605 568 c 0
 638 555 661 532 673 504 c 0
 681.943 484.836 686.806 464.04 686.806 441.091 c 0
 686.806 428.114 685.251 414.448 682 400 c 2
 597 0 l 1
 498 0 l 1
 581 392 l 2
 583.577 403.455 584.843 414.336 584.843 424.478 c 0
 584.843 449.753 576.986 470.441 562 484 c 0
 540 507 509 516 467 516 c 0
 446 516 419 512 392 504 c 0
 365 496 340 486 316 471 c 1
 325 470 342 466 362 459 c 0
 383 454 402 442 419 428 c 1
 409 380 l 1
 393 380 376 375 353 363 c 0
 333 351 317 326 309 286 c 2
 270 104 l 2
 263 69 246 42 224 22 c 0
 200 0 170 -10 132 -12 c 1
 98 -10 70 0 57 22 c 0
 45.664 37.5869 40.3517 54.6798 40.3517 74.3455 c 0
 40.3517 82.4367 41.251 90.9634 43 100 c 0
 50 132 66 159 91 182 c 0
 113 204 146 216 181 216 c 0
146 52 m 0
 163 52 177 57 186 68 c 0
 198 76 203 88 206 102 c 0
 206.986 107.261 207.486 112.144 207.486 116.631 c 0
 207.486 139.432 194.574 152 167 152 c 0
 152 152 139 146 129 138 c 0
 119 128 112 116 109 102 c 0
 108.174 98.6969 107.803 95.3939 107.803 92.1325 c 0
 107.803 83.5454 110.376 75.2474 114 68 c 0
 120 57 131 52 146 52 c 0
EndSplineSet
EndChar
StartChar: uni0E21
Encoding: 193 3617 162
Width: 652
Flags: W
HStem: -12 75<169 174> 0 21G<477 572> 360 68<233 247> 518 68<264 281>
DStem: 210 190 307 184 187 82 287 88 247 362 371 484 227 266 324 264 594 576 694 576 505 156 572 0
Fore
594 576 m 1
 694 576 l 1
 572 0 l 1
 477 0 l 1
 475 21 468 44 456 70 c 0
 443 99 422 122 397 144 c 0
 371 166 341 180 307 184 c 1
 287 88 l 2
 280 56 266 30 243 15 c 0
 222 -2 197 -12 174 -12 c 0
 171.533 -12.1265 169.102 -12.189 166.708 -12.189 c 0
 131.249 -12.189 103.798 1.518 86 24 c 0
 74.2872 40.1051 66.8616 60.4974 66.8616 85.1769 c 0
 66.8616 94.2102 67.8564 103.818 70 114 c 0
 77 156 98 192 127 220 c 0
 157 249 190 264 227 266 c 1
 247 362 l 1
 242 362 l 0
 239 360 236 360 233 360 c 0
 197 360 172 370 158 393 c 0
 145.11 409.471 139.399 427.48 139.399 447.395 c 0
 139.399 455.289 140.297 463.484 142 472 c 0
 150 506 165 532 188 555 c 0
 214 576 245 586 281 586 c 0
 311 586 335 576 355 558 c 0
 367.42 543.389 373.435 526.108 373.435 506.55 c 0
 373.435 499.336 372.617 491.813 371 484 c 2
 324 264 l 1
 381 256 426 240 454 216 c 0
 482 192 498 171 505 156 c 1
 594 576 l 1
247 428 m 0
 261 428 272 432 282 441 c 0
 291 448 298 459 300 472 c 0
 300.962 475.847 301.41 479.693 301.41 483.474 c 0
 301.41 491.488 299.397 499.206 296 506 c 0
 289 513 280 518 266 518 c 0
 252 518 241 512 230 504 c 0
 221 495 215 484 212 472 c 0
 211.394 468.367 211.064 464.733 211.064 461.239 c 0
 211.064 453.192 212.817 445.881 217 441 c 0
 224 432 233 428 247 428 c 0
210 190 m 1
 194 188 181 182 170 170 c 0
 160 158 150 141 146 122 c 0
 143.984 112.425 142.984 103.992 142.984 96.7186 c 0
 142.984 75.1271 151.796 63.748 169 63 c 0
 178 63 185 69 187 82 c 2
 210 190 l 1
EndSplineSet
EndChar
StartChar: uni0E22
Encoding: 194 3618 163
Width: 604
Flags: W
HStem: 0 88<199 402> 369 69<303 321> 519 69<334 350>
DStem: 545 576 646 576 452 138 547 110
Fore
221 276 m 1
 196 285 178 303 166 330 c 0
 158.276 347.379 154.281 366.414 154.281 386.307 c 0
 154.281 397.321 155.506 408.597 158 420 c 0
 163 444 173 466 184 484 c 0
 203 519 228 544 257 562 c 0
 285 579 319 588 350 588 c 0
 383 588 408 578 422 558 c 0
 433.336 542.413 438.648 524.818 438.648 505.216 c 0
 438.648 497.15 437.749 488.745 436 480 c 0
 429 448 414 423 389 402 c 0
 367 380 338 369 303 369 c 0
 286 369 272 375 258 381 c 1
 242 386 237 390 237 392 c 1
 237 392 237 392 239 392 c 1
 238.219 388.25 237.828 384.646 237.828 381.174 c 0
 237.828 362.424 249.219 347.5 272 334 c 0
 300 318 328 312 358 310 c 1
 342 237 l 1
 300 237 271 230 251 212 c 0
 230 196 217 172 210 141 c 2
 199 88 l 1
 389 88 l 2
 412 88 428 92 437 99 c 0
 442 104 448 117 452 138 c 2
 545 576 l 1
 646 576 l 1
 547 110 l 2
 538 64 523 34 504 21 c 0
 485 8 448 0 400 0 c 2
 81 0 l 1
 111 141 l 2
 118 174 131 201 147 222 c 0
 164 243 177 256 191 264 c 0
 205 272 216 274 221 276 c 1
319 438 m 0
 333 438 344 441 353 448 c 0
 361 458 367 466 370 478 c 0
 370.536 481.215 370.785 484.144 370.785 486.881 c 0
 370.785 494.359 368.928 500.412 366 507 c 0
 360 516 350 519 336 519 c 0
 323 519 314 516 304 507 c 0
 294 498 288 488 286 478 c 0
 285.196 475.32 284.823 472.713 284.823 470.196 c 0
 284.823 463.321 287.608 457.124 292 452 c 0
 298 442 306 438 319 438 c 0
EndSplineSet
EndChar
StartChar: uni0E23
Encoding: 195 3619 164
Width: 526
Flags: W
HStem: -8 71<325 343> 152 70<360 374> 480 75<532 549> 520 74<328 352>
VStem: 412 102<330 338>
Fore
508 285 m 2
 470 110 l 2
 463 76 446 50 420 27 c 0
 391 4 360 -8 325 -8 c 0
 289 -8 263 4 250 27 c 0
 239.221 43.5275 233.09 61.604 233.09 81.6007 c 0
 233.09 89.4319 234.03 97.5576 236 106 c 0
 242 138 259 165 284 186 c 0
 308 208 338 220 374 222 c 0
 383 222 389 222 395 220 c 1
 409 285 l 2
 411.162 297.974 412.805 309.389 412.805 319.246 c 0
 412.805 323.064 412.558 326.649 412 330 c 0
 412 342 404 356 392 368 c 0
 383 376 366 382 339 390 c 0
 310 394 275 400 230 405 c 0
 187 408 144 410 105 410 c 1
 116 462 l 1
 144 498 176 530 217 555 c 0
 255 579 300 594 352 594 c 0
 388 594 427 586 466 574 c 0
 506 561 532 555 547 555 c 0
 566 555 590 560 616 572 c 1
 622 498 l 1
 589 486 561 480 532 480 c 0
 507 480 473 486 432 500 c 0
 388 513 355 520 329 520 c 0
 301 520 280 516 263 504 c 0
 247 492 237 483 230 474 c 1
 359 474 447 454 490 412 c 0
 506 395.333 514 370.667 514 338.593 c 0
 514 322.556 512 304.667 508 285 c 2
341 63 m 0
 355 63 366 66 378 75 c 0
 386 82 394 94 397 106 c 0
 397.536 109.215 397.785 112.431 397.785 115.608 c 0
 397.785 124.287 395.928 132.679 393 140 c 0
 385 147 376 152 360 152 c 0
 346 152 334 146 325 138 c 0
 313 129 309 118 307 106 c 0
 305.861 101.442 305.154 97.1734 305.154 93.1928 c 0
 305.154 86.6926 307.038 80.9616 312 76 c 0
 317 68 328 63 341 63 c 0
EndSplineSet
EndChar
StartChar: uni0E24
Encoding: 196 3620 165
Width: 624
Flags: W
HStem: -10 64<206 221> 153 65<241 253.141> 516 74<412 439>
DStem: 529 392 629 400 382 -300 480 -300
Fore
241 218 m 1
 254 218 l 2
 290 218 317 206 331 183 c 0
 343.111 165.902 348.624 147.282 348.624 127.862 c 0
 348.624 120.023 347.726 112.053 346 104 c 0
 340 74 324 46 297 24 c 0
 273 2 242 -10 206 -10 c 0
 172 -10 147 2 133 24 c 0
 119.897 40.0143 113.153 57.0883 113.153 78.3077 c 0
 113.153 86.239 114.095 94.7494 116 104 c 2
 153 279 l 2
 160 312 171 338 182 356 c 0
 196 375 212 392 234 405 c 1
 228 408 216 414 197 418 c 0
 180 423 159 429 135 430 c 1
 142 462 l 1
 147 468 155 477 168 488 c 0
 181 500 201 513 227 531 c 0
 251 546 284 561 320 573 c 0
 355 585 395 590 439 590 c 0
 485 590 523 584 553 570 c 0
 584 555 608 534 621 506 c 0
 629.665 488.05 634.117 467.802 634.117 445.018 c 0
 634.117 430.992 632.429 416.004 629 400 c 2
 480 -300 l 1
 382 -300 l 1
 529 392 l 2
 531.554 403.351 532.819 414.138 532.819 424.201 c 0
 532.819 449.601 524.757 470.392 509 484 c 0
 488 507 456 516 414 516 c 0
 366 516 314 500 262 471 c 1
 268 470 273 468 283 466 c 0
 295 465 308 459 323 454 c 0
 339 447 355 440 367 428 c 1
 357 380 l 1
 339 380 320 375 299 363 c 0
 279 351 264 326 256 286 c 2
 241 218 l 1
219 54 m 0
 235 54 250 60 261 69 c 0
 272 78 277 90 280 104 c 0
 281.181 109.23 281.764 114.089 281.764 118.555 c 0
 281.764 140.561 267.602 153 241 153 c 0
 227 153 213 147 204 140 c 0
 193 129 185 117 182 104 c 0
 181.583 101.495 181.383 98.9909 181.383 96.4955 c 0
 181.383 87.0345 184.252 77.7042 189 69 c 0
 196 60 205 54 219 54 c 0
EndSplineSet
EndChar
StartChar: uni0E25
Encoding: 197 3621 166
Width: 600
Flags: W
HStem: -12 68<203 218> 0 21G<420 520> 146 70<235 252> 513 75<377 407>
DStem: 504 394 604 396 474 256 520 0
Fore
203 -12 m 0
 168 -12 144 -2 126 18 c 0
 111.043 35.45 102.991 54.9714 102.991 77.7118 c 0
 102.991 82.3381 103.324 87.0976 104 92 c 0
 109 130 120 182 132 240 c 1
 149 290 170 330 203 363 c 0
 232 394 270 412 312 412 c 0
 315.176 412.144 318.289 412.216 321.341 412.216 c 0
 360.583 412.216 389.804 400.412 413 380 c 0
 438 357 452 334 461 304 c 0
 469 276 473 261 474 256 c 1
 504 394 l 2
 506.263 405.314 507.406 415.668 507.406 425.176 c 0
 507.406 449.28 500.06 467.94 485 483 c 0
 464 504 431 513 385 513 c 0
 346 513 314 506 280 486 c 0
 246 468 221 446 198 423 c 1
 152 472 l 1
 177 504 213 530 257 552 c 0
 299 574 347 588 401 588 c 0
 471 588 527 572 566 537 c 0
 593.928 512.091 608.752 478.637 608.752 437.926 c 0
 608.752 424.702 607.188 410.712 604 396 c 2
 520 0 l 1
 420 0 l 1
 420.438 7.89205 420.637 16.0725 420.637 24.5834 c 0
 420.637 54.8954 418.123 89.3996 415 130 c 0
 408 183 397 232 379 274 c 0
 359.418 315.123 335.042 338.031 303.995 338.031 c 0
 303.333 338.031 302.668 338.021 302 338 c 0
 257 336 227 291 210 210 c 1
 215 212 219 212 227 213 c 0
 234 216 242 216 252 216 c 0
 285 213 313 204 327 184 c 0
 337.981 170.96 343.309 154.153 343.309 134.224 c 0
 343.309 125.114 342.196 115.352 340 105 c 0
 336 70 318 44 293 22 c 0
 270 0 238 -10 203 -12 c 0
218 56 m 0
 232 56 244 62 253 69 c 0
 263 78 268 88 271 102 c 0
 271.697 106.18 272.151 110.36 272.151 114.371 c 0
 272.151 121.875 270.562 128.787 266 134 c 0
 261 142 251 146 237 146 c 0
 221 146 210 141 200 132 c 0
 191 123 184 114 182 102 c 0
 181.174 98.6969 180.803 95.5454 180.803 92.5037 c 0
 180.803 84.4949 183.376 77.2475 187 70 c 0
 195 62 204 56 218 56 c 0
EndSplineSet
EndChar
StartChar: uni0E26
Encoding: 198 3622 167
Width: 678
Flags: W
HStem: 152 64<165 181> 516 74<465 491>
DStem: 581 392 682 400 434 -300 533 -300
Fore
181 216 m 0
 186 216 188 216 190 216 c 0
 191 213 191 213 192 213 c 1
 206 279 l 2
 213 312 225 338 236 356 c 0
 250 376 266 393 286 405 c 1
 279 408 266 414 248 418 c 0
 231 423 209 429 185 430 c 1
 192 462 l 1
 199 468 207 477 221 488 c 0
 234 500 253 513 279 531 c 0
 304 546 337 561 371 573 c 0
 408 585 447 590 491 590 c 0
 535 590 572 584 605 568 c 0
 638 555 661 532 673 504 c 0
 681.943 484.836 686.806 464.04 686.806 441.091 c 0
 686.806 428.114 685.251 414.448 682 400 c 2
 533 -300 l 1
 434 -300 l 1
 581 392 l 2
 583.577 403.455 584.843 414.336 584.843 424.478 c 0
 584.843 449.753 576.986 470.441 562 484 c 0
 540 507 509 516 467 516 c 0
 446 516 419 512 392 504 c 0
 365 496 340 486 316 471 c 1
 325 470 342 466 362 459 c 0
 383 454 402 442 419 428 c 1
 409 380 l 1
 393 380 376 375 353 363 c 0
 333 351 317 326 309 286 c 2
 270 104 l 2
 263 69 246 42 224 22 c 0
 200 0 170 -10 132 -12 c 1
 98 -10 70 0 57 22 c 0
 45.664 37.5869 40.3517 54.6798 40.3517 74.3455 c 0
 40.3517 82.4367 41.251 90.9634 43 100 c 0
 50 132 66 159 91 182 c 0
 113 204 146 216 181 216 c 0
146 52 m 0
 163 52 177 57 186 68 c 0
 198 76 203 88 206 102 c 0
 206.986 107.261 207.486 112.144 207.486 116.631 c 0
 207.486 139.432 194.574 152 167 152 c 0
 152 152 139 146 129 138 c 0
 119 128 112 116 109 102 c 0
 108.174 98.6969 107.803 95.3939 107.803 92.1325 c 0
 107.803 83.5454 110.376 75.2474 114 68 c 0
 120 57 131 52 146 52 c 0
EndSplineSet
EndChar
StartChar: uni0E27
Encoding: 199 3623 168
Width: 541
Flags: W
HStem: -12 68<343 360> 146 70<375 392> 508 82<331 358>
DStem: 446 392 544 393 408 213 482 105
Fore
392 216 m 0
 398 216 403 216 408 213 c 1
 446 392 l 2
 448.7 404.6 450.05 415.94 450.05 426.128 c 0
 450.05 449.9 442.7 467.4 428 480 c 0
 406 498 376 508 338 508 c 0
 336.056 508.057 334.118 508.086 332.186 508.086 c 0
 266.514 508.086 207.314 475.085 150 410 c 1
 94 462 l 1
 122 498 161 530 205 555 c 0
 249 578 297 590 356 590 c 0
 428 590 484 573 516 537 c 0
 538.129 511.302 549.557 479.999 549.557 442 c 0
 549.557 426.766 547.72 410.456 544 393 c 2
 482 105 l 2
 476 74 461 44 434 22 c 0
 406 0 377 -12 343 -12 c 0
 307 -12 282 0 266 22 c 0
 254.902 36.3616 249.771 54.1325 249.771 73.6434 c 0
 249.771 84.0204 251.222 94.8897 254 106 c 0
 260 138 278 162 303 184 c 0
 329 206 358 216 392 216 c 0
358 56 m 0
 374 56 383 62 395 69 c 0
 404 78 409 88 412 102 c 0
 412.732 106.392 413.196 110.785 413.196 114.981 c 0
 413.196 122.249 411.804 128.928 408 134 c 0
 400 142 393 146 377 146 c 0
 361 146 351 141 342 132 c 0
 330 123 326 114 324 102 c 0
 322.861 97.4425 322.154 93.1734 322.154 89.0833 c 0
 322.154 82.4041 324.038 76.202 329 70 c 0
 335 62 344 56 358 56 c 0
EndSplineSet
EndChar
StartChar: uni0E28
Encoding: 200 3624 169
Width: 619
Flags: W
HStem: 0 21G<134 234 441 538> 218 68<328 343> 376 71<360 377> 516 80<388 415>
DStem: 155 100 282 226 134 0 234 0 519 368 621 392 441 0 538 0
Fore
586 536 m 0
 588 536 596 544 609 561 c 0
 621 578 634 597 643 618 c 1
 720 579 l 1
 709 556 695 532 674 510 c 0
 653 486 638 470 624 459 c 1
 627 454 627 447 627 438 c 0
 627.167 436.333 627.25 434.5 627.25 432.509 c 0
 627.25 422.556 625.167 408.667 621 392 c 2
 538 0 l 1
 441 0 l 1
 519 368 l 1
 525 394 l 1
 504 382 486 376 467 370 c 1
 468 369 467 364 468 357 c 0
 468 351 467 342 465 332 c 0
 457 300 440 273 417 250 c 0
 395 230 363 219 328 218 c 0
 322 218 313 219 302 220 c 0
 288 224 282 225 282 226 c 2
 234 0 l 1
 134 0 l 1
 155 100 l 2
 158.515 115.23 159.971 129.088 159.971 142.378 c 0
 159.971 151.775 159.243 160.887 158 170 c 0
 154 190 147 213 138 240 c 0
 127 268 122 291 117 312 c 0
 115.583 319.085 114.919 326.672 114.919 334.85 c 0
 114.919 349.757 117.125 366.627 121 386 c 0
 131 430 154 470 184 500 c 0
 213 531 248 555 291 570 c 0
 331 585 372 594 415 596 c 0
 439 596 462 594 485 588 c 0
 506 584 527 574 546 564 c 0
 565 555 578 544 586 536 c 0
439 428 m 1
 451 428 462 432 480 442 c 0
 492 452 504 459 513 465 c 1
 502 482 486 495 464 504 c 0
 441 512 418 516 388 516 c 0
 347 513 310 501 273 477 c 0
 237 452 212 420 204 381 c 0
 202.246 371.793 201.454 362.585 201.454 353.209 c 0
 201.454 341.201 202.754 328.916 205 316 c 0
 207 297 208 286 209 286 c 1
 209 286 209 286 209 288 c 0
 215 314 232 348 256 387 c 0
 281 426 320 446 377 447 c 0
 397 447 411 446 421 441 c 0
 430 435 435 430 439 428 c 1
343 286 m 0
 358 286 370 291 379 300 c 0
 388 309 394 318 397 332 c 0
 397.606 335.633 397.936 339.267 397.936 342.789 c 0
 397.936 350.9 396.183 358.422 392 364 c 0
 387 374 377 376 362 376 c 0
 348 376 337 370 326 363 c 0
 315 354 310 344 308 332 c 0
 306.964 328.203 306.405 324.286 306.405 320.415 c 0
 306.405 313.073 308.416 305.893 313 300 c 0
 320 291 329 286 343 286 c 0
EndSplineSet
EndChar
StartChar: uni0E29
Encoding: 201 3625 170
Width: 655
Flags: W
HStem: 0 88<102 453> 196 64<493 519> 356 52<443 456> 360 68<200 232> 518 68<249 266>
DStem: 236 362 358 470 178 88 277 88 599 576 696 576 532 261 637 297
Fore
793 417 m 1
 786 386 775 356 759 332 c 0
 743 308 727 288 709 273 c 0
 693 258 674 246 658 237 c 0
 640 230 626 222 621 219 c 1
 598 112 l 2
 588 68 570 39 543 24 c 0
 518 9 477 0 422 0 c 2
 84 0 l 1
 103 88 l 1
 178 88 l 1
 236 362 l 1
 230 360 218 360 200 360 c 0
 171 363 150 376 139 399 c 0
 129.506 413.242 125.07 429.783 125.07 447.688 c 0
 125.07 456.185 126.069 464.989 128 474 c 0
 135 506 151 532 175 555 c 0
 198 576 230 586 266 586 c 0
 305 586 330 576 344 555 c 0
 355.739 539.118 361.279 520.852 361.279 499.872 c 0
 361.279 490.47 360.166 480.522 358 470 c 2
 277 88 l 1
 445 88 l 2
 466 88 482 92 489 99 c 0
 494 104 502 117 506 138 c 2
 519 196 l 1
 456 196 412 206 386 220 c 1
 366 236 355 248 347 260 c 0
 344.681 266.958 343.034 276.268 343.034 288.127 c 0
 343.034 296.722 343.899 306.654 346 318 c 0
 350 340 362 362 381 380 c 0
 400 399 425 408 456 408 c 0
 481 408 502 400 514 386 c 0
 522.522 372.054 528.644 356.908 528.644 339.632 c 0
 528.644 334.609 528.126 329.406 527 324 c 0
 522 297 510 274 493 260 c 1
 514 260 526 260 532 261 c 1
 599 576 l 1
 696 576 l 1
 637 297 l 1
 669 312 693 351 707 417 c 1
 793 417 l 1
431 290 m 0
 443 290 452 292 458 300 c 0
 465 308 471 315 473 324 c 0
 473.427 325.71 473.626 327.419 473.626 329.129 c 0
 473.626 335.419 470.931 341.71 467 348 c 0
 463 352 456 356 445 356 c 0
 436 356 426 352 420 346 c 0
 411 339 407 332 405 324 c 0
 404.483 321.675 404.234 319.55 404.234 317.522 c 0
 404.234 311.7 406.292 306.675 410 300 c 0
 413 292 419 290 431 290 c 0
232 428 m 0
 247 428 258 432 268 441 c 0
 277 448 282 459 284 472 c 0
 285.309 477.238 286.047 482.476 286.047 487.547 c 0
 286.047 494.095 284.818 500.365 282 506 c 0
 275 513 266 518 251 518 c 0
 238 518 226 512 215 504 c 0
 205 495 199 484 196 472 c 0
 195.418 468.508 195.09 465.016 195.09 461.647 c 0
 195.09 453.44 197.037 445.963 202 441 c 0
 209 432 219 428 232 428 c 0
EndSplineSet
EndChar
StartChar: uni0E2A
Encoding: 202 3626 171
Width: 600
Flags: W
HStem: -12 68<203 218> 0 21G<420 520> 146 70<235 252> 513 75<377 407>
Fore
218 56 m 0
 232 56 244 62 253 69 c 0
 263 78 268 88 271 102 c 0
 271.697 106.18 272.151 110.36 272.151 114.371 c 0
 272.151 121.875 270.562 128.787 266 134 c 0
 261 142 251 146 237 146 c 0
 221 146 210 141 200 132 c 0
 191 123 184 114 182 102 c 0
 181.174 98.6969 180.803 95.5454 180.803 92.5037 c 0
 180.803 84.4949 183.376 77.2475 187 70 c 0
 195 62 204 56 218 56 c 0
481 477 m 1
 462 501 431 513 385 513 c 0
 346 513 314 506 280 486 c 0
 246 468 221 446 198 423 c 1
 152 472 l 1
 177 504 213 530 257 552 c 0
 299 574 347 588 401 588 c 0
 453 588 499 578 536 556 c 0
 540 556 554 573 576 604 c 0
 601 638 613 654 617 654 c 0
 622 652 632 646 651 634 c 0
 668 622 680 614 684 608 c 1
 676 598 659 579 635 552 c 0
 609 524 596 508 595 504 c 1
 605 492 609 477 611 459 c 0
 611.417 455.869 611.617 452.434 611.617 448.72 c 0
 611.617 434.642 608.748 416.573 604 396 c 2
 520 0 l 1
 420 0 l 1
 420.438 7.89205 420.637 16.0725 420.637 24.5834 c 0
 420.637 54.8954 418.123 89.3996 415 130 c 0
 408 183 397 232 379 274 c 0
 359.418 315.123 335.042 338.031 303.995 338.031 c 0
 303.333 338.031 302.668 338.021 302 338 c 0
 257 336 227 291 210 210 c 1
 215 212 219 212 227 213 c 0
 234 216 242 216 252 216 c 0
 285 213 313 204 327 184 c 0
 337.981 170.96 343.309 154.153 343.309 134.224 c 0
 343.309 125.114 342.196 115.352 340 105 c 0
 336 70 318 44 293 22 c 0
 270 0 238 -10 203 -12 c 0
 168 -12 144 -2 126 18 c 0
 111.043 35.45 102.991 54.9714 102.991 77.7118 c 0
 102.991 82.3381 103.324 87.0976 104 92 c 0
 109 130 120 182 132 240 c 1
 149 290 170 330 203 363 c 0
 232 394 270 412 312 412 c 0
 315.746 412.17 319.413 412.254 322.999 412.254 c 0
 361.533 412.254 390.788 402.638 410 388 c 0
 412 388 425 404 446 432 c 0
 467 460 479 477 481 477 c 1
506 418 m 1
 501 408 490 394 476 378 c 0
 463 362 455 351 454 350 c 0
 461 336 467 321 469 302 c 0
 472 284 474 268 474 256 c 1
 480 284 486 310 490 338 c 0
 495 364 501 392 506 418 c 1
EndSplineSet
EndChar
StartChar: uni0E2B
Encoding: 203 3627 172
Width: 654
Flags: W
HStem: 0 21G<138 234 472 573> 360 68<179 211> 518 68<226 243 572 593>
DStem: 215 362 336 470 138 0 292 264 530 273 631 273 472 0 573 0
Fore
292 264 m 1
 322 300 354 328 387 351 c 0
 419 374 444 387 460 394 c 1
 450.521 409.573 445.626 426.979 445.626 445.909 c 0
 445.626 454.938 446.74 464.312 449 474 c 0
 456 508 471 536 497 558 c 0
 522 578 554 588 593 588 c 0
 626 588 653 578 666 556 c 0
 675.479 541.104 680.374 523.916 680.374 504.126 c 0
 680.374 494.687 679.26 484.656 677 474 c 0
 668 432 646 402 613 381 c 1
 619 380 626 369 633 354 c 0
 636.151 347.248 637.681 338.063 637.681 326.447 c 0
 637.681 312.259 635.399 294.444 631 273 c 2
 573 0 l 1
 472 0 l 1
 530 273 l 2
 533.487 289.853 535.623 303.329 535.623 313.035 c 0
 535.623 320.031 534.513 325.068 532 328 c 0
 528 338 525 342 519 342 c 1
 447 309 385 261 333 198 c 0
 281 135 250 76 239 22 c 2
 234 0 l 1
 138 0 l 1
 215 362 l 1
 209 360 197 360 179 360 c 0
 151 363 130 376 117 399 c 0
 107.2 413.7 102.3 430.85 102.3 449.421 c 0
 102.3 457.38 103.2 465.6 105 474 c 0
 112 506 128 532 154 555 c 0
 176 576 207 586 243 586 c 0
 283 586 308 576 325 555 c 0
 334.004 539.071 339.17 520.743 339.17 499.685 c 0
 339.17 490.337 338.152 480.452 336 470 c 2
 292 264 l 1
553 429 m 0
 569 429 580 434 589 442 c 0
 600 452 605 460 608 474 c 0
 608.697 478.18 609.151 482.36 609.151 486.413 c 0
 609.151 493.996 607.562 501.135 603 507 c 0
 598 516 588 519 572 519 c 0
 558 519 549 513 538 506 c 0
 527 496 521 486 519 474 c 0
 518.071 470.285 517.622 466.762 517.622 463.371 c 0
 517.622 455.808 519.857 448.904 524 442 c 0
 532 434 539 429 553 429 c 0
209 428 m 0
 225 428 236 432 246 441 c 0
 254 448 260 459 262 472 c 0
 263.183 476.733 263.744 481.467 263.744 486.077 c 0
 263.744 493.156 262.422 499.944 260 506 c 0
 253 513 244 518 228 518 c 0
 215 518 203 512 194 504 c 0
 183 495 178 484 175 472 c 0
 174.333 468 173.889 464 173.889 460.185 c 0
 173.889 452.556 175.667 445.667 181 441 c 0
 186 432 196 428 209 428 c 0
EndSplineSet
EndChar
StartChar: uni0E2C
Encoding: 204 3628 173
Width: 723
Flags: W
HStem: 0 21G<146 240 544 642> 360 68<185 219> 459 67<642 652> 518 68<236 253> 603 67<666 682>
DStem: 223 362 344 470 146 0 297 250 642 459 744 482 597 250 642 0
Fore
744 482 m 1
 642 0 l 1
 544 0 l 1
 546 9 547 21 548 38 c 0
 548.608 46.5068 549.584 55.0135 549.584 63.0716 c 0
 549.584 68.2751 549.177 73.2915 548 78 c 2
 464 336 l 1
 273 78 l 2
 265 69 260 56 254 38 c 0
 247 21 242 9 240 0 c 1
 146 0 l 1
 223 362 l 1
 217 360 205 360 185 360 c 0
 157 363 136 376 124 399 c 0
 115.573 412.612 111.769 428.325 111.769 445.322 c 0
 111.769 454.547 112.889 464.15 115 474 c 0
 119 494 125 512 139 531 c 0
 150 548 165 561 186 572 c 0
 205 582 227 586 253 586 c 0
 290 586 316 574 330 552 c 0
 341.779 537.45 346.837 518.579 346.837 498.048 c 0
 346.837 488.948 345.843 479.521 344 470 c 2
 297 250 l 1
 501 507 l 1
 597 250 l 1
 642 459 l 1
 610 459 586 470 570 490 c 0
 557.951 503.555 552.14 521.646 552.14 542.566 c 0
 552.14 549.427 552.765 556.591 554 564 c 0
 561 596 576 621 598 640 c 0
 623 662 650 670 682 670 c 0
 724 670 749 660 759 636 c 0
 766.638 615.633 769.234 599.587 769.234 585.418 c 0
 769.234 582.89 769.151 580.422 769 578 c 1
 787 590 805 614 819 650 c 1
 887 615 l 1
 878 591 863 570 845 550 c 0
 825 532 806 516 787 504 c 0
 769 492 754 483 744 482 c 1
652 526 m 0
 664 526 674 531 682 538 c 1
 692 546 697 555 699 566 c 0
 699.667 569.333 700 572.556 700 575.704 c 0
 700 582 698.667 588 696 594 c 0
 690 600 680 603 668 603 c 0
 658 603 648 600 639 594 c 0
 631 585 626 576 624 566 c 0
 623.333 562.667 623 559.556 623 556.518 c 0
 623 550.444 624.333 544.667 627 538 c 0
 635 531 643 526 652 526 c 0
219 428 m 0
 232 428 244 432 253 441 c 0
 263 448 269 459 271 472 c 0
 272.077 476.307 272.638 480.614 272.638 484.828 c 0
 272.638 492.356 270.847 499.589 267 506 c 0
 261 513 251 518 238 518 c 0
 224 518 213 512 201 504 c 0
 192 495 185 484 182 472 c 0
 181.5 469 181.25 466 181.25 463.078 c 0
 181.25 454.312 183.5 446.25 188 441 c 0
 196 432 205 428 219 428 c 0
EndSplineSet
EndChar
StartChar: uni0E2D
Encoding: 205 3629 174
Width: 607
Flags: W
HStem: 0 88<236 406> 178 70<238 256> 336 69<270 286> 510 80<375 404>
DStem: 511 392 610 393 457 138 550 114
Fore
218 180 m 1
 209 138 l 2
 207 127.5 206 119 206 112.5 c 0
 206 106 207 101.5 209 99 c 0
 214 92 226 88 249 88 c 2
 394 88 l 2
 415 88 432 92 439 99 c 0
 445 104 453 117 457 138 c 2
 511 392 l 2
 513.383 402.932 514.567 413.078 514.567 422.449 c 0
 514.567 479.944 469.985 508.28 384 510 c 0
 352 510 320 504 288 490 c 0
 257 474 227 456 204 432 c 1
 153 483 l 1
 178 512 214 537 259 560 c 0
 301 579 349 590 404 590 c 0
 485 590 542 573 576 538 c 0
 603.256 515.048 615.592 482.835 615.592 443.207 c 0
 615.592 427.586 613.676 410.812 610 393 c 2
 550 114 l 2
 540 68 527 39 506 24 c 0
 486 9 453 0 404 0 c 2
 206 0 l 2
 171 0 147 3 131 9 c 0
 113 14 104 24 100 39 c 0
 98.245 44.265 97.4756 50.6388 97.4756 58.0782 c 0
 97.4756 71.8336 100.106 89.232 104 110 c 2
 141 284 l 2
 148 316 166 346 192 369 c 0
 219 393 251 405 286 405 c 0
 311 405 333 400 346 388 c 0
 362 378 373 364 377 348 c 0
 379.362 339.495 380.385 330.991 380.385 322.275 c 0
 380.385 312.544 379.11 302.551 377 292 c 0
 371 262 354 236 330 212 c 0
 304 190 274 178 238 178 c 0
 233 178 230 178 226 180 c 0
 222 180 220 180 218 180 c 1
254 248 m 0
 271 248 280 252 291 261 c 0
 300 270 305 279 308 291 c 0
 308.775 295.649 309.25 300.298 309.25 304.773 c 0
 309.25 311.848 308.063 318.487 305 324 c 0
 297 332 289 336 272 336 c 0
 259 336 248 330 238 322 c 0
 227 314 222 303 220 291 c 0
 218.861 286.442 218.154 282.318 218.154 278.461 c 0
 218.154 272.164 220.038 266.582 225 261 c 0
 232 252 241 248 254 248 c 0
EndSplineSet
EndChar
StartChar: uni0E2E
Encoding: 206 3630 175
Width: 607
Flags: W
HStem: 0 88<222 406> 144 69<221 241> 291 71<257 277> 386 61<336 365> 530 68<363 402>
DStem: 516 416 625 465 457 138 550 114
Fore
718 546 m 1
 689 516 660 488 625 465 c 1
 550 114 l 2
 540 68 527 39 506 24 c 0
 486 9 453 0 404 0 c 2
 206 0 l 2
 171 0 147 3 131 9 c 0
 113 14 104 22 100 38 c 0
 98.1125 43.285 97.2225 49.9951 97.2225 57.9151 c 0
 97.2225 70.9751 99.6425 87.325 104 106 c 2
 131 237 l 2
 139 273 156 302 181 326 c 0
 206 350 237 362 277 362 c 0
 308 362 331 351 344 330 c 0
 354.455 314.317 359.891 296.404 359.891 276.26 c 0
 359.891 269.429 359.266 262.343 358 255 c 0
 352 225 339 198 316 177 c 0
 293 154 263 144 230 142 c 0
 226 142 224 142 221 144 c 0
 215 144 213 144 211 146 c 1
 205 118 l 2
 203.608 111.503 202.862 105.867 202.862 101.492 c 0
 202.862 96.4411 203.856 93.0718 206 92 c 0
 211 90 225 88 249 88 c 2
 395 88 l 2
 418 88 434 92 439 99 c 0
 445 104 453 117 457 138 c 2
 516 416 l 1
 509 410 492 405 465 396 c 0
 438 388 398 386 343 386 c 0
 290 386 244 393 209 408 c 0
 178.118 420.52 163.259 439.309 163.259 465.53 c 0
 163.259 470.725 163.842 476.212 165 482 c 0
 171 506 186 525 210 544 c 0
 235 562 263 576 295 585 c 0
 326 594 358 598 388 598 c 0
 448 598 493 590 526 574 c 0
 559 560 576 546 586 536 c 1
 598 544 621 566 660 604 c 1
 718 546 l 1
241 213 m 0
 253 213 265 218 273 225 c 0
 282 234 288 243 290 252 c 0
 290.5 254.5 290.75 257 290.75 259.453 c 0
 290.75 266.812 288.5 273.75 284 279 c 0
 280 288 270 291 258 291 c 0
 246 291 235 288 228 282 c 0
 218 273 214 264 212 252 c 0
 211.333 249 210.889 246 210.889 243 c 0
 210.889 237 212.667 231 218 225 c 0
 223 218 229 213 241 213 c 0
357 447 m 0
 359.713 446.935 362.404 446.904 365.074 446.904 c 0
 403.742 446.904 437.808 453.452 464 460 c 0
 492 471 507 478 507 482 c 1
 503 490 492 498 471 510 c 0
 451 522 421 530 377 530 c 0
 350 530 322 525 292 518 c 0
 262 508 247 498 244 484 c 0
 243.709 482.72 243.564 481.467 243.564 480.242 c 0
 243.564 460.415 281.654 447.942 357 447 c 0
EndSplineSet
EndChar
StartChar: uni0E2F
Encoding: 207 3631 176
Width: 576
Flags: W
HStem: 244 88<298 339> 360 68<269 287> 518 70<302 317>
DStem: 465 324 617 576 436 186 533 180
Fore
150 444 m 1
 178 538 233 586 317 588 c 0
 337 588 355 584 371 573 c 0
 387 562 399 549 404 531 c 0
 408.357 519.173 410.777 507.733 410.777 495.474 c 0
 410.777 488.04 409.888 480.305 408 472 c 0
 402 441 385 414 359 392 c 0
 333 369 303 360 269 360 c 0
 263 360 259 360 254 362 c 0
 248 362 245 362 242 362 c 1
 245 342 278 332 339 332 c 1
 375 338 411 364 447 410 c 0
 483 456 508 512 521 576 c 1
 617 576 l 1
 533 180 l 2
 521 120 498 76 464 48 c 0
 430 18 374 -4 293 -24 c 1
 289 54 l 1
 330 68 361 80 379 88 c 0
 396 96 410 108 416 120 c 0
 422 134 429 156 436 186 c 2
 465 324 l 1
 452 303 430 285 397 270 c 0
 366 252 331 244 298 244 c 0
 289 244 276 246 261 248 c 0
 217 258 187 279 166 315 c 0
 151.493 338.739 144.812 365.088 144.812 394.906 c 0
 144.812 410.305 146.594 426.631 150 444 c 1
285 428 m 0
 298 428 310 432 319 441 c 0
 329 448 335 459 337 472 c 0
 338.077 476.307 338.638 480.614 338.638 484.828 c 0
 338.638 492.356 336.847 499.589 333 506 c 0
 327 513 317 518 304 518 c 0
 290 518 279 512 267 504 c 0
 258 495 251 484 248 472 c 0
 247.5 469 247.25 466 247.25 463.078 c 0
 247.25 454.312 249.5 446.25 254 441 c 0
 262 432 271 428 285 428 c 0
EndSplineSet
EndChar
StartChar: uni0E30
Encoding: 208 3632 177
Width: 454
Flags: W
HStem: 0 82<161 184> 166 70<176 192> 340 82<234 256> 507 69<246 264>
Fore
192 236 m 0
 227 236 252 225 268 206 c 0
 278.603 189.338 283.47 170.955 283.47 149.549 c 0
 283.47 142.69 282.971 135.522 282 128 c 0
 281 120 276 112 272 104 c 0
 269 93 267 87 265 81 c 1
 278 82 298 93 322 112 c 0
 346 130 364 170 377 230 c 1
 472 230 l 1
 457 158 427 102 382 62 c 0
 336 21 272 0 184 0 c 0
 144 0 111 12 85 34 c 0
 66.0765 50.6527 55.7474 72.4619 55.7474 98.9941 c 0
 55.7474 107.514 56.8125 116.521 59 126 c 0
 66 158 81 184 106 206 c 0
 128 225 156 236 192 236 c 0
264 576 m 0
 299 576 326 566 340 546 c 0
 351.08 529.749 355.613 511.316 355.613 489.894 c 0
 355.613 482.315 355.045 474.362 354 466 c 0
 353 459 348 452 344 442 c 0
 341 432 340 426 337 420 c 1
 337 420 l 1
 339 420 350 423 363 429 c 0
 379 438 396 453 413 474 c 0
 429 496 440 526 449 568 c 1
 544 568 l 1
 534 520 519 480 497 447 c 0
 475 416 444 388 404 369 c 0
 365 351 316 340 256 340 c 0
 218 340 185 352 158 375 c 0
 136.825 390.881 125.373 411.91 125.373 438.085 c 0
 125.373 446.522 126.562 455.494 129 465 c 0
 135 496 153 524 178 546 c 0
 200 566 228 576 264 576 c 0
161 82 m 0
 175 82 187 88 194 96 c 0
 204 105 208 114 211 126 c 0
 211.732 129.294 212.196 132.856 212.196 136.441 c 0
 212.196 142.651 210.804 148.928 207 154 c 0
 202 162 193 166 179 166 c 0
 165 166 154 162 147 154 c 0
 136 146 131 135 129 126 c 0
 127.964 121.858 127.405 118.073 127.405 114.522 c 0
 127.405 107.786 129.416 101.893 134 96 c 0
 139 88 147 82 161 82 c 0
234 422 m 0
 246 422 257 428 266 435 c 0
 276 444 280 453 283 465 c 0
 283.732 469.392 284.196 473.383 284.196 477.118 c 0
 284.196 483.588 282.804 489.294 279 495 c 0
 275 504 266 507 252 507 c 0
 240 507 229 504 219 495 c 0
 208 486 203 477 201 465 c 0
 200.303 461.168 199.849 457.458 199.849 453.869 c 0
 199.849 447.155 201.438 440.865 206 435 c 0
 213 428 222 422 234 422 c 0
EndSplineSet
EndChar
StartChar: uni0E31
Encoding: 209 3633 178
Width: 0
Flags: W
HStem: 682 78<-21 14> 682 83<-21 -9> 860 68<-81 -69>
Fore
-69 928 m 0
 -35 928 -12 916 3 897 c 0
 12.0397 881.007 16.7276 864.046 16.7276 844.774 c 0
 16.7276 836.331 15.8278 827.444 14 818 c 0
 12 807 7 796 1 786 c 0
 -5 777 -8 770 -11 765 c 1
 -9 765 -7 765 -3 762 c 0
 3 760 8 760 14 760 c 0
 42 760 74 771 113 794 c 0
 151 813 189 852 225 910 c 1
 303 882 l 1
 283 840 255 806 222 777 c 0
 187 747 151 724 108 706 c 0
 66 692 23 682 -21 682 c 0
 -38 682 -50 682 -58 686 c 0
 -102 690 -140 705 -169 728 c 0
 -193.558 743.349 -205.159 764.587 -205.159 791.714 c 0
 -205.159 799.935 -204.093 808.697 -202 818 c 0
 -196 849 -180 876 -157 897 c 0
 -134.737 916.48 -108.171 928.216 -76.5043 928.216 c 0
 -74.034 928.216 -71.5327 928.145 -69 928 c 0
-99 778 m 0
 -87 778 -77 782 -66 790 c 0
 -56 798 -52 807 -50 819 c 0
 -48.9233 823.307 -48.3618 826.97 -48.3618 830.358 c 0
 -48.3618 836.411 -50.1534 841.589 -54 848 c 0
 -61 856 -69 860 -81 860 c 0
 -93 860 -104 856 -116 848 c 0
 -124 838 -127 831 -130 819 c 0
 -130.828 814.029 -131.314 809.574 -131.314 805.49 c 0
 -131.314 799.716 -130.343 794.686 -128 790 c 0
 -120 782 -111 778 -99 778 c 0
EndSplineSet
EndChar
StartChar: uni0E32
Encoding: 210 3634 179
Width: 501
Flags: W
HStem: 0 21G<322 420> 516 78<321 348>
DStem: 411 420 509 418 322 0 420 0
Fore
103 438 m 1
 122 474 150 510 191 544 c 0
 228 576 282 594 348 594 c 0
 418 591 466 576 491 548 c 0
 507 528.667 515 502.222 515 470.148 c 0
 515 454.111 513 436.667 509 418 c 2
 420 0 l 1
 322 0 l 1
 411 420 l 2
 413.231 430.041 414.345 439.32 414.345 447.824 c 0
 414.345 492.681 383.365 516 322 516 c 0
 263 516 216 482 182 414 c 1
 103 438 l 1
EndSplineSet
EndChar
StartChar: uni0E33
Encoding: 211 3635 180
Width: 501
Flags: W
HStem: 0 21G<322 420> 516 78<321 348> 681 71<-33 -15> 840 70<0 15>
DStem: 411 420 509 418 322 0 420 0
Fore
103 438 m 1
 122 474 150 510 191 544 c 0
 228 576 282 594 348 594 c 0
 418 591 466 576 491 548 c 0
 507 528.667 515 502.222 515 470.148 c 0
 515 454.111 513 436.667 509 418 c 2
 420 0 l 1
 322 0 l 1
 411 420 l 2
 413.231 430.041 414.345 439.32 414.345 447.824 c 0
 414.345 492.681 383.365 516 322 516 c 0
 263 516 216 482 182 414 c 1
 103 438 l 1
15 910 m 0
 51 910 77 900 93 878 c 0
 102.756 862.669 108.141 845.396 108.141 824.828 c 0
 108.141 815.879 107.122 806.307 105 796 c 0
 99 765 82 738 58 716 c 0
 31 693 3 681 -33 681 c 0
 -68 681 -93 693 -109 716 c 0
 -120.012 731.142 -124.866 748.652 -124.866 768.205 c 0
 -124.866 777.061 -123.87 786.336 -122 796 c 0
 -115 830 -100 856 -74 878 c 0
 -52 900 -20 910 15 910 c 0
-17 752 m 0
 -2 752 8 756 19 765 c 0
 29 772 35 784 37 796 c 0
 38.0356 800.143 38.5946 804.285 38.5946 808.345 c 0
 38.5946 816.047 36.5835 823.452 32 830 c 0
 25 837 17 840 2 840 c 0
 -13 840 -23 837 -32 830 c 0
 -44 820 -48 808 -51 796 c 0
 -51.7464 791.521 -52.3536 787.043 -52.3536 782.824 c 0
 -52.3536 775.739 -50.6411 769.388 -45 765 c 0
 -40 756 -32 752 -17 752 c 0
EndSplineSet
EndChar
StartChar: uni0E34
Encoding: 212 3636 181
Width: 0
Flags: W
HStem: 729 71<-218 -180.618> 852 69<-119 -94>
Fore
-94 921 m 0
 -53 918 -19 908 5 886 c 0
 28 868 44 844 54 819 c 0
 61.4786 798.226 65.5047 775.381 65.5047 752.186 c 0
 65.5047 747.467 65.3381 742.733 65 738 c 0
 65.5 723 65.75 710.25 65.75 699.75 c 0
 65.75 689.25 65.5 681 65 675 c 1
 51 680 26 688 -7 699 c 0
 -42 706 -82 716 -126 722 c 0
 -157 728 -195 729 -237 729 c 0
 -268 729 -298 728 -324 726 c 0
 -350 724 -369 722 -379 720 c 1
 -365 758 -345 792 -317 822 c 0
 -289 850 -256 874 -216 894 c 0
 -176 912 -136 921 -94 921 c 0
-109 852 m 1
 -140 852 -168 848 -192 836 c 0
 -219 824 -237 812 -247 796 c 1
 -240 798 -232 798 -218 800 c 0
 -206 800 -193 800 -178 800 c 0
 -162 800 -144 798 -119 796 c 0
 -86 794 -59 788 -42 783 c 0
 -23 777 -10 771 -5 768 c 1
 -20 818 -54 846 -109 852 c 1
EndSplineSet
EndChar
StartChar: uni0E35
Encoding: 213 3637 182
Width: 0
Flags: W
HStem: 732 72<-198 -132>
DStem: 75 986 162 986 53 884 112 752
Fore
-59 924 m 0
 -26 924 -1 915 16 908 c 0
 35 897 47 888 53 884 c 1
 75 986 l 1
 162 986 l 1
 112 752 l 1
 116 752 116 726 116 675 c 1
 99 680 71 690 31 702 c 0
 -8 714 -51 720 -89 726 c 0
 -119 730 -156 732 -198 732 c 0
 -224 732 -244 732 -262 730 c 0
 -314 726 l 0
 -330 724 -341 724 -342 724 c 1
 -330 760 -309 795 -281 825 c 0
 -252 856 -219 879 -179 897 c 0
 -144.899 913.59 -106.55 924.234 -68.6513 924.234 c 0
 -65.43 924.234 -62.2119 924.157 -59 924 c 0
-73 856 m 1
 -102 856 -129 850 -156 838 c 0
 -181 826 -201 813 -208 798 c 1
 -204 800 -194 800 -182 801 c 0
 -169 804 -155 804 -132 804 c 0
 -120 804 -104 801 -82 800 c 0
 -57 796 -38 794 -20 790 c 0
 -4 784 8 782 19 777 c 0
 29 772 34 771 34 771 c 1
 34 771 l 1
 18 820 -16 848 -73 856 c 1
EndSplineSet
EndChar
StartChar: uni0E36
Encoding: 214 3638 183
Width: 0
Flags: W
HStem: 732 72<-231 -197.553> 856 68<-132 -107> 928 66<20 37>
Fore
113 910 m 1
 103 860 82 826 50 812 c 1
 52 801 57 784 62 762 c 0
 65.165 748.074 67.1279 730.943 67.1279 711.367 c 0
 67.1279 700.017 66.468 687.845 65 675 c 1
 49 680 19 690 -21 702 c 0
 -60 714 -102 720 -138 726 c 0
 -171 730 -207 732 -249 732 c 0
 -274 732 -296 732 -313 730 c 0
 -331 729 -346 728 -364 726 c 0
 -378 724 -389 724 -392 724 c 1
 -376 760 -356 795 -329 825 c 0
 -301 856 -269 879 -229 897 c 0
 -192 915 -150 924 -107 924 c 0
 -102 924 -95 924 -88 922 c 0
 -79.4833 921.148 -76.7693 921.022 -76.7693 919.15 c 0
 -76.7693 918.824 -76.8517 918.445 -77 918 c 0
 -49 969 -11 994 37 994 c 0
 64 994 84 988 99 974 c 0
 107.869 960.294 114.137 943.988 114.137 924.558 c 0
 114.137 919.888 113.775 915.038 113 910 c 1
-122 856 m 1
 -152 856 -181 850 -208 838 c 0
 -234 826 -250 816 -259 800 c 1
 -253 801 -246 801 -231 804 c 0
 -219 804 -205 804 -191 804 c 0
 -179 804 -158 801 -132 800 c 0
 -101 796 -75 792 -55 786 c 0
 -35 780 -23 774 -18 771 c 1
 -33 820 -69 848 -122 856 c 1
8 870 m 0
 17 870 26 873 31 879 c 0
 36 885 42 891 44 900 c 0
 44.7749 903.099 45.2495 905.899 45.2495 908.398 c 0
 45.2495 912.349 44.0629 915.55 41 918 c 0
 38 926 29 928 20 928 c 0
 2 928 -11 918 -15 900 c 0
 -15.6307 896.689 -15.9382 893.676 -15.9382 890.95 c 0
 -15.9382 876.386 -7.16193 870 8 870 c 0
EndSplineSet
EndChar
StartChar: uni0E37
Encoding: 215 3639 184
Width: 0
Flags: W
HStem: 732 72<-198 -132> 856 68<-75 -54>
DStem: 78 986 162 986 55 879 112 752
Fore
55 879 m 1
 78 986 l 1
 162 986 l 1
 112 752 l 1
 116 752 116 726 116 675 c 1
 99 680 71 690 31 702 c 0
 -8 714 -51 720 -89 726 c 0
 -119 730 -156 732 -198 732 c 0
 -224 732 -244 732 -262 730 c 0
 -314 726 l 0
 -330 724 -341 724 -342 724 c 1
 -306 806 -259 860 -208 885 c 0
 -158 910 -106 924 -54 924 c 1
 -40 986 l 1
 39 986 l 1
 21 903 l 1
 24 902 29 900 36 896 c 0
 43 890 48 885 55 879 c 1
-73 856 m 1
 -102 856 -129 850 -156 838 c 0
 -181 826 -201 813 -208 798 c 1
 -204 800 -194 800 -182 801 c 0
 -169 804 -155 804 -132 804 c 0
 -120 804 -104 801 -82 800 c 0
 -57 796 -38 794 -20 790 c 0
 -4 784 8 782 19 777 c 0
 29 772 34 771 34 771 c 1
 34 771 l 1
 18 820 -16 848 -73 856 c 1
EndSplineSet
EndChar
StartChar: uni0E38
Encoding: 216 3640 185
Width: 0
Flags: W
HStem: -297 71<-276 -235> -138 70<-226 -208>
DStem: -235 -296 -118 -172 -262 -423 -171 -423
Fore
-171 -423 m 1
 -262 -423 l 1
 -235 -296 l 1
 -245 -297 -258 -297 -276 -297 c 0
 -297 -296 -311 -288 -325 -276 c 0
 -338 -264 -344 -250 -350 -234 c 0
 -352.101 -227.697 -352.966 -220.864 -352.966 -213.724 c 0
 -352.966 -203.873 -351.319 -193.436 -349 -183 c 0
 -343 -153 -327 -126 -301 -104 c 0
 -277 -80 -245 -68 -208 -68 c 0
 -188 -68 -171 -70 -157 -80 c 0
 -141 -88 -130 -102 -124 -117 c 0
 -118.248 -127.864 -115.764 -139.546 -115.764 -151.522 c 0
 -115.764 -158.285 -116.556 -165.143 -118 -172 c 2
 -171 -423 l 1
-243 -226 m 0
 -230 -226 -217 -222 -205 -213 c 0
 -197 -206 -189 -195 -187 -183 c 0
 -186.174 -179.697 -185.803 -176.394 -185.803 -173.195 c 0
 -185.803 -164.773 -188.376 -157.073 -192 -152 c 0
 -200 -142 -209 -138 -224 -138 c 0
 -239 -138 -250 -142 -262 -152 c 0
 -271 -159 -276 -171 -279 -183 c 0
 -279.732 -187.392 -280.196 -191.651 -280.196 -195.628 c 0
 -280.196 -202.517 -278.804 -208.562 -275 -213 c 0
 -267 -222 -256 -226 -243 -226 c 0
EndSplineSet
EndChar
StartChar: uni0E39
Encoding: 217 3641 186
Width: 0
Flags: W
HStem: -434 83<-292 -273> -297 71<-420 -385> -135 67<-371 -352>
DStem: -188 -76 -97 -76 -241 -324 -153 -338
Fore
-394 -338 m 2
 -385 -296 l 1
 -391 -297 -403 -297 -420 -297 c 0
 -441 -296 -455 -288 -469 -276 c 0
 -482 -264 -488 -250 -494 -234 c 0
 -496.101 -227.697 -496.966 -220.864 -496.966 -213.724 c 0
 -496.966 -203.873 -495.319 -193.436 -493 -183 c 0
 -487 -153 -471 -126 -445 -104 c 0
 -421 -80 -389 -68 -352 -68 c 0
 -323 -68 -299 -78 -280 -96 c 0
 -266.627 -110.858 -259.326 -128.476 -259.326 -149.264 c 0
 -259.326 -156.458 -260.2 -164.03 -262 -172 c 2
 -293 -322 l 2
 -293.899 -326.045 -294.394 -329.737 -294.394 -333.03 c 0
 -294.394 -344.389 -288.505 -351 -273 -351 c 0
 -257 -351 -245 -342 -241 -324 c 2
 -188 -76 l 1
 -97 -76 l 1
 -153 -338 l 2
 -159 -366 -176 -390 -204 -406 c 0
 -235 -426 -263 -434 -292 -434 c 0
 -322 -434 -349 -426 -370 -406 c 0
 -387.286 -393.429 -395.929 -375.918 -395.929 -355.41 c 0
 -395.929 -349.816 -395.286 -344 -394 -338 c 2
-387 -226 m 0
 -372 -226 -361 -222 -349 -212 c 0
 -340 -204 -333 -194 -331 -182 c 0
 -330.15 -178.598 -329.781 -175.277 -329.781 -172.013 c 0
 -329.781 -163.763 -332.134 -155.882 -335 -148 c 0
 -344 -141 -353 -135 -368 -135 c 0
 -383 -135 -394 -141 -405 -148 c 0
 -415 -159 -422 -170 -425 -182 c 0
 -425.427 -184.564 -425.626 -187.037 -425.626 -189.419 c 0
 -425.626 -198.183 -422.931 -205.71 -419 -212 c 0
 -411 -222 -402 -226 -387 -226 c 0
EndSplineSet
EndChar
StartChar: uni0E3A
Encoding: 218 3642 187
Width: 0
Flags: W
Fore
-158 -94 m 0
 -146 -94 -137 -99 -128 -104 c 0
 -122 -108 -117 -116 -114 -126 c 0
 -111.673 -129.724 -110.862 -133.881 -110.862 -138.27 c 0
 -110.862 -143.31 -111.931 -148.655 -113 -154 c 0
 -116 -170 -123 -183 -135 -195 c 0
 -149 -207 -163 -212 -183 -212 c 0
 -201 -212 -214 -207 -221 -195 c 0
 -227.864 -186.763 -230.488 -178.054 -230.488 -168.227 c 0
 -230.488 -163.739 -229.941 -159.017 -229 -154 c 0
 -226 -140 -218 -123 -204 -112 c 0
 -191 -100 -176 -94 -158 -94 c 0
EndSplineSet
EndChar
